<mxfile host="app.diagrams.net" modified="2024-06-03T00:29:13.071Z" agent="Mozilla/5.0 (Windows NT 10.0; Win64; x64) AppleWebKit/537.36 (KHTML, like Gecko) Chrome/125.0.0.0 Safari/537.36" etag="myw_ZOmIGbclssPKrPnP" version="24.4.13" type="github">
  <diagram name="Page-1" id="wM5vTBgw53NvMh511tN3">
    <mxGraphModel dx="2044" dy="558" grid="1" gridSize="10" guides="1" tooltips="1" connect="1" arrows="1" fold="1" page="1" pageScale="1" pageWidth="850" pageHeight="1100" math="0" shadow="0">
      <root>
        <mxCell id="0" />
        <mxCell id="1" parent="0" />
        <mxCell id="yvkBnEVUl6gwgJNbP0M0-14" value="" style="rounded=0;whiteSpace=wrap;html=1;fillColor=#f5f5f5;strokeColor=default;fontColor=#333333;glass=1;shadow=1;gradientColor=none;strokeWidth=2;" parent="1" vertex="1">
          <mxGeometry x="-130" y="20" width="1180" height="430" as="geometry" />
        </mxCell>
        <mxCell id="yvkBnEVUl6gwgJNbP0M0-16" style="edgeStyle=orthogonalEdgeStyle;rounded=0;orthogonalLoop=1;jettySize=auto;html=1;exitX=0.5;exitY=1;exitDx=0;exitDy=0;" parent="1" source="yvkBnEVUl6gwgJNbP0M0-1" target="yvkBnEVUl6gwgJNbP0M0-2" edge="1">
          <mxGeometry relative="1" as="geometry" />
        </mxCell>
        <mxCell id="yvkBnEVUl6gwgJNbP0M0-17" style="edgeStyle=orthogonalEdgeStyle;rounded=0;orthogonalLoop=1;jettySize=auto;html=1;exitX=0.5;exitY=1;exitDx=0;exitDy=0;" parent="1" source="yvkBnEVUl6gwgJNbP0M0-1" target="yvkBnEVUl6gwgJNbP0M0-6" edge="1">
          <mxGeometry relative="1" as="geometry" />
        </mxCell>
        <mxCell id="yvkBnEVUl6gwgJNbP0M0-18" style="edgeStyle=orthogonalEdgeStyle;rounded=0;orthogonalLoop=1;jettySize=auto;html=1;exitX=0.5;exitY=1;exitDx=0;exitDy=0;" parent="1" source="yvkBnEVUl6gwgJNbP0M0-1" target="yvkBnEVUl6gwgJNbP0M0-4" edge="1">
          <mxGeometry relative="1" as="geometry" />
        </mxCell>
        <mxCell id="yvkBnEVUl6gwgJNbP0M0-19" style="edgeStyle=orthogonalEdgeStyle;rounded=0;orthogonalLoop=1;jettySize=auto;html=1;exitX=0.5;exitY=1;exitDx=0;exitDy=0;" parent="1" source="yvkBnEVUl6gwgJNbP0M0-1" target="yvkBnEVUl6gwgJNbP0M0-3" edge="1">
          <mxGeometry relative="1" as="geometry" />
        </mxCell>
        <mxCell id="yvkBnEVUl6gwgJNbP0M0-20" style="edgeStyle=orthogonalEdgeStyle;rounded=0;orthogonalLoop=1;jettySize=auto;html=1;exitX=0.5;exitY=1;exitDx=0;exitDy=0;" parent="1" source="yvkBnEVUl6gwgJNbP0M0-1" target="yvkBnEVUl6gwgJNbP0M0-5" edge="1">
          <mxGeometry relative="1" as="geometry" />
        </mxCell>
        <mxCell id="yvkBnEVUl6gwgJNbP0M0-1" value="Kamal Shaheb&lt;div style=&quot;font-size: 16px;&quot;&gt;(20.44)&lt;/div&gt;" style="rounded=1;whiteSpace=wrap;html=1;fontSize=16;fontStyle=1;" parent="1" vertex="1">
          <mxGeometry x="360" y="40" width="120" height="60" as="geometry" />
        </mxCell>
        <mxCell id="yvkBnEVUl6gwgJNbP0M0-21" style="edgeStyle=orthogonalEdgeStyle;rounded=0;orthogonalLoop=1;jettySize=auto;html=1;exitX=0.5;exitY=1;exitDx=0;exitDy=0;entryX=0.5;entryY=0;entryDx=0;entryDy=0;dashed=1;dashPattern=12 12;" parent="1" source="yvkBnEVUl6gwgJNbP0M0-2" target="yvkBnEVUl6gwgJNbP0M0-9" edge="1">
          <mxGeometry relative="1" as="geometry" />
        </mxCell>
        <mxCell id="vSyEHPA2a1pEyoxyhjJx-9" style="edgeStyle=orthogonalEdgeStyle;rounded=0;orthogonalLoop=1;jettySize=auto;html=1;exitX=0;exitY=0.5;exitDx=0;exitDy=0;dashed=1;dashPattern=12 12;strokeWidth=1;" parent="1" source="yvkBnEVUl6gwgJNbP0M0-2" target="vSyEHPA2a1pEyoxyhjJx-7" edge="1">
          <mxGeometry relative="1" as="geometry" />
        </mxCell>
        <mxCell id="yvkBnEVUl6gwgJNbP0M0-2" value="Hussain Peera&lt;div&gt;(8.83)&lt;/div&gt;" style="rounded=1;whiteSpace=wrap;html=1;fontSize=16;fontStyle=1" parent="1" vertex="1">
          <mxGeometry x="40" y="160" width="120" height="60" as="geometry" />
        </mxCell>
        <mxCell id="yvkBnEVUl6gwgJNbP0M0-27" style="edgeStyle=orthogonalEdgeStyle;rounded=0;orthogonalLoop=1;jettySize=auto;html=1;exitX=0.5;exitY=1;exitDx=0;exitDy=0;entryX=0.5;entryY=0;entryDx=0;entryDy=0;" parent="1" source="yvkBnEVUl6gwgJNbP0M0-3" target="yvkBnEVUl6gwgJNbP0M0-12" edge="1">
          <mxGeometry relative="1" as="geometry" />
        </mxCell>
        <mxCell id="yvkBnEVUl6gwgJNbP0M0-3" value="Rahiman&lt;div&gt;(6.98)&lt;/div&gt;" style="rounded=1;whiteSpace=wrap;html=1;fontSize=16;fontStyle=1" parent="1" vertex="1">
          <mxGeometry x="730" y="160" width="120" height="60" as="geometry" />
        </mxCell>
        <mxCell id="yvkBnEVUl6gwgJNbP0M0-25" style="edgeStyle=orthogonalEdgeStyle;rounded=0;orthogonalLoop=1;jettySize=auto;html=1;exitX=0.5;exitY=1;exitDx=0;exitDy=0;entryX=0.5;entryY=0;entryDx=0;entryDy=0;dashed=1;dashPattern=12 12;" parent="1" source="yvkBnEVUl6gwgJNbP0M0-4" target="yvkBnEVUl6gwgJNbP0M0-9" edge="1">
          <mxGeometry relative="1" as="geometry" />
        </mxCell>
        <mxCell id="yvkBnEVUl6gwgJNbP0M0-26" style="edgeStyle=orthogonalEdgeStyle;rounded=0;orthogonalLoop=1;jettySize=auto;html=1;exitX=0.5;exitY=1;exitDx=0;exitDy=0;entryX=0.5;entryY=0;entryDx=0;entryDy=0;" parent="1" source="yvkBnEVUl6gwgJNbP0M0-4" target="yvkBnEVUl6gwgJNbP0M0-11" edge="1">
          <mxGeometry relative="1" as="geometry" />
        </mxCell>
        <mxCell id="yvkBnEVUl6gwgJNbP0M0-4" value="Siddaiah&lt;div&gt;(2.41)&lt;/div&gt;" style="rounded=1;whiteSpace=wrap;html=1;fontSize=16;fontStyle=1" parent="1" vertex="1">
          <mxGeometry x="360" y="160" width="120" height="60" as="geometry" />
        </mxCell>
        <mxCell id="yvkBnEVUl6gwgJNbP0M0-28" style="edgeStyle=orthogonalEdgeStyle;rounded=0;orthogonalLoop=1;jettySize=auto;html=1;exitX=0.5;exitY=1;exitDx=0;exitDy=0;" parent="1" source="yvkBnEVUl6gwgJNbP0M0-5" target="yvkBnEVUl6gwgJNbP0M0-13" edge="1">
          <mxGeometry relative="1" as="geometry" />
        </mxCell>
        <mxCell id="yvkBnEVUl6gwgJNbP0M0-5" value="Grand Mother&lt;div&gt;(1.30)&lt;/div&gt;" style="rounded=1;whiteSpace=wrap;html=1;fontSize=16;fontStyle=1" parent="1" vertex="1">
          <mxGeometry x="540" y="160" width="120" height="60" as="geometry" />
        </mxCell>
        <mxCell id="yvkBnEVUl6gwgJNbP0M0-24" style="edgeStyle=orthogonalEdgeStyle;rounded=0;orthogonalLoop=1;jettySize=auto;html=1;exitX=0.5;exitY=1;exitDx=0;exitDy=0;entryX=0.5;entryY=0;entryDx=0;entryDy=0;dashed=1;dashPattern=12 12;" parent="1" source="yvkBnEVUl6gwgJNbP0M0-6" target="yvkBnEVUl6gwgJNbP0M0-9" edge="1">
          <mxGeometry relative="1" as="geometry" />
        </mxCell>
        <mxCell id="yvkBnEVUl6gwgJNbP0M0-6" value="&lt;div&gt;Mastanamma&lt;/div&gt;&lt;div&gt;(1.41)&lt;/div&gt;" style="rounded=1;whiteSpace=wrap;html=1;fontSize=16;fontStyle=1" parent="1" vertex="1">
          <mxGeometry x="200" y="160" width="120" height="60" as="geometry" />
        </mxCell>
        <mxCell id="yvkBnEVUl6gwgJNbP0M0-9" value="Hussain Peera&lt;div&gt;(11.54)&lt;/div&gt;" style="rounded=1;whiteSpace=wrap;html=1;fontSize=16;fontStyle=1" parent="1" vertex="1">
          <mxGeometry x="200" y="307" width="120" height="60" as="geometry" />
        </mxCell>
        <mxCell id="yvkBnEVUl6gwgJNbP0M0-11" value="Siddaiah&lt;div&gt;(1.11)&lt;/div&gt;" style="rounded=1;whiteSpace=wrap;html=1;fontSize=16;fontStyle=1" parent="1" vertex="1">
          <mxGeometry x="360" y="307" width="120" height="60" as="geometry" />
        </mxCell>
        <mxCell id="yvkBnEVUl6gwgJNbP0M0-12" value="Rahiman&lt;div&gt;(6.98)&lt;/div&gt;" style="rounded=1;whiteSpace=wrap;html=1;fontSize=16;fontStyle=1" parent="1" vertex="1">
          <mxGeometry x="730" y="307" width="120" height="60" as="geometry" />
        </mxCell>
        <mxCell id="yvkBnEVUl6gwgJNbP0M0-13" value="Grand Mother&lt;div&gt;(1.30)&lt;/div&gt;" style="rounded=1;whiteSpace=wrap;html=1;fontSize=16;fontStyle=1" parent="1" vertex="1">
          <mxGeometry x="540" y="307" width="120" height="60" as="geometry" />
        </mxCell>
        <mxCell id="vSyEHPA2a1pEyoxyhjJx-1" value="1.30 Acres Purchased" style="text;html=1;align=center;verticalAlign=middle;whiteSpace=wrap;rounded=0;fontStyle=1" parent="1" vertex="1">
          <mxGeometry x="350" y="230" width="60" height="30" as="geometry" />
        </mxCell>
        <mxCell id="vSyEHPA2a1pEyoxyhjJx-7" value="Patta: 6.7&lt;div style=&quot;font-size: 16px;&quot;&gt;D-Patta: 2.13&lt;/div&gt;" style="text;html=1;align=left;verticalAlign=middle;whiteSpace=wrap;rounded=0;fontStyle=1;labelBackgroundColor=none;labelBorderColor=default;textShadow=0;fontSize=16;" parent="1" vertex="1">
          <mxGeometry x="-120" y="240" width="140" height="30" as="geometry" />
        </mxCell>
        <mxCell id="vSyEHPA2a1pEyoxyhjJx-8" value="Patta: 5.68&lt;div style=&quot;font-size: 16px;&quot;&gt;D-Patta: 1.30&lt;/div&gt;" style="text;html=1;align=left;verticalAlign=middle;whiteSpace=wrap;rounded=0;fontStyle=1;labelBackgroundColor=none;labelBorderColor=default;textShadow=0;fontSize=16;" parent="1" vertex="1">
          <mxGeometry x="920" y="220" width="140" height="30" as="geometry" />
        </mxCell>
        <mxCell id="vSyEHPA2a1pEyoxyhjJx-10" style="edgeStyle=orthogonalEdgeStyle;rounded=0;orthogonalLoop=1;jettySize=auto;html=1;exitX=1;exitY=0.5;exitDx=0;exitDy=0;entryX=0.386;entryY=-0.017;entryDx=0;entryDy=0;entryPerimeter=0;dashed=1;dashPattern=12 12;" parent="1" source="yvkBnEVUl6gwgJNbP0M0-3" target="vSyEHPA2a1pEyoxyhjJx-8" edge="1">
          <mxGeometry relative="1" as="geometry" />
        </mxCell>
        <mxCell id="vSyEHPA2a1pEyoxyhjJx-12" value="1.41 Acres Purchased" style="text;html=1;align=center;verticalAlign=middle;whiteSpace=wrap;rounded=0;fontStyle=1" parent="1" vertex="1">
          <mxGeometry x="190" y="230" width="60" height="30" as="geometry" />
        </mxCell>
        <mxCell id="vSyEHPA2a1pEyoxyhjJx-13" value="Land share from the ancestors" style="text;html=1;align=center;verticalAlign=middle;whiteSpace=wrap;rounded=1;labelBorderColor=default;fontSize=25;fillColor=none;sketch=1;curveFitting=1;jiggle=2;shadow=1;glass=1;strokeColor=none;fontStyle=1" parent="1" vertex="1">
          <mxGeometry x="-120" y="400" width="370" height="30" as="geometry" />
        </mxCell>
        <mxCell id="vSyEHPA2a1pEyoxyhjJx-14" value="" style="rounded=0;whiteSpace=wrap;html=1;fillColor=#f5f5f5;strokeColor=default;fontColor=#333333;glass=1;shadow=1;strokeWidth=2;" parent="1" vertex="1">
          <mxGeometry x="-209" y="500" width="1370" height="640" as="geometry" />
        </mxCell>
        <mxCell id="vSyEHPA2a1pEyoxyhjJx-15" style="edgeStyle=orthogonalEdgeStyle;rounded=0;orthogonalLoop=1;jettySize=auto;html=1;exitX=0.5;exitY=1;exitDx=0;exitDy=0;" parent="1" source="vSyEHPA2a1pEyoxyhjJx-20" target="vSyEHPA2a1pEyoxyhjJx-23" edge="1">
          <mxGeometry relative="1" as="geometry" />
        </mxCell>
        <mxCell id="vSyEHPA2a1pEyoxyhjJx-16" style="edgeStyle=orthogonalEdgeStyle;rounded=0;orthogonalLoop=1;jettySize=auto;html=1;exitX=0.5;exitY=1;exitDx=0;exitDy=0;" parent="1" source="vSyEHPA2a1pEyoxyhjJx-20" target="vSyEHPA2a1pEyoxyhjJx-32" edge="1">
          <mxGeometry relative="1" as="geometry" />
        </mxCell>
        <mxCell id="vSyEHPA2a1pEyoxyhjJx-18" style="edgeStyle=orthogonalEdgeStyle;rounded=0;orthogonalLoop=1;jettySize=auto;html=1;exitX=0.5;exitY=1;exitDx=0;exitDy=0;" parent="1" source="vSyEHPA2a1pEyoxyhjJx-20" target="vSyEHPA2a1pEyoxyhjJx-25" edge="1">
          <mxGeometry relative="1" as="geometry">
            <Array as="points">
              <mxPoint x="423" y="620" />
              <mxPoint x="804" y="620" />
            </Array>
          </mxGeometry>
        </mxCell>
        <mxCell id="vSyEHPA2a1pEyoxyhjJx-20" value="Kamal Shaheb&lt;div style=&quot;font-size: 16px;&quot;&gt;(21.28)&lt;/div&gt;" style="rounded=1;whiteSpace=wrap;html=1;fontSize=16;fontStyle=1;" parent="1" vertex="1">
          <mxGeometry x="363" y="520" width="120" height="60" as="geometry" />
        </mxCell>
        <mxCell id="vSyEHPA2a1pEyoxyhjJx-52" style="edgeStyle=orthogonalEdgeStyle;rounded=0;orthogonalLoop=1;jettySize=auto;html=1;exitX=0.5;exitY=1;exitDx=0;exitDy=0;entryX=0.5;entryY=0;entryDx=0;entryDy=0;" parent="1" source="vSyEHPA2a1pEyoxyhjJx-23" target="vSyEHPA2a1pEyoxyhjJx-47" edge="1">
          <mxGeometry relative="1" as="geometry" />
        </mxCell>
        <mxCell id="vSyEHPA2a1pEyoxyhjJx-53" style="edgeStyle=orthogonalEdgeStyle;rounded=0;orthogonalLoop=1;jettySize=auto;html=1;exitX=0.5;exitY=1;exitDx=0;exitDy=0;" parent="1" source="vSyEHPA2a1pEyoxyhjJx-23" target="vSyEHPA2a1pEyoxyhjJx-48" edge="1">
          <mxGeometry relative="1" as="geometry" />
        </mxCell>
        <mxCell id="vSyEHPA2a1pEyoxyhjJx-69" style="edgeStyle=orthogonalEdgeStyle;rounded=0;orthogonalLoop=1;jettySize=auto;html=1;entryX=0.5;entryY=0;entryDx=0;entryDy=0;" parent="1" source="vSyEHPA2a1pEyoxyhjJx-23" target="vSyEHPA2a1pEyoxyhjJx-43" edge="1">
          <mxGeometry relative="1" as="geometry" />
        </mxCell>
        <mxCell id="vSyEHPA2a1pEyoxyhjJx-74" style="edgeStyle=orthogonalEdgeStyle;rounded=0;orthogonalLoop=1;jettySize=auto;html=1;dashed=1;strokeColor=#3333FF;strokeWidth=2;fontColor=#0000FF;flowAnimation=1;" parent="1" source="vSyEHPA2a1pEyoxyhjJx-23" target="vSyEHPA2a1pEyoxyhjJx-44" edge="1">
          <mxGeometry relative="1" as="geometry">
            <Array as="points">
              <mxPoint x="28" y="840" />
              <mxPoint x="530" y="840" />
            </Array>
          </mxGeometry>
        </mxCell>
        <mxCell id="vSyEHPA2a1pEyoxyhjJx-84" value="" style="edgeStyle=orthogonalEdgeStyle;rounded=0;orthogonalLoop=1;jettySize=auto;html=1;entryX=0.5;entryY=0;entryDx=0;entryDy=0;dashed=1;strokeColor=#3333FF;strokeWidth=2;align=center;verticalAlign=middle;fontFamily=Helvetica;fontSize=11;fontColor=#0000FF;labelBackgroundColor=default;endArrow=classic;flowAnimation=1;" parent="1" source="vSyEHPA2a1pEyoxyhjJx-23" target="vSyEHPA2a1pEyoxyhjJx-35" edge="1">
          <mxGeometry relative="1" as="geometry">
            <Array as="points">
              <mxPoint x="28" y="860" />
              <mxPoint x="770" y="860" />
            </Array>
          </mxGeometry>
        </mxCell>
        <mxCell id="vSyEHPA2a1pEyoxyhjJx-23" value="Hasanamma&lt;div&gt;(9.78)&lt;/div&gt;" style="rounded=1;whiteSpace=wrap;html=1;fontSize=16;fontStyle=1" parent="1" vertex="1">
          <mxGeometry x="-32" y="660" width="120" height="60" as="geometry" />
        </mxCell>
        <mxCell id="vSyEHPA2a1pEyoxyhjJx-55" style="edgeStyle=orthogonalEdgeStyle;rounded=0;orthogonalLoop=1;jettySize=auto;html=1;entryX=0.5;entryY=0;entryDx=0;entryDy=0;" parent="1" source="vSyEHPA2a1pEyoxyhjJx-25" target="vSyEHPA2a1pEyoxyhjJx-51" edge="1">
          <mxGeometry relative="1" as="geometry" />
        </mxCell>
        <mxCell id="vSyEHPA2a1pEyoxyhjJx-56" style="edgeStyle=orthogonalEdgeStyle;rounded=0;orthogonalLoop=1;jettySize=auto;html=1;" parent="1" source="vSyEHPA2a1pEyoxyhjJx-25" target="vSyEHPA2a1pEyoxyhjJx-50" edge="1">
          <mxGeometry relative="1" as="geometry" />
        </mxCell>
        <mxCell id="vSyEHPA2a1pEyoxyhjJx-72" style="edgeStyle=orthogonalEdgeStyle;rounded=0;orthogonalLoop=1;jettySize=auto;html=1;exitX=0.75;exitY=1;exitDx=0;exitDy=0;dashed=1;dashPattern=1 4;strokeColor=#FF0000;strokeWidth=2;flowAnimation=1;" parent="1" source="vSyEHPA2a1pEyoxyhjJx-25" target="vSyEHPA2a1pEyoxyhjJx-46" edge="1">
          <mxGeometry relative="1" as="geometry">
            <Array as="points">
              <mxPoint x="830" y="710" />
              <mxPoint x="830" y="840" />
              <mxPoint x="1010" y="840" />
            </Array>
          </mxGeometry>
        </mxCell>
        <mxCell id="vSyEHPA2a1pEyoxyhjJx-75" style="edgeStyle=orthogonalEdgeStyle;rounded=0;orthogonalLoop=1;jettySize=auto;html=1;dashed=1;dashPattern=1 2;strokeWidth=2;strokeColor=#FF0000;flowAnimation=1;entryX=0.646;entryY=-0.008;entryDx=0;entryDy=0;entryPerimeter=0;" parent="1" source="vSyEHPA2a1pEyoxyhjJx-25" target="vSyEHPA2a1pEyoxyhjJx-44" edge="1">
          <mxGeometry relative="1" as="geometry">
            <mxPoint x="550" y="830" as="targetPoint" />
          </mxGeometry>
        </mxCell>
        <mxCell id="vSyEHPA2a1pEyoxyhjJx-85" style="edgeStyle=orthogonalEdgeStyle;rounded=0;orthogonalLoop=1;jettySize=auto;html=1;entryX=0.75;entryY=0;entryDx=0;entryDy=0;" parent="1" source="vSyEHPA2a1pEyoxyhjJx-25" target="vSyEHPA2a1pEyoxyhjJx-35" edge="1">
          <mxGeometry relative="1" as="geometry" />
        </mxCell>
        <mxCell id="vSyEHPA2a1pEyoxyhjJx-25" value="Raffiq&lt;div&gt;(6.89)&lt;/div&gt;" style="rounded=1;whiteSpace=wrap;html=1;fontSize=16;fontStyle=1" parent="1" vertex="1">
          <mxGeometry x="744" y="650" width="120" height="60" as="geometry" />
        </mxCell>
        <mxCell id="vSyEHPA2a1pEyoxyhjJx-54" style="edgeStyle=orthogonalEdgeStyle;rounded=0;orthogonalLoop=1;jettySize=auto;html=1;" parent="1" source="vSyEHPA2a1pEyoxyhjJx-32" target="vSyEHPA2a1pEyoxyhjJx-49" edge="1">
          <mxGeometry relative="1" as="geometry" />
        </mxCell>
        <mxCell id="vSyEHPA2a1pEyoxyhjJx-70" style="edgeStyle=orthogonalEdgeStyle;rounded=0;orthogonalLoop=1;jettySize=auto;html=1;entryX=0.5;entryY=0;entryDx=0;entryDy=0;" parent="1" source="vSyEHPA2a1pEyoxyhjJx-32" target="vSyEHPA2a1pEyoxyhjJx-45" edge="1">
          <mxGeometry relative="1" as="geometry" />
        </mxCell>
        <mxCell id="vSyEHPA2a1pEyoxyhjJx-73" style="edgeStyle=orthogonalEdgeStyle;rounded=0;orthogonalLoop=1;jettySize=auto;html=1;dashed=1;dashPattern=12 12;strokeWidth=2;strokeColor=#00994D;flowAnimation=1;entryX=0.25;entryY=0;entryDx=0;entryDy=0;" parent="1" source="vSyEHPA2a1pEyoxyhjJx-32" target="vSyEHPA2a1pEyoxyhjJx-35" edge="1">
          <mxGeometry relative="1" as="geometry">
            <Array as="points">
              <mxPoint x="423" y="830" />
              <mxPoint x="740" y="830" />
            </Array>
          </mxGeometry>
        </mxCell>
        <mxCell id="vSyEHPA2a1pEyoxyhjJx-32" value="Mabhu&lt;div&gt;(4.61)&lt;/div&gt;" style="rounded=1;whiteSpace=wrap;html=1;fontSize=16;fontStyle=1" parent="1" vertex="1">
          <mxGeometry x="363" y="640" width="120" height="60" as="geometry" />
        </mxCell>
        <mxCell id="vSyEHPA2a1pEyoxyhjJx-35" value="Rahiman&lt;div&gt;(6.78&lt;span style=&quot;background-color: initial;&quot;&gt;)&lt;/span&gt;&lt;/div&gt;" style="rounded=1;whiteSpace=wrap;html=1;fontSize=16;fontStyle=1" parent="1" vertex="1">
          <mxGeometry x="710" y="885" width="120" height="60" as="geometry" />
        </mxCell>
        <mxCell id="vSyEHPA2a1pEyoxyhjJx-42" value="Land share as per adangal" style="text;html=1;align=center;verticalAlign=middle;whiteSpace=wrap;rounded=1;labelBorderColor=default;fontSize=25;fillColor=none;sketch=1;curveFitting=1;jiggle=2;shadow=1;glass=1;strokeColor=none;fontStyle=1" parent="1" vertex="1">
          <mxGeometry x="-210" y="1090" width="370" height="30" as="geometry" />
        </mxCell>
        <mxCell id="vSyEHPA2a1pEyoxyhjJx-43" value="Hasanamma&lt;div&gt;(8.83&lt;span style=&quot;background-color: initial;&quot;&gt;)&lt;/span&gt;&lt;/div&gt;" style="rounded=1;whiteSpace=wrap;html=1;fontSize=16;fontStyle=1" parent="1" vertex="1">
          <mxGeometry x="-32" y="880" width="120" height="60" as="geometry" />
        </mxCell>
        <mxCell id="vSyEHPA2a1pEyoxyhjJx-44" value="Siddaiah&lt;div&gt;(1.11)&lt;/div&gt;" style="rounded=1;whiteSpace=wrap;html=1;fontSize=16;fontStyle=1" parent="1" vertex="1">
          <mxGeometry x="470" y="885" width="120" height="60" as="geometry" />
        </mxCell>
        <mxCell id="vSyEHPA2a1pEyoxyhjJx-45" value="Mabhu&lt;div&gt;(3.05)&lt;/div&gt;" style="rounded=1;whiteSpace=wrap;html=1;fontSize=16;fontStyle=1" parent="1" vertex="1">
          <mxGeometry x="220" y="880" width="120" height="60" as="geometry" />
        </mxCell>
        <mxCell id="vSyEHPA2a1pEyoxyhjJx-46" value="Grand Mother&lt;div&gt;(1.30)&lt;/div&gt;" style="rounded=1;whiteSpace=wrap;html=1;fontSize=16;fontStyle=1" parent="1" vertex="1">
          <mxGeometry x="950" y="885" width="120" height="60" as="geometry" />
        </mxCell>
        <mxCell id="vSyEHPA2a1pEyoxyhjJx-47" value="Rahiman&lt;div&gt;(-0.20)&lt;/div&gt;" style="rounded=1;whiteSpace=wrap;html=1;fontSize=16;fontStyle=1;fontColor=#FF0000;" parent="1" vertex="1">
          <mxGeometry x="-152" y="760" width="120" height="60" as="geometry" />
        </mxCell>
        <mxCell id="vSyEHPA2a1pEyoxyhjJx-48" value="Siddaiah&lt;div&gt;(-0.75)&lt;/div&gt;" style="rounded=1;whiteSpace=wrap;html=1;fontSize=16;fontStyle=1;fontColor=#FF0000;" parent="1" vertex="1">
          <mxGeometry x="88" y="760" width="120" height="60" as="geometry" />
        </mxCell>
        <mxCell id="vSyEHPA2a1pEyoxyhjJx-49" value="Rahiman&lt;div&gt;(-1.56)&lt;/div&gt;" style="rounded=1;whiteSpace=wrap;html=1;fontSize=16;fontStyle=1;fontColor=#FF0000;" parent="1" vertex="1">
          <mxGeometry x="363" y="754" width="120" height="60" as="geometry" />
        </mxCell>
        <mxCell id="vSyEHPA2a1pEyoxyhjJx-50" value="Grand Mother&lt;div&gt;(-1.30)&lt;/div&gt;" style="rounded=1;whiteSpace=wrap;html=1;fontSize=16;fontStyle=1;fontColor=#FF0000;" parent="1" vertex="1">
          <mxGeometry x="914" y="750" width="120" height="60" as="geometry" />
        </mxCell>
        <mxCell id="vSyEHPA2a1pEyoxyhjJx-51" value="Siddaiah&lt;div&gt;(-0.37)&lt;/div&gt;" style="rounded=1;whiteSpace=wrap;html=1;fontSize=16;fontStyle=1;fontColor=#FF0000;" parent="1" vertex="1">
          <mxGeometry x="614" y="750" width="120" height="60" as="geometry" />
        </mxCell>
        <mxCell id="vSyEHPA2a1pEyoxyhjJx-57" value="182: -0.20" style="text;align=left;verticalAlign=middle;rounded=0;fontStyle=0;labelBackgroundColor=none;labelBorderColor=none;textShadow=0;fontSize=16;horizontal=1;fontColor=#FF0000;html=1;whiteSpace=wrap;" parent="1" vertex="1">
          <mxGeometry x="-180" y="730" width="140" height="30" as="geometry" />
        </mxCell>
        <mxCell id="vSyEHPA2a1pEyoxyhjJx-58" value="183: -0.38&lt;div&gt;233: -0.37&lt;/div&gt;" style="text;html=1;align=left;verticalAlign=middle;whiteSpace=wrap;rounded=0;fontStyle=0;labelBackgroundColor=none;labelBorderColor=default;textShadow=0;fontSize=16;fontColor=#FF0000;" parent="1" vertex="1">
          <mxGeometry x="160" y="720" width="140" height="30" as="geometry" />
        </mxCell>
        <mxCell id="vSyEHPA2a1pEyoxyhjJx-59" value="234: -1.20&lt;div&gt;265: -0.36&lt;/div&gt;" style="text;html=1;align=left;verticalAlign=middle;whiteSpace=wrap;rounded=0;fontStyle=0;labelBackgroundColor=none;labelBorderColor=default;textShadow=0;fontSize=16;fontColor=#FF0000;" parent="1" vertex="1">
          <mxGeometry x="340" y="710" width="140" height="30" as="geometry" />
        </mxCell>
        <mxCell id="vSyEHPA2a1pEyoxyhjJx-60" value="233: -0.37" style="text;html=1;align=left;verticalAlign=middle;whiteSpace=wrap;rounded=0;fontStyle=0;labelBackgroundColor=none;labelBorderColor=default;textShadow=0;fontSize=16;fontColor=#FF0000;" parent="1" vertex="1">
          <mxGeometry x="594" y="710" width="140" height="30" as="geometry" />
        </mxCell>
        <mxCell id="vSyEHPA2a1pEyoxyhjJx-61" value="183: -1.30" style="text;html=1;align=left;verticalAlign=middle;whiteSpace=wrap;rounded=0;fontStyle=0;labelBackgroundColor=none;labelBorderColor=default;textShadow=0;fontSize=16;fontColor=#FF0000;" parent="1" vertex="1">
          <mxGeometry x="890" y="710" width="140" height="30" as="geometry" />
        </mxCell>
        <mxCell id="vSyEHPA2a1pEyoxyhjJx-78" value="" style="shape=image;verticalLabelPosition=bottom;labelBackgroundColor=default;verticalAlign=top;aspect=fixed;imageAspect=0;image=data:image/png,iVBORw0KGgoAAAANSUhEUgAAAT4AAAEaCAYAAACIBTsQAAAAAXNSR0IArs4c6QAAAARnQU1BAACxjwv8YQUAAAAJcEhZcwAAHYcAAB2HAY/l8WUAACtHSURBVHhe7Z1fiCTXvd9/4xs7WMuNAtpYls3KttQ9EsNISPuWavvBsELM7IUsZHcFFtEIYboVuDAD0rKGLDiGzcOyMnQ/hHgaYbQKuqA1hH3IdOdmNvjh0n2friSsnRlrqmWPtTGKhcT1DVfyww1Mfr/qqu5zTv3p+tMz29Xn+xFHW1XTp/7+6nvO75zfqbPwxz/+8ZCY3//+9/TNb35TFgEoJbBhkIRqH1/y/s8cHnr6B0BpgQ2DJFT7WNjZ2eH1Q9rb2/M3AQDAfDNydbe3t2nzbx/yNgIAwDyy/dOa9+/I1QUAAFuA8AEArAPCBwCwDggfAMA6IHwAAOuA8AEArAPCBwCwDggfAMA6IHwAAOuA8AEArAPCBwCwDggfAMA6IHwAAOvI/XWWR08/TC888wCd+tp9dMrfRvQF3f3kT9Tfvku/fOdz+tDfCu4tZ158mi4/cZ+/9gX1b+/Tj7uf++sJPHSSfvLqY+TI8vsf0MtvfIpnOg1OP04/f57fHX/1Lt/bl/jegqMn/9dZHnqYfnK5Rj97/hQ5mugJvP61B+i555+in/30afohvnI1A5ygbz8YiJ5wHzlnnqKfnPZXE1Ger7YPUIQzT45FTzj1xCm8K8dMNuFj0fv5qyJ4/rrwyWfUf3+Y7n7ib/PglwYPc2ZxnnmYHvWXwXFykr73hL84ggujp074y+A4yCR8Z549NS6pWPCuvdajZ679mn78xjC9dI3XX3mPXn6LRdD/GZhRvnaKXkhV6wPT5NEVrjj4y1JZCDjFtUAURMdHBuFTS6ov6O03f023P/ZXNT6nD99hEXylRz9+x98EZoTP6O3bX/jLXOt7/nE64y+D4+AEff/JoMngM/qbNz6lvr9GX3uAvg8P6dhIL3wPqe15f6KDSNEDs85Bd5/eHjVJPEA/WIGLdWw89MC4mej9T+k2fUpvjgoiuLvHSfpeXb99byh+XON77V16PY/4nX6ctp9/YLj8/gf0TFJv1mk+5vP+MaN+q5zT3dvv0UvSUyk9kS88NjYwccmldvqQctxP7tLL1z6a0EN5kn54+TF6ztsP7+MV3oe33eQEnWH35QfSYK21fX5B/V/dpTe7ET2h6j1IdS4n+FyeGp/La3G17SiMvHId6vGTnqX6zFOe56OnH/B6+6Xja8y4t//1d1L0Jgtqz2eqY88+j648TT87M7wv/bd8j0h7r5LszCeLzUfaSA57NeHj/fCpk+Q8+VUvqmMMP2d23//qrz/KYJ/HS/Ze3Y/5ovxFKZ2ee/akv3yUmL3GE5AXWsIv1AfKLsT3RM/V80/jVpw+6YsFw0bxW39R5VF5OX/6FF0+YxiRwAbhnHnM690O9aBmPpdT+rkUNap37iq1vuk8y+BeBL39OuPe/u3Lj6fqwdR6PufCDTTc3KAZ6OPPqK/UwL+Xtd01yeYNctvrCBbYyzXveM95+4h4zk+cosuv1ujnM+5JZGjjU6vlzBOPsRE/TGdmxSCfXNRqMV5PM4uEVwqJUHz8Ef3V+94fmcluhbx4AXd/9Vlkre1nQY2Eucul7Nu3P6Brb3G6rRozH+v5mm5M0z6XzHxOr795dyy+RcMpjHshyP2I7O0XAXzVwlAntfDy3NyAz+mXv1LaXZ/MUAhNsnmVIvbq43XMjASTj/E+F6CSP7QPolOpQ6buDZl6dT/U2oeYr/nq/uK9F8BR6SOBtq+8O+xpvvYuPcPLgRt3m0UjILkXTe/I6b9nuGfibigG9/ZrPXrp2q/pdXYTbr/DqSvH7tHLakeCET4ytXPJiyG+z72QM7xFuxeMd/+H90Pr7X9NEVrleHHHlPsz+j2/pL+cUdcpLWrh1f+V3mTz4XvKtT5xMnWHUxqb95iCvY4QwXzrPe8YL73xEb0u+eP2kUXEj5lMwufVFK69R2+/P744YVS9ZTfmngqgtAUljS7gB5SqF43d3CDkIOqlU8N6+m/Ft3V+2H2XrgXiYoaP5DkXLmFztavGcPuvFTHKGd6ihzgl3H8W2pdU8fOPF3tMPzLgGUmlb99TCy/FzQ0w3N1MHU6TbJ6Zir0y8ncJX0tqp/2we3ds1xlE/LjJKHwCi98b79LLb/EFqrU/RtpxghpgrtpDIT6jaxNfkE/pb1K4mFrpvG3uc4IRG/z2D+NC4tSD6vH0Hr24drakmkJhWIz+U5pSPhYzxGnC/ddqmcP7od+TOUUpvO7evhvReaG7u+lj+tLY/LTsdb7IIXxDPnzno2HV9rUPwgLINcBjH7IW0wFhMtnFnGAoalgPX/e32ajPJKTv+D8VTj34VX9pyGQXJ5vR5kErobmU/w9Zahs5Qpy0F4vvf/qXvKycoB8+M3Yz45oqNFtI8gBU0tj8FO01zAl69KETxj5Um5hdcgtfwIcff+oJ4DMhASzQbnSUqD2aUQbGD2/sWn4aLp1VQ+L8zz3/GF1OSn74QiSTevQmnctU4Of3llIYnDmV3j3RXqp0Bc+Hf/iTv2QJauxeUltlxg6v1EzTXj0kZOlx+rn07kov/qtPGftQmj5mmMLCN8IXQLVxM2+70dGiuhVhF/MoXcu7oZc+uUfvSN1cFS285QG6/OLsNkqXjUefUnq7/0D0Ha12pKdvc40wYBZqwmF7HcaEer3DZjhMyZie8PmYPb+z2LMT72JmdC2lYTlogE+RvGBTg/jG4KN3c8d8Tq9vj2t9hcNbgI8au8dIJ6BWO9LTc6NPhzFHUWkoaK9nXgwC4QV2229/QC/LeH0tH3t+/i9mmakLn7xEB1yyzTRxLiaXusmN0IwWfHyf1iaSD7XDRenRS3Mu0+SdX4979BI6W2JJeS8eVduNpL2PU3LjfIlR3dwcTKXSMC17fehh+sGoIB6O9vmxjPKYYpTBcXIEwqcTri4rPHjfParOR7uYY9cyIV5OG8HyVfr2FGpGUR0uqc5lymjhLWlqfWpITsp78R3lu35iG4n2UXLUMBIZXqbXjGKS0t46lXCQadmr1p5b/rjKIxA+1UUT4zZe2rTDtczA2CkTdneV8058sHpIzFSG7oVi+tKey5Qxg5pHvZFxsHCNas4p7sXpx+myUmsQQT8uUT9+1PcgQ+GlFSY5hrCFOAJ7TUIVyBkmtfCdebE2HGd5+kR8LU0GS1/2P1UufHKX3jTbpjQ3kx9ERM+v12s0Grh9RGgvORvYi4pryTWwJPdLraHJ0L3J4xKlyz/pN0ZMX/C5d2Y6Q9TSc/sNpY2GXaPkZ2C2DfK94PsYZR8yVYE+wmMYjB0bkC028FPpORS7m8HogEkoTRXZCi9VqKbj7k7FXlNUWI7lvZ0Sf/ajH/3oP8rCb37zG/q7//3n3sYoHnnqYfruI/fR8pNfp7949mF64emT9P3qv6TTT/G/nF549jH6y2dO0qnR/fqC3v4vH9D/+kd/dcQ/0T/8i5P0F498ebh64n7eH+/jG8N9vfDvHqPnn7yP7pe/fcI3+8SX/eXP6L++N3ZPPf78fvo3zv3Dv3/+f+m/9/6B/t77Qzp+86UT9ILf+Hxq5IJ9Qf/jv31E74TOW+HjT+njb5yk7z44vIb7H/k6X/9JqnzjK/TPvvRleoRLvUe4EFh79hG+nkfpL5/9On33yS/Tx//zU/qNlyPM33/+Ffp+cC0jUpzLRL5Cp7/7dVr2nsufqJdwDkP4nv+Z8nwC4u6vdy/YNh4crt7/IOdl+/j+0yfodNW3De+ZKtcmjez/+ePEZ3WG7WnV3yexDXz+/v8peB+OFzn/4J7c/dvf0huDfxqupEC1S2kO+ufqteex+WnY6z/+P/pXTwd29GVaduSd/Qp9Lvn5Ga/922X69//af29HpLG34+UFtk0hdY1PDTz1kNrAEw+Q4yf9EzefJX62ajg0Rt3feF9BaSETsLx8TR3feQRoboVPymFht2X0ihq6w9fgaL12p3hdbReZEOem1YR9pjxELS2hMdkTuP1Gz3ieXJBwrWBkG/42Yfhcyz4EbQJGR0Bmd974es40YvqK26sMV1VjdeWd9fOfGX+8QJ7vNe04s0lq4fPG6b3yHl+UDFXjWkHoxeBt3tca3huO55vwwnoPwhv2pt8k2Yd80l5mncr0cuTqHWS3QntIbKQZ4uW8e/Ka3JPP+H6EH7Zs64/uyaSXXe9wEY40di8RNvI39YD0ie4/P8/xvfA3Boi9ZHyupf5IgdrOxded/dyNIWwPfjXa1c9o88XtVWJ1o56x6MFn/Hzf855vmkD2e03u6SXBESAdOlk+SgkAyET+6SXBkaGHPxxD7B4AlgLhmxlyhj8AADID4ZsR1GkHS9emBUDJgPDNBPqYzvA3AAEA0wTCNwtony66e8QfJAAAoFcXAGAN6NUFAFgLhA8AYB0QPgCAdSzs7OwcMrS3t0cXLlzwNwMAwPxxcHDg/at1bpw/f97bCEAZWVhYICnEAYhCtQ+4ugAA64DwAQCsA8IHALAOCB8AwDogfAAA64DwAQCsA8IHALAOCB8AwDogfAAA64DwAQCsA8KXhkGXWo2aN+RlmBrU9f8Uz4C6rQbVamo+STWqNVrUHfg/CyH5WtTgfDUt3wLvq0Gt+IygpAy6w+etPusFXm+0umwNUyCX/foUyTvLyFhdSb/4xS/kYwXAwG3WDx0iGeCnpPphx/97JG4zIk84OU3Xz+CTNl898ejWIvemXLiHTSf6GY+Tc2iaSRZy2a9PkbyziJx/AGp8cXBJ16gtUHWjTX1/Uzo4X3UjVZ7+xhq11CLd3U2Xr71Kjbkodu2m26jSxsQH3qeNao5aVm77ZYrkLQkQvhi611ep7T91p9mhZn24PIlB6yq1/WVB8nKB7X0VgstQ6tS5DB3Rp5tbivJVl8jh/+qSxw3yHJLbCR+8fbU1HTcI3BsGLbqqGUqdOsEzd9neVDNhi7qqlZCTyWu/QpG8ZQHCl4RvjL31FVr0N2WjTlc4b8VfI15a2bzCW2OorFPvsEebkmeciSormyyY/gqYCwZbN5XalEPNG5u0Ejzzygqt32iOpxtl+je3shd0Rey3sO3PNhC+GFY2ueTtKcaYizu0b1rrYJ+3jlleTHeA6pJWBQClZkBbNxUn0rlIZ00zqJyli5ry7ZLrL6ahiP1Ox/ZnGwjflKmcvaiU1NI+Uxv3xErbyZrS/uc06dKKvzwBd1d5UYTlRaUmCcqFS9rjjHyWFVpc9hfB1IHwTRt2V29oDTQsfqtVkjCWheq47UREz+2tpxMvsz2IqZ9LqZhg9jBq/emI8B5AbiB8R0BlvUeHbpO0fgy1RafeYVcipegx3etGLzHn34TuzT1o3jg6IHxHxGBrl+4Y3mmAhKMs1BoJQcxjBq0arWq1vTp1oHoAFALCN3UG1DJioKSG53aMGmC/TavS/pcgfiJ6VS3Qy6Gmu0mQPTsIteuCqQHhmzKD1poSlCpCdUg9rqFVVtZps3dIrtn+dz06NDVa9Hq0jh6N8lNZpOz9FsuUMgAApADCN1W6dF0Vq/qVkFBV1m/owantW+Go/G4DojfXVElrvruzHxGjN6B9tQfEWeJcYFpA+GYNFr2a1qgH0Zs/jFCV/k1SB/B4DLZIDfVD+NJ0gfAdJe2r1NB6MOTLK6orzKgl+aDlid74zxC9eWXlnDoUp08ba8oXe+SLKGq8p9iBFvA5bEcOvphSyzicDTD4Oks0nbr5VYr4pH5lJUs+SdPKCw69e1Ie0nyZxU/m13hCX/EJfzElr/0KRfLOMnK+AajxTYH+7ngw0cqmawwwj4eNhnoFqnPqcUHZqITG40Yige5HHL5UxI7KaoMQvingLKnNzmzQ0nvrha/It1YMZFu96Q8A10Uva8CqflxQOryPUrjUadbFLDQcp07Njhsd6G6M43WalwqFOBWxo7La4IK4ubKwvb1N58+f9zYCUEakvYu9GH8NAB3VPlDjAwBYB4QPAGAdED4AgHVA+AAA1gHhAwBYB4QPAGAdED4AgHUs7OzsyAgO2tvbowsXLvibAQBg/jg4OPD+RQAzmBsQwAySQAAzAMBqIHwAAOuA8AEArAPCBwCwDggfAMA6IHwAAOuA8AEArAPCBwCwDggfAMA6IHwAAOuA8KVB5jlt1LwhL8PUoK7/p3hkDt0G1WpqPkk1qjWUOVRNBsN8Dc5X0/It8L4a1IrNCMqFPjduUmpMNrZEBr796vbE62JPacyp2wrZ4kKNbdj/cynBvLrJuM26MYeppPA8phqheU+jU2hO0k498neh5DQPMaNuGLk35SH9vLr5567lY9SdyH2O0kRbijvPCe/ADCLnHYAaXxxcSja4RK5utJUZ7dPA+arqLPjx9DfW0pW4Jv0NWsPs+dawvJhn7mWpUVZpo53Nek0GrTXaKLaLmQTCF0P3+ioFNuM0O9SsD5cnMWhdpba/LEheLlG9r0Jw6UmdujqBap9ubpkC5lBd8rhBHk4uH9+Yd7V/c4tNG8wL9Y7yvI2UZz7xkGA5deq4rrJf15v7uXlxMTxvb8CgRWujnbBdarZbbiB8SXjGIhN/r9CivykbdbrCeceGVaGVzSu8NYaVTTbIHm1KHtUaKyvpZt0HwKNL11XVc5rk9jZpRTcqNqt1Wmdbi6N7fey5OM0bdGnJX5kDIHwxrGxyqegZi78hF3do36yWDfZ565h8bgyznFBSA7vp3tK8jvqV9ey20m3QarATFs4b6/NlbRC+KVM5e1GpmfVpo1ob98RKu+Ga0v7HBnVpohsz4Gwtqmnthg41J2cEJaK9qveaSjRAo9XN1Zwx2FeL1jqdy2wqbKcj1cspnDMOhG/aVNbphtYgx+K3WmVjrtFCddxuOHQ/ogyKjU55ARYWqlRdVcWyTk23R3NWAAODfr9P7Y1VqrLdZO3HcnfHRaRHVDhLgrBq7dT1Tq42xlkHwncEVNZ7dOg2SW8LVuprbEyHkaI3CYfqy0s52xtBOeGCc61VoCOrTatc4ErvriaHgbDWjJhUrUOjTp15VD0GwndEDLZ26Y5R8Ab026tc4rLBZbZmNtb2Bhsyu0IIZyk5FVrvueRqPa2ceF3v+Wf6G3T9qKKF+yyMSoS03qFxiea1QQXCN3WGEflq/J/U8CR0QI9kkZI4yo1ZoU31ReDkuh2j9ijvQs4YQDBDVKii9bQyvL6y2WPx89d97oR6ydLjhVQp4VFii5o53dkf1ijnvENDAyM30sGGmCpq3W2qkfLOoRl0r/+dUz1t/Hs4gj5/RP98IvdkbjBH8aS2k3S2GvWbkG2mSuUZwSHnG4Aa31Qx4qfqV0KdEJX1G3owcvuW3sYSS4UWl/1Fn/6u6y+BecdZqvpLWYkIqWKqS4YLkZvo/c86EL7SMCAtSoHJ/zKAWad7S43EyxbvuXJO9ZP7FC4fB7R1UymgnSUSS6qYJWsqlilvKOq9BMJ3lLSvUkPrwZAvr5hDiYZGF7QNBl9g0QrRAf+tER4zmTv4GdxzBq2a18EV9ay7jdq4rc3DjMUb2koQmhLq6KouaW147VW1Iy3CBoNgeG/kkN6+rCZ2hb2fD6kTu7i8fbOcHSBo44tGbwNJTmpbW5Z8ksZ503+tw0sZ2nxsQe5LWchiJ6FHHfr6T7idLf3+07fR6W2A5WnbC5DzDkCNbwqobW0rm27ogwJxsOhRb9QIGG7Di8PrJZ7T+CpbSNfG5nD55uYKIF7ZDEcChHGo6Za0xlYQCN8U0NvaJD5rGDJQdxw9bECQbfWm//ED3VWV8cHeFzPYYvlnOmo+fhPg5JYbCXKXMKWoZ+3wBu8LPfLBiqjB4pWzdFHJEx1vt0KbEifIVb+k/eeOWHHK/cWCBXFzZWF7e5vOnz/vbQSgjEh7F3sx/hoAOqp9oMYHALAOCB8AwDogfAAA64DwAQCsA8IHALAOCB8AwDogfAAA61jY2dmRERy0t7dHFy5c8DcDAMD8cXBw4P2LAGYwNyCAGSSBAGYAgNVA+AAA1gHhAwBYB4QPAGAdED4AgHVA+AAA1gHhAwBYB4QPAGAdED4AgHVA+AAA1gHhi0XmH21Ro1aj2sJ4DlNJwdy3scjcqK1Gxrz6XKmpUqPr5wVlZtAd2pn2bHm90erqc+5mIZcNCuntsNTmh3l1IwjNWxqdnKi5bTv1yN+GktM8HM/GK2ScV1cS5tbVkHtSLtI8c+dQmbY5HbltUEhvh+p80mVAzjkANb4o3F1SJ5qPo99ezV/q9TdozZwBH1hFt1GljYmG1qeNaoOOpHJV0AaXF8s7ySmEL4rqEsmMuN7co+6h90UHSTJHqUn7aivCHQnnPZQ5VI35Tfs3t5S8w/l4R7+PSK6xg/o5TCpeWgYtutr2lwWn7s2Z7D3rkK206Wpmgcpjg2HYqRjnN1KZ57SH8AEA7ANtfNngSp/e1hHZThKD2XaYJe9h55Drmznz2oHcl7LAtffxs4xqxytkKwlM3K/exjdPzchyPQGo8WWkumT4CkVYXmQHNx2D1lV2eMY4F8+mzgtmjQFt3VQa95yLdNZ8mJWzdFE1tf4uuf7iVMlgg/MEhC8j7q7RGp3KcAZeyEKtuqF0mjjUvJS2kaRL17VW8DpdWYfslReXNDOKtKEKLS77i1Mhnw22V/UQllrRMJsZAcKXBbNBmonuYOhSQzGWhYUqVVcVg3Pq1HR7lFa7QrW95iVCt0aJGezTHX8xPXdoP5PaTNcGA/r9PrU3Vqm6UKMyByVA+DLQva6Wlky9k6Nny6H68hIt+muTMdwizn8x5BeBeWSqzSoaWW0wij5trEVFNJQDCF9KBq0arWq1vTp1cvXnc4nZ3qDVKrsNaYrM7nU91qt+JXMpDYBOkg1KWJVLrutqoSuHvN6pG0Lc36DrJR29AeFLgYheVVMfh92EzQR3c4U2VaPh5LodCtvN2gR3YUAtPdgrQ7sgKDuh9uRMFLHBClUqRunK6yubPRY/f93nTjb/e2aA8E0gWvSyt41UKmyIXJLqAaR9urmVYDhmbS+q9w+Uj8oiZe+3WKaiAyVy2aDByjld+fq7R9LXfORA+JLoNqYiemPCPXXxhmPW9sTLXY/o/QPlo0pa892d/Yi2sgHtqz0gzhLnmgZZbHAyztJ0zuq4gfDFwaJX0xr1ioqeYBgzE2s4odpek+DlzguG+PRvUqjSNdgirU9ravF2GWwwgu4tvTAu7XhdjNyIIPR1lrRfyBhGvTtO/bDZcfWIeJf/Vlej9YcpLjLeHCFSti9h3AvkPpUG8wsqTvOQTWaI2zG+kGLanz66QreNYjbojSiJydsJ5a0flmlgh5xzAIQvgtCwtAlpbHi6QU5McaoXEt5yGdi9Qu5VechgK6adJNpHMRvMYvtx5juryDkHwNWdAuM2kvTR9k69Q25MOIwZL4iA5XmkQus3mqT1M0ThNGPtJJpiNpgudtBhvXRL/XUW1Pgi0AeQT06mG+p2mp5L4Zglr8Pb6opLE4nxMQIuzeHlpkPuV/lgF7JZD9lK4KpGo9fqoppBitigK652RF6H89abHT56OZFrCFgQ0eMNtL29TefPn5dFAEqJDM1im/bXANBR7QOuLgDAOiB8AADrgPABAKwDwgcAsA4IHwDAOiB8AADrgPABAKxjYWdnR+L5aG9vjy5cuOBvBgCA+ePg4MD7FwHMYG5AADNIAgHMAACrgfABAKwDwgcAsA4IHwDAOiB8AADrgPABAKwDwgcAsA4IHwDAOiB8AADrgPABAKzDTuEbdKnVqHlDWIapQV3/TzoDatWC36RMjag9DajbalCtph5TUo1qjRZ1w9PopyT9+UWeFpgJBt0WNUzb4PVGq8tPOC9ic8P91tT9cqrVGtRKaXQD/13R98Hrso/8J3fvsW2WNVdmtFJmjhqmuHlrM85RKmniHKjRKd+E4enPL9/+y4VcZ7lI8/zSTmavkNbmEifG5XOLmHxcS06zVDOuyTkH2FPj45KrwbWj6kZbm7P2aOFjVvU5cuPob6wdaQm6vFjxl8Cs0G1UaWOicfRpoxrnkcTg7qazufZqjCcgngSfW/v43pTjxhrh615fpeA5Os0ONevD5WQqtN479L7oEJdcLrJV6ufGsywPWlep7S8LclwuIf28LnXqat4+3dwqpnxcgGvnpqZST/48jwxadFUzjjp1XP95uWyfmlm16WqWUrG6RI5M+i32FuyTk9sJG337aivkTg9aa7oge+fmjvYjtut2mtS8uMhvSEmxxdXlZ85Vc3Zp/bq5tz6qtse5upMwJv82qv76xORRx9DzZ3dHdVcp0XOxALkHZUG3jQh31nRXp+RW6nYftd9kmy4zcj0B1tT4Vja5pOpt0soUi6hQje7i2YQS8A7th4rWfd46Bu6oLQxo66ZSpXIu0lnz0VfO0kXNIdgl118sQnVJ91BCdG9pNl2/sl7eWl0CCGfJTZeua/5Ana6s6yZSOXuRHY4AaaupjXvTpM1xTWn/c5p0qaA72l5Ve96k965ozyA4GlzaVU1nOcplrNDisr84RVztwIxx7MG+WhTXSWm5mSsgfDkJt99dopCNVNbphtZYw+K3WvXCARaq4zZHET23N/2Std/vU3tjlap8vFKHHswbRk0/HREeQ1bMdkVGbZMWQsIYFc4yBwUqhC8XhqvC9bqLIV9lSGW9R4duk7R+DKXPzal32AU/aneCBXct3IgNZpuJbmlGuteNCAO2veROrzatcgEtvbtavqBArWXsbZ4hIHx56F7Xe73qV8jwcjUGW7t0R7OcMRJSsCAGpKoSl8xm0Om4tFUFTHqdXXK1HjdOvK73GDP9DbqOIGZrGbRqtKrV9urUKdrV32dhLGlkPIQvMwNq6XEI1IxtnJN4KD12UGp4EgqgR7JIyZrSHQ01cleoUjFUl9dXNnssfv66z53CvhI4TkJuZ05E9Kp6fAo13c1w00wEXgiWFhLTVNqtmTv7pfQkIHxZMWt7UT1yPno8lBjbIfW4lK2srNNmz4wBZHc0TZXMWaKqvziJlXO68vV3p9EvCApTWaTs/RbLlKfTP1r0eokeyhjpsGN7VX4rtntFNasp9TYfNxC+TJi1PfFy49rnjF7fCHe4sn5DD1Rt3xq2mVTWqae6rmoq0B7oLKWVTHC0VElrvousNQ1I62DNUOCN6DYKiJ4Q3aEy7bbHewGELwuh2l7xEJSjpHtLF2nECc4KRqhK/yaFBu0MtkjrP4sMeUmARa+mNeqlEz3dS+hT2EkwYxBzCPIsYNtHCgLyjNwwo96TR1oYEfDkHNaDYSMe7mFHi97nlDFK3ov+d+qHTd6vls/lfYcGmOcdnVIe5DpLQ6euPx9+9iPzcDvGxwvMkR36iJ2QHYY+UpDhQwehvOPRTnLckM2WaLiQnG+AXUPW1AeWkCIFLcog/D/FkeWYkrIOWcuyfxuGs8l1lof0X9aZ/MUf3RaL2l36/OUqTOWcA+DqRhDVCWDGQEUGLBusbLrGYPN42Piol77xxSNdW4vD742LjxTMHBVav2H0kEYhwe1H/PBMe1/Z7Bhxp1Gk7xmeSVDjC6dwzct0W9m9zFA5czvNw7rjGKU0J9lWV1ycHLjiFrFb6xi1B4f3XW92MrnOZUeuu3yI+1iPeH7DJoxokl1d/QMIk1O0p+Gy3UadV3ntSs4/YEFEjzfQ9vY2nT9/XhYBKCUS4M027a8BoKPaB1xdAIB1QPgAANYB4QMAWAeEDwBgHRA+AIB1QPgAANYB4QMAWMfCzs6OxPPR3t4eXbhwwd8MAADzx8HBgfevEcAM4QPlZWFBQvP9FQAMhvaBAGYAgKVA+AAA1gHhAwBYB4QPAGAdED4AgHVA+AAA1gHhAwBYB4QPAGAdED4AgHVA+AAA1mGN8HVbRI0aUW1hOHQlSDXe1ur6P5rAYMC/bcTsI2LGeZUiedPS5f2r+5Y0rX2De8eA7VNsV3u2vN5gmy76eOW9EBvU9s2pxrbUnWfb0WdZ84ayzVdyKTy7WURy6hF5ldScNEubQ4duRL6iebMkfSY4P024rnlKcr1R28uc0sy922Qbj8qbmNK+F82IvCVNcj0B8y98nfDDjEt1/m3UPlJN/BwjXkXyZkoJ19mJ+v0cJrnWqO1lTVmmRM36jCMLyZiUS1hnMMm1BMy/q1uVqY+J6k0i15UrHya3M/yzSvtq2HUYsCuwoc0kTtRR9hPsq3lRpojWKZI3Ky0+9wCuvXrXHHArpSsPZgg2xKttf1lQbYf/NSeqv8q2lhaxS23X8m4oNsmCq3Fzy1+YJ+a+xpeQQiVqRM1LKxkz1syK5M2UDLdFSmjt2Ja4u3KtUdvLmFx2MUfPj1Oo1mW6qhnsy9x3VG1RtZ95cXflWgKs7tWtLvkLcXBNSS0Z61cy1MyK5M3IgEvkUcWS34azfKBzaqnNJ4JKX7nYuukvCP4z1eD1i2qtjw2AK4K52A+5OUR3/EVhedFfmCOsFj53118IWNbFabDvL/icW/EXUlAkb1bUl8Tx3eaVc8P1ALi75WJXbSIx7DJgkbfnoXLW09IRG1UaRzaw6DXW9IL00hHa7r3CXuEz21CYuiEWIWHkPKGQlJiwgiJ5M8GZbyovyUU2ag82Vq3SF9F+CWYUflBqjSstoZpbHKyiN5r+ss/Gqm+TLILtwJ5Y9NxetOiWHlvb+ELtexHtYFl61dhItLaSInmzJK29xmjnMc9hXnrn4pJcY9T20iWz/S7CNiVNbAeclPj3dbYZdR9BmhTeVcYk1xVgZY1PerVWjdpeZ9NfyAuXkqtco8uFmpdLbTPIeZS4hmgW6lFuboDp7s5l7xzIjbQN31G8BZU+vx9ib/MaxGyd8InoVTf8FR8uKcUznIjX7a+Eo0goitpWIv5JnJ0UyTuCjVRrwO7q4TIjNzfAcHf7LJJzasdWEmpOyUCLRU3eg8B8JARKbJJrgGOkQJb2v3k0GptcXdM1kJTkHpiuYpQ7Gveb3HlNN0dNE1zZNGme3V25vqjtZUxqOEmcq5vGxqLSJBc59J7EHL9sSa4lwJ4aH9eOomp66xlabqMajyeGxPikzsvn0+NHxA8qnIyG5luGu54GuLvlYEmtecV4A/tqDwj/nitnqbiuvgessOY7UFk3AqTnMBzKDuHjp1Zb9Zd90oie2Ua2q/mZQ8x4q8D4iuRNBV9TDt2jPhv9vBnxPKKFqrDLuWUqH6+rvflxIS8ghrl3dSNcx9TuXkTejpK3k+QSFMmbImVxc8zfxo1JLnuSa4vaXspkjr2Wnv/Afvhfcwy4adPq382RF5obzcm0h5BtGk0sZU1yLQFzL3xZ28FMI8mS3xSfInknpTRtQKNkvkSTfl/SJNcWtb2sKdUHLiSZzzOq0FX+XvSdKGuSawmwN4A5hr7RU7ayafR0xSCus9kzXCRvIoabawZehzB6dzGErRys3zB6/qPgH7gZQ7HELs2PHMQh0Qi9dX9ljph74Uvb+RDgRPx+s+eHnxjGIuveV1+4LIlrLyySN47uLX9B4P2kGQ6njd1lUkf5g3sH24V0dLHrGWk/TbYrs8PLgzeo43hFvEwTWfftUgpmY9feBglvka/BzKPoCQvi5srC9vY2nT9/wdsIQBmRIG92aQCIZGgfQwOBqwsAsA4IHwDAOiB8AADrgPABAKwDwgcAsA4IHwDAOiB8AADrWNjZ2ZERHLS3t0cXLiCODwAwvxwcHHj/IoAZzA0IYAZJIIAZAGA1ED4AgHVA+AAA1gHhAwBYB4QPAGAdED4AgHVA+AAA1gHhAwBYB4QPAGAdED4AgHVA+BLotogaNaLawnC4S5BqvK2VNE3Z4B7lBeWFn3uroT/vQo8aNpjMvM+rmytFzEsalZyo+WnNOWzjUtQkzUXyInn3Jmr7rCe3GW1vWedaHiXYYGSS8w5AjS8Kl6jvLybRb3OpmLf04wOscamaiyJ5wezANSupVVU30tnb1LHYBiF8UVSHc416896yCHJp4SWZh9SkfdWz3xBmXq5FhiZx7t+cfl5QHrrX2X58xZO5b5vG3MdFgQ0mAFc3W+qwe8u3bZyyVPlNF/q48lqS5L5EbZ/V5NkSP8cOP9vRuvKMc7u6ScliG5RzDkCNLyPVJX9hGixHzIKfliJ5wUywsslvYo//vZcP0lIbhPBlxN31FwJSPvxBl6jGLrTaltO85C9MoEheAAJggwpwdTMks6rPqd6J+B2nuvE7LbGL0PTdm6hUJK/NSe5P1PaypGm7urBBPcm5B6DGlwFpjFZLPGLr2FzxlzNQ51rior+clSJ5AQiw3QYhfCkZtIhW2/6KT2fTX8hIm/ezym5DLUc4QJG8AATYboMQvhSI6EmslQpX9SmpsrfJFWuuXo+ShAbU2U9W6fM+WxHxAEXyAhAAG4wHwjeBONFbz9idVeHfb/Y4r2E8N7f8hQSK5AUgADY4BsKXRHc6oqeyuOwv+PTNXuIEiuQFIAA2COGLR7rvV/1ln6KiJ+zf8Rd8nAxxgUXyAhAAG4TwRTMYip4Ws5RS9FryRQv/CxZa8wevyNc3NrRuYaJlpXusSF5gF2Iroy+mGJ0MsMEUII4vnELD0iYkpznO23SifxOZ+DjqcYvkRRrel6jts5qy2JlqY1HxpGrMH2wwOsk5B6DGNwXUdg6zDSQOp07kGuEwRfKC+aZIO1wcVtsganzhJN9H41uTOmmlseTvcMnJpaFjlp68Lt/wCwalR6UieW1Pcp+its9qyl3j46TWzMy/SYINhpNcQ8CCiB5voO3tbTp//oIsAlBKpL2LDRyASIb2MTQQuLoAAOuA8AEArAPCBwCwDggfAMA6IHwAAOuA8AEArAPCBwCwjoWdnR2J56O9vT26cAFxfACA+eXg4MD71whgPu9tBKCM/O53v6Nvfetb/hoAOqp9wNUFAFgG0f8HfRucbZm5UBMAAAAASUVORK5CYII=;" parent="1" vertex="1">
          <mxGeometry x="-32" y="950" width="122" height="108.19" as="geometry" />
        </mxCell>
        <mxCell id="vSyEHPA2a1pEyoxyhjJx-80" value="" style="shape=image;verticalLabelPosition=bottom;labelBackgroundColor=default;verticalAlign=top;aspect=fixed;imageAspect=0;image=data:image/png,iVBORw0KGgoAAAANSUhEUgAAAQIAAACECAYAAAB70SUhAAAAAXNSR0IArs4c6QAAAARnQU1BAACxjwv8YQUAAAAJcEhZcwAAHYcAAB2HAY/l8WUAABNmSURBVHhe7Z1PaBXXHsd/ebuapVJxEZsSoyIqNsu5uChEHrGbripUaEXkxp0BfWTxCqXw3iJo4eatGpHiEyzYVTfm8jDQRcldqjSlVO8NL/U+kIpZapd5vzNzZuac+XvO/Elucr8fHJy5ufPvnN/5nnN+v9/cGdliSPL777/Te++9J7cA2F3AfovzF/k/AGCIgRAAACAEAAAIAQCAgRAAACAEAAAIAQCAgRAAACAEAAAIAQCAGdnY2AhSjK/8639yDQAwTGjPGpy7virXAADDBKYGAAAIAQAAQgAAYCAEAAAIAQAAQgAAYCAEAAAIAQAAQgAAYCAEAAAIAQAAQgAAYCAEAIByTx9OTB2mz87tp7F399GY/IzoLfVf/UmdR3368fEbWpefgp1l+tIHNH9qn9x6S52V5/Rl+43czuDQAfrqxjFyxPraM7p69/XerNOp4/TtRbZludnne73M9zosFBsRHDpMX8036JuLY+RoIiDg7Xf304WLZ+ibrz+gK4fkx2AHGaXxg74ICPaRM32GvpqSm5ko9asdY28xfToUAcHYqbGhsl17IWAR+PaGEAC5LXi1SZ01b+m/kp+5sBFBCAYW59xhmpDrw80BOntKrgawWJ4Zlet7H2shmP7rWKicLAALt1bp3MJv9OVdb7m8wNvXn9LV+ywK8mtgQHl3jD4zGhXsbSZmuGOT66Iz8xnjUcKwCKWlEKjK+ZYe3PuNVl7KTY03tP6YReH6Kn35WH4EBoRNerDyVq7zqODicZqW68PJKH142p/ybNJPd19TR24RT3E/HJIRrZ0QHFL9AX/SRqIIgEFno/2cHgRTuP306czwDIFjHNofTnPXXtMKvaZ7gVAOz/TALmog/QOeGPCI4NYTulNEDKaO06OL+731tWd0Lss7O8XnvCjPmfRd5Zr6K0/psvCEC0/3Z8fCChZTGDF6OaSc91Wfri68yPGAH6Ar88fognscPsZ1Pob7eZRRmubh5afC4aT5Tt5S5+c+3WsneNrVMjC6llG+ljPhtdxKG40lEdlX3Id6/qy6VOvc8Donpva70SThSA4Jo0l3HhtEK1QvvtF5izEx8wF9M+1dZ+e+HMFqdp5V7xIbG0ysswL2E4XPd+XMAXJOv+NG8UK43Hm6891/XmTai92I4CUfVK4Ktbzw1wNyvU6iUYkchIGLcJdaoDzEOyuGeOr1mwz7pg7IxsNwpfxXrqpMCIP9+gzNT0cqUcAV4kwfc6MnMQ+99bWM6ddSRIBVHveVUUE1demXhR9N0gmjSY/mj+d65DUvfm1D9Mi0wJ/GvtykjjJiOmvrR8mywQiF7SeABWe+4Z7vgnuMhHI/NUbzNxr0bcbIz9JHoA6bmFPHuFIP03QtlVSA00e1Xs6NZHCjcVVRNJyXL+i7NfePTP6wTxijT//nzcRe/Ru/12L6rPoPVp7Rwn1eVlRj4nNdbOiVWfW1WPOG7tzrh2JUNlwWKQuBKI/EaJIQhBsDEFpWxdWdFvi8oR9/Vvwopy1EMs8GVcrYj8R1dAYCwudYY4EX+8eOQTSWETK2jhqsa/NL5l2pNpd2XhACNRSJL9efeJGMhSc85QmHvSvciHyyvcK6Y7TzNDKcFcNBpcIf3Fqlywu/0R0exq085qUtzr1KV1XHXCRcV9m1FCUiRhc+KxhO1MqCccvfKw8tmnRLEZ6c84myCb7LDeTHsiOgBFRx7fysTznXnyrnP3XA2KFqYoMuFdhPgBCQ+0/dc1y++4KnXhnHSBE1ayFwe5KFp/RgLTy4IBh+8LBvRwVBzCezst+4gIy8wjwt8ENKSYaohlE799N9JevtJ7TgN7ZouK7ItbDiF/LLpLDyH6VxFgwn6iHljPJn4bmsikHW+WTUSfitztXiH1DFVZkW+ESmB1YO1TwbZCqxH0b8XYTvs/wu6+1+aGcpolZACAQsBnef0NX7fAJ1dMCIeaA/QijUu5RikxZyjeY1/WQwJNd6i0fRY+YYUYT//hGK5thB9Xy6hzptnp7Vc5WGG+c/TXqdVKIh5Zzy10Yh0fLYRhRx7a/0E5yB+vTAPKfAxAarsp/qKCgEHuuPX3hDj1vP4oLAI4RtTzFOcehFyR+S51SUGkbl+x5no5rOWN6XXxWMHXxHrnnkD0HtjKYIWo/Bvc7fbXq/AiFlzbCNG1iVjNKVc+GwPG2qpdVN1ohNxcQGK7SfOKM0cWg0cgy1jpIpJQQ+6y9fu4JwLiYIJeaddaJ6zJMqmAsvHIrzXEuuBqgVyftfuHiM5rMWGZ5KJM9DnXctlcD1d18Rx+kx8yQjzajNhHj9jz/l2g6h5g5k+R8sHbrGVGk/LiJke5yn5Q16JKI2N85EjqFM3VKoRAgCpCCozomi8856UYd98SF5nUPxfqwRZHuoa50WqGjhRJ7eXbLwlO8yJs4o0Y0/iN7Xek99GecRg8/OjF504vbj5Yi40Ydo+NGCaoVAEo0sWIVfton0IbnlUFw4hnynlsHiJptESHfm1D8tCHlDdx6Fo4LS4cSBRc0dYISTW+s99eVC8Og2U0enVtJ+pi/5iWICnuasPOOpenQ/HqnLb6RRixAIo9pgpR1o0obk3AtkO5EYLRlonzaHK4bqwFQ81CbXUiWPfws91BnOy1QMy2JCnef+8TbHsVYx6rSgAJV0alXZz6HD9GnQUXjZoV+KLMQCUaWahEAnPpxROLhvh4ZbyUPycCieEa/XMizfofEKes4kB6bRtVSMFk40GRWoIVDDsnhf+V2DTNuoATVsJ9KB9Z4zZVH8JzY5BalUZT+af6ZcrkVNQqAOaUVlR4zYNL02mqhSMfHpgXLdmQWrhyArSbWO5RSYXkvFRJOMAu96Gn8qWYMGZTF1nOaVXmy7BM5DtUuLc2tiVyDlOEYN9pOFKhgpWAnB9KWGlyc+NZrei4uHLeblT1sJeA50Lzq31YblXBAJkQXXCxo8+FETmtFzBV9ShuLcQ2cNWdUeXKRaZ+Vxe4iQTtZ3IjkF/s+DMdWkFJuzcleZU/LQNbsOor4FLgsuxyT7ED9tp2cgZiRHifr/WnjBhc1VFHlSplp24qo23GqmB5XYj0GHatqOrJ4+FEIQqjnzii+Eh3b+xYwdjHou059qU5/68uBjrXnHGjuleHXFOXxjzHn60HW82GahcUGFueE+6detov8OoIB7mbVN+kmJSJzl4f0Yf8e7n5wn2dR7CTC7lmwSnj50P08nXj9MRvnGbIMRufN96SvS6lSQU1f68aooA/2YwVOCpmh2ErmegjZY3n7UehWINrRJ34n9efp19nTkl8RckuvfakSgJoK4iAbKFezIRX+EcjOz8rzUSfV44bF8gxE/IHl1Qc1PrwFt2CcxTONdEdmVaqiU78HRvNBcEUElMnlxdm2kJKk4pdiU2DMlOazcXY3UJzd+7qUC25CfCbx6tRTsskQca9ZTksjTmlXkFJS3H5Hur+buiDYk958ORUCU94J2njhWQuDmNV9/ygcVqcWsPjFDEYoknn566uU/5xiwWxBumrJ+keIY4ifQxK/IWhlLIQ80D/u0QmIjsYjXu2VyS5QJ936R+xCIzzpBmeQZv+7AFNSaO5AJG9k9PUEsd7rE9RmWhfzQR9iLRb1W/tCROk/m67A/XiTl+OA7ydMVSxssbz8idyepzEX75N6fjy3KOy/Ry2pqALYBbXpgNowHoCzbEj4E5ujhrW3IHQCAgRAMFAXDWwCUBEIwQKg/q72tuQNg6IEQDAx6Dnz8NxAAqA8IwaCgPRrbr/kBIwB0EDUAAGBEAACAEAAAGAgBAIBGNjY2Ah/B+Pi4XAMADBOas3BkZISUTQB2FbDf4mBqAACAEAAAIAQAAAZCAACAEAAAIAQAAAZCAACAEAAAIAQAAAZCAACAEAAALIWg116kxdkGNUZG3Lxub+Ht2Tb15HfSEPvONortG6M9qx1jsS0/B6AGemxvvt2yuZaiTBvivam9yNfSUPflhdvVbLtn345UxENHPpFNheWtlkPu39OX5tZyV35do2u2r/x2Pstbzcj+TfOdwR5G2EKldNnWIrZb3NbKtCFB5FocZ8vhRdvfaXFrK4axEDSJT9xs8YWqp+puLTeVi0m8EMN9DUt4uemfi48p94UQAIGwharotpqBfalLGSEo3obUzjQuFt3lZrC/04rvbYKhEGShXqSzZXcdkRuUn6bSbcnKEYXhr0MIgEcx+43TbYUN02Hj6tZuazltyOD8YQdZbFRQgbPwCH30CV9mIdR9f6HnmZOcHi1+Pue+sNRp/Y1mvA8BqAXuuYl7XlpdmmErrRvTNuTQiUm5GmHyRNE26DFAUYOTdDSjxHuLn9OcpwL072v1Vw0YXo5cW2UBuEYzg2JmR45y6xB06PuHSb1ljx5+773T2/nko0LCVYkQdH/1Xyye3ZjjtOmm27qZ5scZvbz/PYda/762DQoNwPaS3YZm6OOmt9aZm6TGoioGPWrPTnqdJDXpi6KdpJwiuEQ2DRFOEDk/sZlAdVUvarZ/IJj/qMeHjwBEKGa/BtRuayZtKOpUbG61llthJIG30yMO+ZQWgqCR5jgKhQNGhDvcxb8ZXjwvqvxSEkElRMQCQgAiFLFfI2q2NdM2JBARArX9iMV1aMq/F6WcEFiELcKbjS/pNxJ6U2MVACEAEYQt1EKdtmYT+kvIawiWHRsRKIVTKGTR9YY6obrFpwdBGCfp+BACEMHKfm2oy9Ys2pA6ElA7Tn2E4BS+vmJCUFYEVBRF1OdH/rwpZbgEIQARjO3XljpszaYNKd9NHjVY5uMkYC8EYngiL6q0CLgoN6EeTxUI06WS6wG7FWEDtVC1EFi2IaNkoVyxyMYyfNim2cnzdFusOk1aXkUoDwA7bNtQj57/IldPHk3/bpBrUAwLIeAbaMgbIHEDS9Vk9/UeksyF0G90ZknIe/rSbREroAurtPcZhAkMNCXb0C/P058w7D2nUC8KtAJuQAGRTYXicxDX4Sdini2Rsy0/lHSXlXmSQehEo455G9jVpNtvSSxsLYj1Cy++/MyjZBuS50+MsFnk5KRhJgRW83X9QtSbSF+Et9NyXgMhABGELVSCsb1nNfZIx1aiDQm0ZCKxJOTkWHemCrU/ayDytlmxqNVs8rXLD334g2ZrmbrdVVoamMRuMOz0gkm5LUfo6Elp5I5tun02M0ur3E5EO3K8KXGnw/944VUWBK8dba1S0QxjvA0Z7Blgv8UZoKcPAQA7BYQAAAAhAABACAAADIQAAAAhAABACAAAzMjGxkYQeB0fH5drAIBhAglFYM8A+y0OpgYAAAgBAABCAABgIAQAAAgBAABCAABgIAQAAAgBAABCAABgIAQAADsh6LUXaXG2QY2RETed01t4e7ad/nvrUXrt5GM0Zkl77bukt9hQvpeyNBbNzw+AJb32bGCvbOqFMLJjZVHPU2ZfUwyFgBtvY4Qmz8/R3G3vl1NDePv2eZocmaV2TmtsswCMTJ4PjiF+fVUs7jE6t2nuZvwOur/qZwNg2+BOa9a1+9sRm9+DiIeOfCKbCuJdbc6W02xtLWtvKfHeaCz2c5eMd7OF7zdIeYdBdznxtc7+e9+KvM8NDBfp9mtPt6W+ZThc6nyHRthG7F9SUmZfgaEQZJHxUgefEi8jgRAAU4rZb5zYm4W25WU6yotRrU9SZl+PCpyFR+ijT9xXLqTSvjnnDa2ay7RUyQsTAagXHv0Sj1BplQ12W1690/5BvhPRodbfLBtJmX0l2xA1aNMP3lVS82OoABh8xNu5Vpeu0fa9fKtHi//wG8kXlm8rKrNvSCVCEDr0El7zFLyl1aETk+4KAEClfZPmZBOy7izL7KtQgRCEPT5fSfw1z91fpcdViESP2ouz1Gjo4Q4ROsyLOHTmPufviTCjXGZnaZF3QtgQ7G6UHt1pkd3Ivsy+EaSvwCWyaYTvzOMrSXQUpr0N2X2Ta+BklJ8lHCA8ftpS4E3KYE8i7KEW6nQWljl2hddVTgiUVz2nefV1D6wIP8o/+Bi8272rhSwFXd5ND+9UXkFg1yHsoBZqFIKwo7MP+5XZN0pxIVAKxyx/IONiCxd0+bAJ2DtY2a8NdQmBclzr8HiZfRMo5iPoLVJjUoYEeW7SXb1WLsRy5CidlKu/PLeZ9c/Qx6wELrd/oILZnwDsCL2H30v/WZO+sHT3l9k3CXshEGmXFiJw5GjQxCm9jU/SCZa3IkwW3RGAHaVNN0N3f9zJnkmZfZOxFAIhAue95AWnScsmI4HJE+Q11Q792nVX4vQe0vfyvk7G4o/ZBKFL5wTLCQC7g97iPwonAZXZNxU5RXCJbEbg+XiOUy8ZJQU5xZcQ+hFSUpTTqHieBHY32fZbgsp9BDubTpyEoRCozxPYeyhjudvyc3HcZTW8GLkxdz+nudVa7kYEJBo1KO81BbsfYQu1YCEEwUN4bLepX1WibfY6UGLfDMyEQDl5/pJcAHn5ALpAeKgCkrqIAsdgADDCHirB2N6jtm7wAJ76nYxoWzJl9s2mkhRjE2aWtoh7cXJ/fkDBcZrEPX7iwx0i57u73KKm+N0C+ZmPv193dWkbc8LBMNB77iXF23OEjp6UluokpNsLFH9Y8wvLaFuZfXPAS1DBngH2W5xtGxEAAAYXCAEAAEIAACD6P+THxhlVqMMyAAAAAElFTkSuQmCC;" parent="1" vertex="1">
          <mxGeometry x="222" y="960" width="118" height="60.37" as="geometry" />
        </mxCell>
        <mxCell id="vSyEHPA2a1pEyoxyhjJx-81" value="" style="shape=image;verticalLabelPosition=bottom;labelBackgroundColor=default;verticalAlign=top;aspect=fixed;imageAspect=0;image=data:image/png,iVBORw0KGgoAAAANSUhEUgAAAQoAAADyCAYAAAC1fYsJAAAAAXNSR0IArs4c6QAAAARnQU1BAACxjwv8YQUAAAAJcEhZcwAAHYcAAB2HAY/l8WUAACI6SURBVHhe7Z1diBzVtsdXx/uieTQoAScZSSaGECUfb92GQzgTjhM5xKcIZ/CDEHriy01AZQhXcA6ciwwq9NyX44QgapgD5kkfnPbgHMIlzrzlgxMJmu5gmxFEMY/qy3X6rlW1q2pXdXXtXR/9MTP/H9lkd3Xtqupda/9r77X2niq1Wq02Maf/53v5DwAAHC7+52MqR7Rl586dJAkAAHQ8bZC0RW0DAICuQCgAAEYgFAAAIxAKAIARCAUAwAiEAgBgBEIBADACoQAAGIFQAACMQCgAAEYgFAAAIxAKAIARCAUAwEipzUjm2KvLzgZbdh3aQS8ee5hGHnmIRtQ2ol9p9affaOWLVbpy/Re6q7aCwTL+8kGafvIh9elXWlm6Q2/Wf1GfDWzfRn997QkqS/7WN3Tmg5835n09tJfen2R7Vh9X+bee4t+6mfni3YrKZelRbN9Bf52u0HuTI1QOiYTAnx95mJ6fPEDvvXuQTm9Xm8EA2Uqjj3oiITxE5fED9NdD6qMR7R6HjrOxGH8qEAlh5MkR2K9GOqFgkXj/NREI9Vn46T6t3HLT6k9qmwMbGCp6aCkf20G7VB5soyNPqqwPC+qBrSoPUgnF+J9GAtVlgZh9Z5mOzX5Nb37gplOz/PnVm3RmgUVD7QaGlEdG6EXrXsXGZtcEP/xUXh54HiPcy4CYuqQQCl11f6WPP/qaln5QH0P8Qnevs2i8ukxvXlebwJBwnz5e+lXluVcxuZfGVX7zspWOPuUNqe7T1Q9+phX1iXgYfRS9Ygd7odiu+yN+o1asSIBhp1W/Qx/7Q8SH6S8Tm7x7vf3hYCh962daop/pI19MMfzwsI96KP+EKxbco3jnBl3MIhaH9tIXkw+7+Vvf0LEkz/IhPuekOmfcvto1rS7dpFPiyRcv/YtPBDdfhkjS+9munfenVToze8/gvd9Gp6efoOed4/AxXuVjONujbKVx7rr+RZxhId/Nr7Ty71X6qB4TJdDrwOpatvK1HAiu5Z1uvbk4ImXld+jnN91L/b5bXuuuQw87ETFxdgcEEbGL1y0iLnoUwuq82dg1cZDeG3evc2VB9YJDtp507xVp7DC2njPYUBQ+3+kD26j81INOJDKA652HU//4570UNuOSLerxA59QZUVpn//TNpXvJdGoigFpABLK0yubu49HpPuoX79Nl/LQNtW4GL5h36qszi4x5ncP0PR45AYLfLPK40840Z+OCEPqaxkJX0sWgda5vqr1Koq7l159eBGxMEFE7IvpvcaIQigK0bMhQGTY4Q2Vf7hPK1qv60haX06SHUbIbEM+LEjTFed8zzvHiKn3J0do+rUKvZ+j95jCR6F3yZgnn+AbvoPGe3IDM/DUntBT0onEcKNyFFUa1g/36B+3nC8Zc5dSDNVj9d/3Y3sF73lPPGaVnxgfL31DswuclnRD43NNVsI3uuhrSc0vdPGj1UCsiggFRupDkDqJjYiJYLw2BOFzXYCdYYfHL3Tl35ov56kUQmqyQ508NqRwHLG+wPA5bvFDQMp3HINoJFVYPEyqqMfd0PiWeUQp1cuDFwxfSWVS0Ks33EjM7A0eUgXd6iVuZB7JHu2w43blZqSrLF1NzRg+fmeZTs1+TRe5i7h0nVNdzr1MZ3THYSQcWdi1ZCUiVs+/mCNcGqoPxrkHbp2EImLvaOJkOKfUj78vN6AreXtRMegCvPLv8LD27k3t/E9us3b62tihQwE25CMCs3DTOcepD+7x0C7hGGlETyOVUDhPotmb9PGt4MSC37XhLuVABUPGskkzB7nyrDzaPOzwwmVxRqqHiVcWuo/v79Zv0KzXGKPhyCzXwk+LTH6hLiz9U2u4OcKl4bB5wj1gcTqli0XSOVXkTHxnx3rin9AFWBt2eESGH6mcviY7ZAqxIUa+lykKSX6fu/XVwNZSiJ5OSqEQWCw+uEFnFvjkeu+CkTGo18PI/HTKzH2aNRrUz3TVossfetJ8ET2mwcAifPtjIKojj+rnC3vXu/kJkp56ueGG+982T6xEomFzwz0I9WSiddJHNAFeXVqNcVaGhx/2cyps7LAoG+ofGYTC5e71e2635p1vOgWDexh9n8LdxeEYxdzlN9xEPUzMv3uUDW48IT2udhVGHn1Q5VzM3dt0BpWF0NOGn1j/ldbhlSFsHjJ86wZYJFvp9LGg299tOBe6P0m9Ph0bOyzQhjrZSru2b40cQ79H2cgsFB53f/jZEYxjHYKRc9zbK3SPf9zN54oNuvo8zlNZH/0mc/nnJ5+g6aSkQm+xmLzrpmspBL5/C5p4jo84gmXdPQ0ZvZ1Y3/3xN5UbEPrciST/R0qnszVF2pCDhKT38tC/Ql9I1Om1A5FjaEPDjOQWCh8lGLrjJM+4t3foXcrOLn8vu/qrHQ0k2bve02GHTihcysPHl7c5aaOy64AWnfmR6PHQ0zecRrnH4TGY3k+YThty58k40ZNoeLVAihMKRTQyktXL2ku6d/lTdvXFaeU53CySMxEnQndHU++HHQG/0MUvgl6FhEsLCZkOJfrcCUYc8aGnbzg97y/PZ3rx4MtpQ+Mve5PpBB5GLX1DZ2QNVqgc9/bVHlkpXCjE6Fqs0kNNty4/P0GSHVxMaLLUQ6HxYzZ0B6vmXbe5liK5/nXgXeeeVpKDtSuW9bFLH2f/+KvB8Vcw+rAjA4U8+Iqyoe076C/+w8SdYfumzOIsMDLm0QOhCNPZVdJ49KEBdeXiu/xBVz9hvkJohuqDNFrAUzfOwWp1LQUTCpcKNr0KPcxrWR+Pa3/XItE+eoAelpTp1uEnb5ek+XCyhhdDFGVDIf9Qb+aaePRAKPQusxhCxMhtpy9HJ/EUTOfwQ7vuxEoPh1gLmf7cMafC9loKJhK6dH6fHx3oxm/arEuL+ji0l6a1p2C/RNBFt80U5w6JYYYp3R30wIaS0AUlI9ZCMf5yxZ2jf2hr916ALISZVn82TeDx10fRsXWo28+VFBMZcTy4/qKcHhFqFHzzX9a6+vyET+oO6z0AmcpunkMv4aqkfSJzKrw/PccUM2XbnqUP3PFsIFwmI4v6N7g+uC7jbET+fGJ4BmfCBDKxgXfFiy92V1D0TBvOpRNgvWEXM/woxIYsHrpFtSXr1aMiFMGTgPmJL5K7jd6Fjjwa9bp2X5Wor9hz4WPdco818qTmkZZzeIZqWD3qOIXSzuDjSgzm5Xt0v26d8N+hFPgJdes+XdUiKkd4+DDC+7i/x7AKUf8tPnbXkkzM6lFne3fk/gjhe8Qk1HGHfTCydmFV+atC91Uw3K/w8Yqoh/Ax/VWetoRsJXI9Ge0wvw3p91aQdnSf/iHleXh35KnIX6NzsLMBIdPqUX2SjIM0YL75ZZXCy2PvJ95Yd1qqfrzgWJ4xyR83PTMbGTMXTahLqbCcJr0ks1P1UDD/hnLIg843yb/BjGmOQainpSh4yrYtErnqWNdjYOmD5cg9ZXHgp5xvH2qb4N7blKKel4jjL/WQJ7Litog5FfltSJZU6POXpB2p8uOBSEh9z4bOkx5roXDmlL96k08oU7dZuTqMSNRMVq7ddOeeGwzcqSRnGnj4B8gx5E/syV9ATmVImbzn3KUMVSAbUIr5Ck6dvCN1wk/OyO8QZNuKXyemhhF2sAo9nTuRiDQiNsKPwpPojEMyvqdBfaiNHmIzKe5t4YvC9HE6X0f640WmdD/6YPxwKKUd5rchmb8UV+fSRrn3wMeW+raZCJeE9dAD9IHQ8MO+iwhAL8j35/pBzwiH7vowdwIASyAUQ0PG0B0AfQBCMSTofzK+r3MnALAAQjEUhNcfdP4NDAAGC4RiGAgte17t8QIwANKDqAcAIBZEPQAAqYBQAACMQCgAAEZKrVbL8VGMjo46GwAAQGBtUDnNmVkqlUhlAViXwIaLI1qXGHoAAIxAKAAARiAUAAAjEAoAgBEIBQDACIQCAGAEQgEAMAKhAAAYgVAAAIxAKAAARjIJRbM+RZVSyZnmOVVXGxNpUn2Oy1TcMn6qVLh8k7/tTrM+R1O8n3c+N/FnPnFSOQDy0A+7S9+OInB5/drmshzDFlnrIWjZ7jQW29UyOft6qbqovutKpEy53C5z0o9B5Vq7ofYOaLRrkXN1piofHQAXsYn89MHuMrWjKHwMrXy2Y3RHjqdjLRSNWrVd1i7KS8kXp1c6V25EDRqLVf845VpUKqQiWFSqNS6nf9doL1Y1oSmydsC6RuwhP721u2ztqJPFqiorD96Mx0hCjqdjJRSNWlBBZb6aRqNmd3EW+wU/OK5X0Y2IAKmtYHMj9tBb8tld5nYUxS8nD9+MxzAgx9Ox9lGwwhL3CGh5foJ2q232lGnfmMpGGNvHPzM1u+nZk165r+gOnBWgL+S3u3ztSGjS3EvnnHfmlmuv04S7sedYCcXus8v8w87SRNpftnsP7XcyK3T5s7habdJnl93XBJdPPpux4vbTnmwFAchBervL3I40mnMv0TlXJejDs/0z/B6HRyfouaqbWzk3RpU5XSyaVJ8ac380VemNVD+6Tm+7Bbnoc31TVbDZGbTdeecvU+3DsxkfrNno+TyKifkGLVbd7pqIRakyRXNO6GmMjl/gjeUqd8Xm7Su9Wae5ynGSoiIwi9yFA6DnDIHd1afU+atvUB87Ey7KV9HhvEgkgwNFIhxeGS85Dh31fTfEASThVCeFyopXWu0EACN2URR9sbs07Uh3YKpNDn1yZvZHKGLixn4qd4ZNdfyoSEyyERqweRCbKIq+2J11OwqiLR379Ukoej70cGafjXGXiYdWXMHEFSxXQNzDcF/Ku3KBjo/JDE1n9w4m5t39/dRwhzJSduXCcRorTfHIDYBiGSa70x2Yrw9qpM2V4KBlzdiqmLZf54QqIUdcWpushUlXQBBb6DlF2p1VO/JmYJbb8U1oA/Qo6m+78d7uoZzddPbDmtuzoAv0t1BUxMDE68Qi4/LVHaz7AP2h33ZX/0Q5UFfo3Ji3rkNLY6qNMReOq22VucKvq4dC0aQ7X6ns/j3dQzn+XAsAwLDScx+FQ5LyNu9QoCcpYj7Nz0jN1UoWIgCKpN92NzHv+ki6pYbXI+fB+6Latlz8HIseCoU23XXlHL0UtzxXYtMveV2nKj2nOWqacxV3zsUcl4sUlCXAFb/LVabawDw8YKOR1+7qU1ze6f5vMCc7K5CDlu1Ed+Akpk6HZGjFnaSY2HSco0ZfQNM9ldtVTKYACrGJvOSzO905H+N8zNGOujJMzsym72xIz8T8MjUai1RToSVaWeF/nDjLgkHVmoRMlztmmsm8+LZTrsr7qY0eXrnGMs3nmTgPQIR8dreb9uxXhcqda0HytKNBg5cUgw0DbLg4onXZH2cmAGBdA6EAABiBUAAAjEAoAABGIBQAACMQCgCAEQgFAMBIqdVqOcHS0dFRZwMAAAisDSoXmXD1f9/fdjYCsB75j8f2wYYLQuoSE64AAKmAUAAAjEAoAABGIBQAACMQCgCAEQgFAMAIhAIAYARCAQAwAqEAABiBUAAAjNgLxZVLVJqepC2P7aMH/MSfp6+qHRLgsltOZCwb5cpM6BilK2o7AIOCbdKz7S157TFPO+shFms9rlLpxBRtuaY+xnKSfv9yhqhjXdk9LvuMuez3XNaKq1yBU1RSn4T2pdu0dlR9AJuavq/1aLE9nmV71Ow7uz3maWfFk2mtR+naQWpPnueL/Jwb9W2VOD95UO1xmR44e0nldb6zK2urltNKJA7zMZ0NAAyIi9yLeDosEnnJ3s56T87Vo3qP4SCtfblAbWu108ta9CpaPHx5+i0WClHVXSqPHgUI6FuP4uIkPTBzw8m2J+dp7ZVWj+0xTzvLRsGrR3dQ+8+e2qVFL9ugUrD0PQauqLPqRsyccjcBMEDcJz+LwuwRtaWX5GlnxTAkUY+xZIW8eN5V08Pnae30DncbAIPi9AILxAt98RUMC/mFouF2wYyNvYOrtEV132jyj+7/sXj7cZdrjm8OAJuRzO2sGHIKBTfiBZVNbOwRWq6H141enKTfk7pvngNz8sxAKgiAwZOxnRVIPqHwGrE87V9JaOwXJ915FN5ciqfdMJA7zktwYooD06kgg5gAsJGxbWc9JLtQyMQnpXLtmbeSn/bcbSpdU0ltEkoLb9GWv3cLjWoOzEu28ywA2GCkaWc9JJtQyJP+hctu3sbBOOvFhFWSOPGkOxeitDBFDzwWIwS6AxPhT7AZSdvOekh6ofDnMzB88b9/msHBOMo/eHaB1i6dVBuik67gwASbnCLaWYGkEwqZslrkxR89RWuHVf5rbSLFlX+pIcoNPp8+510l7xqY0gtq24nBzFgDoHCKbmcFkEIo5OKVU+XwyaG4eAA2HsPZziyFgi9eD2d+WpBzsfW/wVz5vZqX5uhM2KcRTV+e99d6yJRZZxuEC6x7etTOCsBCKGSeOV+806D54q1XejIyJ/7EDJUuXmVRUNs8ZOm5P4QYXNgHgL4yzW3CGSpH21GOdtYHzIvCJDzjeV6NRH6gtnimOwe5V/AWrR1N4dHVHD1YFAY8+rYozLpNRBt8wuKuPO2sBxS8KMzA6QUeJszT2uRJantOSw9ZKj4zz98vpBMJAAbN3YbKpGUHtfeqxV2HBzMVOyt4STHYMPStR7EJ6G+PAgCwIYBQAACMQCgAAEYgFAAAIxAKAIARCAUAwAiEAgBgBEIBADBSarVazqyK0dF1NE0MANBzWBtUDjMzwQYCMzOLAzMzAQCpgVAAAIxAKAAARiAUAAAjEAoAgBEIBQDACIQCAGAEQgEAMAKhAAAYgVAAAIzYC8WVS1SanqQtj6lX+DmJP4feGWqgdTX+GPLuj+h7PwT5c/+hfWMSXiUIeoW8e+ZE2AYdW71yT+2QAXXMvrajArBY68EXdWJKvYugGyfp9y9niJLWlcmLTxaCd3y0D7t/trx0TW2bnKffZyMvAZrmClCvfO/KkLybEQyeQtd6ROy1gzh7TUR/p0c3LN7XkaUdZSC61sNKKLY89h5fwDO09sof3DeRO7CqTp8PLjqpwfovAurysh9WSCL+cVGhUULRnvl8oK98B+uDwoRCe3GVvHtm7bTX8MI2n84uLdtRUkPP2o4ykEEokkh485FHnrd6QShACooRCmnQ7vs/4+1Ot/mi3thlccw+vx0vKhQ5nZk7qP1n9eajbvxdvV+UlRKv/gNDz8X3XHvlBhv/cGKbP3dS5RsF+QT0dtTlmANuRz2OerA6Kx9D+5n84yYAek5DDQEO73L/j+PoH9Xb9G9QaSmHYzOWuFcNDr4d5RcKr2LjfqD/F3J4TPW4ygIwtPAQ4GuV3VvAQN8aFgLvZd6Tf3T/1xmCdpRTKAKli/2B395V3TgREVbeizO05YQXznGThHTI0H0rzZx3Q0pems4ZogIglu+opKIS7bGdbiaWnf5Lt0uN79xMViTUecL1iTj+iThHZkHtKA/5hGLa+4EHae2VmB/ov/X5Mv+YZ+iBmcvOjZCQjl/R1/i7p/mHXkxq+NzFu6alhcu05QU+nsSOIRhgPXFRe+BJI3/anXrQnjzvTjGIo7B2lJ3sQnFlxolICO2Zt2LGVWHcirhNv39/m9Y+XeDE+S/nac37oTPvuxmdWdnnc6dMkPjzpZPBGJEFY8sV5wMAww8P1f0HntoklBbeoi1/N0+6ytSOCiCbUEio5oXLbv7weYvQ5Ulam32hM747eoTac+dVo+deQlyD9+PNHvz56AytfT+vynHlfJ5iVhsAg0QefvqDTx6Ek9wz4K9KC1PcY0gKt+ZoRzlJLxRaPLeQWZH6awLupuk2HaG1SZVd+JfKAJCH9L6HZF+GBfIgnOWeAfeSXXgIkWY6t0fmdmRHOqFoXU0nErvGVCYp3hzcnNSMGeZwAJCKHdTeq7JfJ3kGA6cn7TL1pi05esofPnScu9ftyIIUQiEioZyXh0/a9SQe3xX4Er51Mp20/jd7pdvEvAFIg/fwuXbX/T+OK//ynfh9CVf2uh1ZYCkULBJ6COfTpHGUxugfgq5crcsqz6XPs1W6DIE8Z+qf/+BmAMjL+DPBWD82gnCPbdnzz/G+Bie+NXpDj87h6GU7ssRCKGQeOouE8yPSzm3XpqZeeyuylJZvgrb4hibPhCtdvotd0sufr8wEQyBx8GAdCCgKvVHK/B3d/pw5D8EK0Pa5mF61rO6UsKfMa9Dx7Pkit4Ho8EGWnvv2HDfVIEc7KgjzojAJg3oRDiNdhMSwXLwt89ejE030H98NGQLN8fl6UDFg/VHY6lGvB+094WMwLxiLLJK0sWfpDcStCvXI0o4yUvCiMEskJCRzHyLOljY39LVLXOFxP+70Apc5z/u4oSMdr5wzBIJIgMI5Qmufsn3NRG2WbVHNY+i6YGyvevIfjixpEHuW+Q6Tne2AxMZn5vn7he4iIWRpRwWRc5k5AMNDcT0KMJgeBQBgXQOhAAAYgVAAAIxAKAAARiAUAAAjEAoAgBEIBQDASKnVajnB0lF9mSoAYNPD2qBykQlX+gQLANYbsOHiiNYlhh4AACMQCgCAEQgFAMAIhAIAYARCAQAwAqEAABiBUAAAjEAoAABGIBQAACMQCgCAkUxC0axPUaVUcqZ5TtXVxhiacxVnH9sUf6wm1ef4fJXI/pUK79/kbwuGf1twngrNJfw+sLFp1udoiu1Mt7tKZYptIrvVyTHnpip++/HsrMLGb33UZj3+GHJthTcIhaz1ELRsdxqL7WrZ+aPYfqouqu9iaNTKoX1NqfNYkfOVy+0yJ70MlWvthto7P3w+/dickn4fGC7kfhXFYtVgu6kNY7Fdi7SdzlRtLxqMOXpd0h5CbaIgg5Vj6VgLRaNWbZe9i9FS3usKxIQrSW1zaWgV21mBjcWq+o4rq1aMVCxW1fmk8tWxIRTrB7lfRaA/4Mq1Re1B1Ag11HR2Jw8htqtqjW1ZLxc+ZtKDL7iuMttlzF78IDcJjS1yHh0roQhVHLecRqNWUEPSnuDRA1mcI2jYBfQq/POJKBX1+0A/kfuVn8Am44Ug8gBTW/OhH7Pcjj9tf20yWpfWPgpWQmK1ouX5CdqttuWm/gldcDJlqr0+4eQ6KdM+72XOEcb2cdUVQpPmXjpHK5wr116nblcCNj7Nub8pm6zSG2fjLH03nX2DpcThK7pTiE9gNz17MtmW62+79skPVOIm2HeshGL32WUWiLM0UZhCCNw4/+beEqq+QR33ZPce2u9kVujyZ3F3o0mfXXaqjsonn80lXs25l+icqxL0YaxxgM1C47ZrU1TeR12eT0QTz7GMCN1ss2jq9InXVJ4bzGNscOHR+ttu42Tif/wEPaeEe+XcGFVC7twm1afGVPluym9Lnd52VYJqH54trrcE1iFNuvOVyu7f01db8AWKH497oidu3uG+i9C9d91rBiQUWm+Cn+LdRh0T8w1arLpdMhGLkhOakpDVGB2X4uUqD4fmcw0V6lPH3a5mXK8GbDIaFHQoklrkGHmj3pXbDTeTi6DHwE/NTntu3HaHHY6IxE8XkNBojqitGeWr6HBeJJLXsZKyvEQ4vP295DhV1feZ0R2YapMDnJnrErlf+TA5Mj0052MBBuI75bs4MrtNM3BDo5FtqSIx3ZFj6QykR+E7ZnjYYBxyNXlowL0Pr2PmsXLhOI3lUtHAgVldzNcrASAz9Sm3d8yUax8ae7VeUIHbLi0vL3PifGORWLgcVs69zf2T4um/UDTnKBh1JEcYnBmgYzw04NbMPQhirXQqiHsYPFpjVi7Q8TGZoensrqjTXEVmqcUkbfab7sDsGnABoJdwW6gEKmHhSK/SG3FBhd0TdPbDmtsmeCD9SS+UwulXMFrWTI6uefcJVhG0c6SLZ3fOrvSTP9/C22c4YtagGOR+5cN2SBHsl7mrr9lYYJfx2LUZ22GTHXIcnT4LhdaIDQWtJlMZxaQL2qxO61TEpC7QU+Q+5cVuEl9gx5keJLIUQpW3sivfXrs82BwKEC8NOY5OX4cewWSWpAlWgmWYyp9rAUAx+JP4Vm5T13iGNlEwfbiyTlMynJasRO2WLULyY/vUsGKFugZZmp+RmlbETcZ4xPQowehQkEQy9SjsexO6Otr2KDIpezd6dVzQU+R+5cbYS7W0zVi4DXhlU03/Np9TXwdSQIfCOZZO/4RC6+7blOlYX6K2+3D3za+8VJVuAYRiXSL3Kz9ao+RGF1p8FbK5eNvwF3iVozapHze9vXZvD432ovZdEeFaQY6lYycU1mP6bhWQTYWjS2q9ZeZeI3ZTMQoaAkKxLpH7VQz6kz8+GXsbUbtM5ReLb0fBfIv4VMjcIoUcT8fKR9H0HQYZ0cZP1Tfsp0lPzC9TQ2LEfNe44fIQbYX/ceIsCwZVaxIyXcaMSlAwEzS/3KDFWpXtTG1yYDv0FkfGGt1u2rNfFSjHTMXOycS8mhoQuiZpC1WqLTaKXbAZAS8pBhsG2HBxROtyQGs9AADrCQgFAMAIhAIAYARCAQAwAqEAABiBUAAAjEAoAABGSq1WywmWjo6OOhsAAEBgbVC5jglXzjYA1iVswrDhgnDrEhOuAAApgFAAAIxAKAAARiAUAAAjEAoAgBEIBQDACIQCAGAEQgEAMAKhAAAYgVAAAIxYC0WzTjQ3RVQpudM7vVThbab3BEvZqUr/ywJQBGKDnv2F33ObnnXbFmSth+Bm45P+LoNuabGRo2xMubxlkTZfEnuI2545sU1H/2x/dTFmP8u0ntqCHE/Hqkdx23mbOBGLAZcO0iJv8zj+UryqWZVlRYwjT1kA8tCc4yf1GDlv0i+Kdd0WlGDwKSWbPulKV+vSq+iW9LJp1TBPWaSNmcQW4ranTY1aYFvcONsNtuvghVDxZfKmYWsLciyd3M7MZ0+qTAb0sndSDrLylAXAhPf0Xp6X1/r0nmFvC0MT9cjzVqVevLwZbF52n3UFYmJAdjWMbSG3UDRuqwyT9iLfPqcyrN4TKmtLnrIADBvD3hZyC8UnF1QmzUVy92iuQuQVXWT1tiZPWQCGjfXSFpSvQjkv0qVF7e3KSY5McQ6Vyyqp/SWJo4jHgbFlvJSnLNLmSmIXcdtzpwKdmeulLchxdfxP7hcpEleYf6H8A2L3UUkXlGiSH9mIKeOlPGWRNlcSm4jbnjsVKBTrpS3IMXX8T+4XlkmrOGJ1S32BXF5+tK6K1mGdPGWRNnQSW4jbnjsVKBQdaUjbghxLx//kfmGRtErLJBJ60nolxD84dp9uKU9ZpA2ZxBbitudOvRQKLw1ZW5Bj6aRzZjaJpsaInMlqXHON5Zwx5gmiGh/H4Svn8PbkKQvAsDHkbSGVUIhIOB5WvqjFvCIBAFg3WAuFrFrzwzAsEtah0CRY+i57c+n3pxSePGUBGDaGvC1YCYUTq1UXssijF1uRkIU1JS47x/83I/0hZ+muN4xhaq+rjCJPWQAGRX1KLf9m29VXpK/7tqB8Fcp5EZN0R4lF0r2u+uKapBTnIMpTFmlzJrGHuO2pUwqbj0YZ9AVa+tyi9dYW5Hg6/if3i5iUotIkdYRnuLJqEsLRKtBJ/LnKFSAr80L76ylPWaRNl8Q24ranTbYNU1LU3v25Dmyj67ktyLF18JJisGGQLj9suBjcugwqM/daDwDAxgdCAQAwAqEAABiBUAAAjEAoAABGIBQAACMQCgCAkVKr1XKCpaOjo84GAAAQWBtUjoXCm3D13Xff0c6dO52NAKxHYMPFEa1LDD0AAAaI/h+dr3Tfw8iktgAAAABJRU5ErkJggg==;" parent="1" vertex="1">
          <mxGeometry x="710" y="960" width="120.92" height="110" as="geometry" />
        </mxCell>
        <mxCell id="vSyEHPA2a1pEyoxyhjJx-82" value="" style="shape=image;verticalLabelPosition=bottom;labelBackgroundColor=default;verticalAlign=top;aspect=fixed;imageAspect=0;image=data:image/png,iVBORw0KGgoAAAANSUhEUgAAAXEAAADpCAYAAADSxQc+AAAAAXNSR0IArs4c6QAAAARnQU1BAACxjwv8YQUAAAAJcEhZcwAAHYcAAB2HAY/l8WUAABKTSURBVHhe7d1RiBTXmsDxr+8+LIkP90FRTHaMwRmVoGLmsWfzcJcZLqMvYWEjREhEZBT2QUEvw7KBbMB9GGJ2ZxYWokjwCgYMLOxLZrg4kIcw/bYqmSBqj1xj7yoRh33SwD6k9ztVp7vPqe6urqrunuma+f+gtLqnq7un6pyvTp3z1RkBAORXwf4PABhQ//Pmm/+kwboYPKhW/+uNp0//IVhXBHEAGFCVN98c+QuRf9fVifCZutKv1erf/9XTp3d/Y58AAAwYDdCT+l80gBtF/dlRs0IQB4BBVa3+rV1r5e/MPwRxABhcf2n/b1YoBD8jiAPAgCqI/IddbVIV+cb8TxAHgEH166/z+u/t8IHnvgZv8zOyUwBg0D19441/1f/+xqxXC4XS//72t2cP3Lv3f+YxAAAAAAAAAAAAAAAAAAAAAAAAAAAAAAAAAAAAAAAAAAAAAAAAAAAAAAAAAAAAAAAAAAAAAAAAAAAAAAAAAAAAAAAAAAAAAAAAAAAAAAAAAAAAAAAAAAAAAAAAAAAAAAAAAAAAAAAAAAAAAAAAAAAAAAAAAAAAAAAAAAAAAAAAAAAAAAAAAAAAAAAAAAAAAAAAAAAAAAAAAAAAAAAAAAAAAAAAAAAAAAAAAAAAAAAAAAAAAAAAAAAAAAAAAAAAAAAAAAAAAAAAAAAAAAAAAAAAAAAAAAAAAAAAAAAAAAAAAAAAAAAAAAAAAAAAAAAAAAAAAAAAAAAAAAAAAAAAAAAAAAAAAAAAAAAAAAAAAAAAAAAAAAAAAAAAAAAAgHwpVJVZ+emnn+Stt94KngTyjLKMvCoou5rYb+z/AIAcIogDQI4RxAEgxwjiAJBjhcePHwcDm6f+7b+DJwAA62PxX/46/cCmGcVnJB8A8onuFADIMYI4AOQYQRwAcowgDgA5RhAHgBwjiANAjhHEASDHCOIAkGMEcQDIMYI4AOQYQRwAcowgDgA5RhAHgByr/43NifNLwRNp7RndJR9NbJWh7a/LkH1O5JVUnv8ipVsV+e72S3lkn8X6Gj/xrkwffN0+eiWlxYfy6cJL+zjGzm3y2YV9UjTryw/kzLUXHNNBNLpfvjquddE+rOixOqnHCvmRaSpa+396O3fJZ9Nj8uXxISl6AdzQx9u3yrHjh+XLL96VUzvt01hHW2T3jloAN16X4vhh+WzUPozlHF/vPTBIxg81ArgxdHCIurcJZAviGsC/umCCt31sPF+V0nK4VJ7b5wIaAChIA6s4sUv22HXk2TZ576BdrdMT9eEtdh0bVaYgPv77ocYZX4P3zKUlmZi5L59eC5eTM/r4/F05c0MDun0ZBtT2IfkoUWscg2zPpDaq7LppSNUMaeuck/TGliGIu2f8V3Lz+n1ZfGYfel7Ko9sa0M8vyae37VMYEKtyc/GVXdfW+PH9Mm7XkUdb5HeHat1cq/L9tRdSso9k+1b5HVfCG1r6IL7T7f/+RR63DOAYdI8XHsrNerfXVvlwksvu3Nq5tdG1ufxCFuWFXK+fpOlS2ejSZ6fY/vAwkGtL/NIduZolkI/ul1vHt4bryw9kIm4UfVQ/87j9zFavdb5TZfGunDQZFyaj4qN9jcJtun3MVcNO53OfV+TMzJMOmRbb5NT0PjkWvI++x3l9j+D5qC0yrpe0H5rBJW+s4JWUfqjI9YUWGR3uPkj0Xbbodznc+C6X2l0FtRLZ1vwe7ufHHUv3mCf8nntGtwZZS2bQu6GRtXT1doKsGDfbItHnbk57Jt+VL8fD/Vy6Ya98vXoaV26tNHWoZZnLUP6j9PNOHd4mxUOvBdluDVpullfl6z89SVHe82ltslOe6Q61q+Ysf+z32+x6P0WzXzowwcmkxLmFSS8r3zOXle73T3KpObrNBj6lBfLPdtW1xwSbLw7L9HikABtaGIvj+4IsnaZMkNTfZcj/Lt0W6NsVpzXem2NZ2xe1rCVfI2vp1vT+jpkTXrYF3QJtRLpSal2Xz1al5FxpvZd23COuDkVkLv91erKYHgs+71jwHi3KzcEhmb4wJl9xxdgkQ5+4e6mmDu7TCrlLxgelgh3a67Uug4wZDXjB2dwEvWdP5Ovl4Ieq86WmCSQ1lR9WW7amv6y1FlVFWys3Fx/IzA1dFt2KpJ91fMwvyL3+Lqm9lKvXK40TSbcpaZF9YZj90TJryQTzC6Sfds09sQddKTUv5bsfnHGPQylO0J3qkKub8m8Fg7L14K+fsayNC7N903uIDCVOi908MmWnPPL6U9V2e5Y8sf7BvH4WNzelnL8TZszM3JEJXa91FSxqAKyJH733B3FLdyNdAOYS1CnsNy8tycmZ+3JVLx0Xb+uyYD57Sc64g4iRlL6efZesIieSYx9lTDn09oUK9n+4P7yspUvOSaPD55l9U3+tBofvNvildBbuib30g9/N+Oius/8Obks8eJ2kDgV6UP7rTPC/cTf4jJPXnshVs32790hzQtoEMgXxoAU3c1duLjd2rFG/5NFL5XUN5qb/NO6uQi0ciUbvR7fV07ZaBRE31bJ0o/3YwKOFOzJTC5TRlL4s30VbKpnGIdpY/JMTWDOmHPpppzH7X08aJ91AHvd5NrvJjNdM0B/egntid7pSaiJdKqkGrzvVIdWT8q/Mz02Kctw4yaOFSqOepDghbQYZg7ihgfzaHTlzQ3eu2ypXpt+z1jLP1KrryqrMdKzwL+T7BN0YXivnVvQ9O1SgiD//3DjhDe1wP8/PJGjXLx3X4uqaBtZ/TtJaaiuadtph/3ut/+j+QGLOib2yWGkxcOl3qSTPGU9Sh3pV/tGtLoJ46NHtJ+HlzqUHzcFcW+Zrftt9m8HHqM7dGB0KqZtqqb/3bq1Q4zHL2/alxtCO1+xaqPNlb7oKk4XX0tHW0j+mabVlSDv1KnXi4IKGLXJqotGV0a57zStbcVd6riR1qIflv9kW2bNzS+Q93DIGV9dBvObRsxdBMJ9oCuZd9LP2k5uZ0apwa8FpdF+8aG7luIVYtz92fJ9Mxy02BaylTpkEnb5LT+jxu+Gc2MaHkl+yehU62Un00c+/2DVk4uaGx40XpBw8T6yX5T9g0lL3y1cmS8VkN104HHkPp7sOnp4F8TobzN2BiKz9rP3lXmo2d2P0s/ui0hTA4jMJ+tqV4vJSDrfK9AkGkAbVnsNOFtDPIm97rVZ/2a0t9ZpBuOppLv/hPQxBlks0RREd9T6IW9EMlkEcUW7fjZGy+8IMAtUG4BIswY0UEe0HbvrfldLwUq7earTGu045RJ+4ueHKJBR4rVZ/OVafflj1o0HVZfkfP1G7Cc14JaXFB3LGzMfkbadX+PYV8PUtiJuA8FhbCAOtXTeGtl7iB4yUd6PO616fXzbuYKuTSZDku/TS7fuNTIKYgda2Eu6LPW6/6M+vOgyiweN2pWTQkwZVr8r/zl3yYb2REt41/Km5u7OH2VcbXR+DuK/5Esqx4/V1usRr3Y3R6L6Iycf27lx9TXb3oMXaarA10XfpMS/lMElr3E2TTLgv3nbmJY8tG2jipvaZW+T9FmubxRnv6EmKXq/Kvzeewr0AWfQxiLvdAKaiRgJQ0lvOozeR9Fhzl4rzvWMLlZ+m2JPpB5pyxpN+lx6L3gBUz4Jo5xfnbswE+2J0v0w7ra+1OjltDG69SrHvvBNthtvwm/Sh/Mdxgz08qYP4+ImxcN6L0S3tW89m4pxp++e8jOcVuR7ty/W6MrQQtMhgCUar65P49IkXsLRwn3C6L7RlHHeZ77aczfQDned1MGlTca+J5IzX/iSa6s1t9sktXnP6IPVyOf4YRPvSdV/ofmxVPsyf8/Pv7Iy5cckc/y9MtoIpcwOY4bQenO61dCd2N+j2pkulJ+U/QWNuTeJAjqWexdAE8UYrSj3Xg6CXw7UDMbQjOsLcfnY8d/a1kL7XcvheQwed0XfzGbVA0mEWw2CQJe3dfVpIGnNF1LT/3i7/71Ya2jpaXpXvncyX9w7p76KvCX+fDjPKub9LXbLvEq/FLIbB8+01Hx8Vs3+byoYyc2lU7NiId0yNDsfKf79e7IP8c/dJfbbBpLxyHtmfGetQ9+XfLZeGiQGr8rXZfofZNvIXxALJym8erckshu5NGgETXLVyFu3iT0O5Glvxwttx3fdrvFetsps/9npmxp1vow+8S00r4a3ti+auVTedUn+HopctoIWwXoBVpzxq7wrF6vFt9kk1zZHTweK1pcjx1MCtrat62bDPGeFxTXmy3ewig4Cpu6Eis1b2Ime8+/JvpvBw7y0xMcBuP94I4Ka8zHifg5rUQTyY5+D8Xd2h5nZ7PWs2VXJzJjWzkN0N50PoEHyCQhDcuu8fIPMe5s++mb/WnaqiZ8p00EtNr4BoBUmRjx3sk0tmn2irM/J7GOa5Un2fdApc/mCr0dfc8Fhawa77N2917GLS49nYF/bJGlNeUhxXJsCKcPuFdT+m3x+R2/B3vNa6iyplHeq+/Jt7S1qVGRNftNWt723KS5KbyDaj1N0pWANel8rGvXQE4FubPwqBvvNTyNYgNxxAbhHEB07GFDIAmxJBHAByjCA+YII/VWXXGcwD0AlBfKD4Exs1/yEKAPARxAeJN0d0pc8zFgLYCEgxBIABQYohAGwyBHEAyDGCOADkWOHx48dBn/ju3buDJwAA6yZ1n3h9YLNQKIhdBXKNsoy80rLLwCYAbCYEcQDIMYI4AOQYQRwAcowgDgA5RhAHgBwjiANAjhHEASDHCOIAkGMEcQDIsUxBfGXhtIwVCsHtzacX7JOxVmRhTrcZC7epL2Njuv2K/rS9lYU5Oa2vq31euOhj/eC47QA0pK+z7XVbJ2vbN7YtaGw4LXMaC5CBmTvFcFbbK89Xp4oSvLa2TM3bn7UV2aZYrBZ1cd9DirPVsn11Q7k6G/ms5mVK3x3wmbIBK1Odbaf7Ojk/Fan70SX7l9sQdB+kZ7cNdmCc8uxUtejubLvE73P3oOvBjUTq8vxU/X2Ks9EwroVPNOBPzep27s/KfkHY5AcdzUy5QNY6G6e7OlmebbymODuvW9X42zfHgs1Df//07LbBzmvH2/l6gMrl2XrhiC0QCV43PxX+vHVrvJ3IycE+CximXGx2metsZp3qpDkB2O/TMkhTpw39/VNL3CeuZ1/RlrQsXZ6UYftcckV5Z8SuRoy8o0UrtWE5+kFtux/lIV1pQJPu6mxa8XVyZe6iXAnWpuSTs62+zbCc/UTDfIA6nUaiID58dkkLwlmZTFsShvfKgWClJN982+qorMi335SCteIHRzMWtAOyt/8lFMiVzHW2J5rrZPleWM+l+I60ac+JTL6vId5oFy/QSp9TDCflfXtyLZ0bkbE598CsyMLpETkXHNt2Z+d2FuTzcEPd9H39FADrK65OrsjDH+3qgb1rcFWwufQ9T3zyclnmp8LLLBPIC0EqkUkxGpEj5vqqOKWXfJeTB+KVBZkbO1K/NJvXS0UA66hjnSxLoyHeth2uRqTWu1q6Vw5X0FHfg7jp65q8vCTl+SkJjk/pipw7ck6u6EEtTs1LeUkDeMypeWVuTMZMTmotL3XkSNB6D/v7UgR/AD1BnRwsaxDElZ6pP794RezJuK505YiMaMs8Lsff9KWVSnaxzxmlK+fk4ufc8AOsNerkYOl7EA/uFNMzdb3lXa2a/C+vZX5kxNy5Gby8yeTl8PX1pRx2z5htg5NAQU8C4UsBrAHq5GDpbxBfmZOPj4Qt8OJs2Ut1Gp68LEvVssyGkVyuHEl44IfD7pklPQmE9CTQ7X3EALLrWCfT93XH953D1dcgvvD5ufByqzgrf2yXG/rH2bBFrgf+ope90sHkH+wJQP34kEs4YL21rZPDsjfMNe5QVxsDoAfIG06sj0E8YVpRPZccwEZVv6mvdE9DdRsL/2kzXNrfHIhmazOwGXf2XXkojVif4uy78q3Y+4TIPQUGQUydHD76QYcr7hWZuxiGcCl+IEep0In1MYg7t+GWzsnHraapNPmlH9suF5mS953cJJPGFOSUz+l2kQ3NVJZjI7XtijL7B5KagF5ZOG2niTWZY/Y5o6s6OXxUGuHg42AK6rogz7x2459Ggk/O0ihLo2o5q82c2Qbjl+aJa7zZzcxip6LV4+k8X6xG58RxJ/BpvxSrU9GpEbHpmbKx6WWus+5EVH697L5ONk+LG1028wyGhu6D9Oy2wQ5sJ9nBM0vr2cfK5fnqrAZzP3DrAdNgPuVNSRkRbDelr/O3MyeCYDviN1owZWSz66bO1htexRb1ues6Wa7Omylyve1r09val2xiuj9SK9Q2NJdPGd8DGCiUZeSVlt2CXU1sbQY2AQB9QRAHgBwjiANAjhHEASDHCOIAkGMEcQDIMYI4AOSWyP8DwgQLKcv26bQAAAAASUVORK5CYII=;" parent="1" vertex="1">
          <mxGeometry x="950" y="910" width="126.7" height="80" as="geometry" />
        </mxCell>
        <mxCell id="vSyEHPA2a1pEyoxyhjJx-83" value="" style="shape=image;verticalLabelPosition=bottom;labelBackgroundColor=default;verticalAlign=top;aspect=fixed;imageAspect=0;image=data:image/png,iVBORw0KGgoAAAANSUhEUgAAATwAAAB+CAYAAAC54q3VAAAAAXNSR0IArs4c6QAAAARnQU1BAACxjwv8YQUAAAAJcEhZcwAAHYcAAB2HAY/l8WUAABQvSURBVHhe7Z1PiBTX9sfP/HZxloriYsyEcVRExcyyhywejDwmbrJSiBBEpMedgoZZPCEE8lsMMTDzWyUiwScYMKu3SQ8PB7II00uVjIRoz/Am9g8kokvNct45Vbeq771d/6u6p6rr+4HTU1Vdt6rr1jnn/jmnasZ2GFL88ccf9P7776s1AKoHdBhEMba9ve07vMv/9/9qCQAARg+jh3fm+rpaAgCA0eN/1F8AABh54PAAALUBDg8AUBvg8AAAtQEODwBQG+DwAAC1AQ4PAFAb4PAAALUBDg8AUBvg8AAAtQEODwBQG+DwAAC1AQ4PAFAbcr0tZWrmEH12Zi9N7N9DE2ob0TvqvvqL2g+79POjt7SltoLdZe7ih7R4co9ae0fttef0xepbtR7BwX305Y2j1JDljWd05e5r3NMimDlG319g21GrXa7bS1y3YLBk6+EdPERfLs7StxcmqGE4O4HX9++l8xdO07fffEiXD6rNYBcZp8kDnrMT9lBj7jR9OaNWI9Hur3EMkIe5Uz1nJ0ycnICtDIH0Do+d3fc3xNGpdeHVG2pvuNJ9pbY5sLHgJpaWxplDNKWWwTDZRx+dVIs+3AidHlfLYFCkdnhzf5/otUzs6JZurdOZpd/pi7uuXFri9etP6Mp9dn5qN1BS9k/QZ4l6eaBIpua5w6CWpZPgMcG9PjRAgyWlw9Nbpnf04N7vtPZSrRq8pa1H7Pyur9MXj9QmUBLe0IO1d2qZe3kXjtGcWgbDYJz+dsqbGnhDv9x9TW21Rvv30t8wIhoo6RzeQX2+7i/aDnR2oOxsrz6nB/7Uw176dB5DqaFxcG9vOmjjNa3Ra7rnN0AY1g6adFFaNX/nOj3u4d16THeyOL2ZY/Twwl53eeMZnYmKTs3wOS+ocwbtq/2m7toTuiSRR4ksfna0p1gy9Jbe6EHtvK+6dGXpRUzEcR9dXjxK553j8DGu8zGc7TbjNMfDlE9lItqY23xH7V+7dG81ILKp10Gi3zLOv+V077fcCutdB2GVlevQzx91L/V7nvB3Ts3sdaL3EtDq0Yve33mUIDos6JHMROcuP1PzH9K3c269tO+rEZBhV1F6pkij84E6kkFfbfh8l0/vo8ap95wsjR58n3mY/sO/X6TQz+GRrof3ki9GLUprdP7v+9TyILGjwDGIIUsahX4jeajwkQwV9N+fZPgws085CYaV4T9qUWdKjPKb07Q4ZymPwIrQmDvqRKv7IqKpf8uE+VvyKtOjrtbLK+ZeenXhRe9NetH7h4vHnIhkXFTSiGSOxHDPGs560z0v31Bb63F/lHZeNUrnLTLrqw871sVZ53znnWME3OeTE7R4Y5a+L+HIIeUcnt79Zk4eZeU9RHNlUcRTR4xeixM5ZufgtDriIF6+oB82nC+Z+OGDGJxH99c3gb20b70eCNPlVvXB2jNaus+ypisxn+vCrKlERf+W1LylO/e6PaebNy3CqgtB6iMwei+O78aHjtQqFUNvtJzhrMdb+vlXbV71VIrGJ07ndfLoq8IJuPiOks+xwQ2nlO87BtFE4tSn4ZE6SrtlzP8w+5U3v7j7js9vbSRB9vpjN3K89JiH6r3h2ho7C4/oqJgZoGk/sYZhMqzQFO3BrXW6tPQ73eHhwNojllU59zpd0QMEVhpIYb8lK5bTPf9ZxjQVoy4Yp/7d+jCi97c0B8vnizun1I+/PxvnzyUcIqVBb7Tav5pTM1tPtGs9uS9xICmJzjsUoK8+4ijvP3HOcenuC7oj5cOOkcZ5D4HUDs/pGSw9oQcbvYsS/G4sD1d21fHJXE/U0wB8YxJFxXg466UOBBmbnp7Tvh8+l7m1+piWPKdip4Fk+S3comaaNw1h7d+aE8qYpmKmKkXUPzvYS4bTY6LOqSL9Mrd8pvLzd3qjpQ1nPaxhbapAUpzOM4XoKyPfSxpa1Dzs1mq3p9cpnPcwyODwBHZ6dx/Tlft8YXpvj5F5Gq/Hl6m3kIs3tBRrGK/plwRDSaM1fmgfM0Z5Lf7zZ69xmDign8+M0IXNo0X1DHLDTuh/k7TqodipSjH1b/QqXcw6GVG0Rqu71g0ISpjD2uQ5eUl0vih9rT4ZHZ7L1qMXbhf21rN+x8c9vqE/WhYSWLCJH0rGKIiensPXPcnKPBchH6hdhYkD76kll/ihTDplzYLRInOr/o80vYsMqUq6QQmjn3A7TpfP9IaTYVMShi5E9fh1kuh8gfrazzhNHRy3jqHrRLnI5fA8tl6+dhzfmT7Hl2NeaJDoEcogxeKb1htCvu5vjXUF4vLnLxylxShRaQiBxEXo4n5LIfD9u681AnMTyYchhjEla3C2/vxLLdUEPfcuai4yZSArMUXqq4OkHh2j7yVaK1H5G6etY2hTHCWjEIfnoxyfPmmZdV5osOjDh/6h5CCHkN0+Y4+O0A10OKtjpKnspcWL5ZpsrjJTp7Xo9Z9EHxi9IVMmuQfoUYaeb7++ujmdTrTXTmupAMU6PIUdyS1bpEYIH0qmHELKhLE3sZ5AnCRRi/BJ3sEPZ3u8pTsPe7283GkqQKHn3jES3DN6Q6ac91/hxQyis5BTX+cuegnsAg/P157RFXme3ijHIz21R9kYiMMT49nmlqzUhA0luZWNnlxmjKThPcacRzb0QIoWoUvyW4rk0e+9CF1EECWUhHUxZc8L/fkuZtK9wujD2QwU0lkoSl8PHqJP/QbYfTrnC3kqo8CsgUEzIIdn0t8t1jiwZ5e67cFDyd4QMiLfzXji5D2aLKAnFBRISfRbCsZIU0nSy9NTaxLWxQfWe/Ui9aPi6Okg8hiY2RMKEW0+tZC0jqL01ZivrWZe5IAcnj4UE4W2jDXpY1V2QmvB9A9rtd8deUPN1JZCHrHry8lL+lsKxk5G9qOLYfylPUWRoC5mjtGiphvDdObDR7eDFNdpNCIZHjXrYwD6GoXuGEtGKoc3d3HWfQ5yZjy8VyYPMS+qV4ILr7p0z557MoaTfAMCIrlOFMh/oHpAGMbNinVRG0JyjytqmKX3yOQRu/jnBiV0H7WPlZPnvVadKeZRsuSs3dXmYHgIFH0P7Lk/rguuxyD9kH8J0NeARSVSiw58I5FA0bsSRvvj0KYk0jVauoMqZlhbiL4m6KgMxW5zkOptKeLwjNb5FVcAD0e8Spg4YEduwt/Cob81woWPteEea+KkFtWSc3hGF/O2FGdCNm1GPt+g3rOIHuG/W8f8PxECt+Ibb+gXLQL8EQ9LJ3gf93pi3oShX4tPst8STcDbUpzt4fTfHyaifvt0g5FnNbtqLte4pwIfS4i6X+Yxi6iH4aL/fv+tJkkx9NK69ow6n19fdT0SxGbf0A9S/oCUtd6E7pBM34ZFqh6enTDqtP6syA0l5qtm3kQqqPsIi3683rE8w5B/bHJlyXoUqWiM4YMi4eNba/K0iZ6Cw9fQMKJwrAC+8jBxeWpGz1dR8KNkSel7ZjqGtbvr1v1kJ8e9AF831DbBva8vEhtqJbEm+FMP26232RSRk5dfX+WxUj3XVmxWlZ/rOTu5v0vGecpDKofnPEd3/QlfjDxSxt69zyDE48vbE564z9vFGKpzA5zH08zKkWPIq+PlvzilMohM0T4ePhg3h5UzRb6bUye3pE64N2NdhyDb2n6dxBm4GUgRBpp7Fwkr9z0zkTx2mM/3s1cXaqOH6It1X+PuVaVfHqDPY/F1p//t1qNmB94LHtKn1Pn8+iq5tkH3WPwB9+b42HJ/kySg7waphrRgCBjD2nINBwCoOkNJSwHJMdMYhpB7B0CNgMMrFRnTGAAAiYDDKxH6v++r3JwVABUADq80mM9c9r+DDwCQFzi8smC8Qqg74BcFAFBPEKUFANQG9PAAALUBDg8AUBvg8AAAtWFse3vbn8ObnJxUSwAAMHoYQYuxsTHSVgGoHNBhEAWGtACA2gCHBwCoDXB4AIDaAIcHAKgNcHgAgNoAhwcAqA1weACA2gCHBwCoDXB4AIDaAIcHAKgNmR3e5uoCzY6NOY/yLKyqjZFs0uoKl5l1y/gyO8vlN/nbcDZXV2iB9/PO5wqv84mjygFQJTw91+1jdnaBVtg+spLPdrLbbGmRZ2k9rNVgOq2dZoOcfT1pttR3oVhlGo2dBot+DGos73TU3j06O8vWufqlyUcHwEV0ooq0mpY92BJvZBZ5bSerzZYbDGkBAPVBOT4Ha7WPznJzp6F7eCXRjY/e0nCLYjUJnVbTP05j2W4vuJUhblmay1xO/65jtoipWz8wqog+VI3Ock+XG8strddk6nm/fUSRx3by2Gy5SezwjJvCldTpLPvOL9LfJNiv1XS/T9dFtm6K2grqjehDtRDH5OpxsPMYhJ7HHHNgNrv7pBrScmtB7O1p/bt5Oqy2JadBx6fVosX0cf+/sabgMJ0955V7Ss8RvQAVZHPlK7rtLDXp5tUgqzpMV2+yS3QoSs+T2k7RNrv7JHZ4h6+us6O7SvNpPd3hI3TCWWjTjz8F1ewm/fRj21lqnDubwZEKJ+hItoIA7Cqd31zdp8ZxCvEtRPOfsDsUwmwoDwG2MxSb3R2GELSYp09UA9W+Nk2zK3oFbtLqwjRdc+ourIULY5W+dgty0U/4LABUjU16/lQtnjgyRMcRZzuDstkSoIa2DtZqNEnn8BysidJGc2e5tdwLe/O6PTEaSaeF+TsQiOhEdYibv/PQ5tzijS2axLZTsM2WhCE5PBeJ7nhlPHECIOr7MCRgIjlAjhhlJQKldgKAEb2oDoN3eHltJ6vNlpXhObyAhGVfYloLPyIUIFWufFA8ohPVYfAOL5ft5LDZsjKUxGPnMbTpj+k2j/u5konrSbSSuPUgdppE7dv08bQ8ruLs3sf8d+7+vnQ6xN1tp2z79sc0PbZAiZ5uA6BmZLWdvDZbWvgifKzVaJL28LT9Cs8z0hIgkXwMBNGF6pC059bbL7onmIIo2xmkze4yA+/hrX59jZyATmOZ/hmWZ/TPZbfVoNv0lRERimH+c+KKd3n6nIoO2AMwWA7TETf/I0Z/O+Rlr5woKv8qwnYGarO7zIAdXsKwu5/3A0C98BN427+xWwth9V8qOTk8Ebg4RttmhzKH5xDVgm0+p14dp2jBNn8ilf845DwmAIrh8NlzMT2lTVr5ynV31DhHZ4tS8iS2Mwib3W3U0NbBWo0m4Rxe3zO4artPRF6QU1byf+SBaqtgp9U7P2vCTlFTG6DaiD5UC30+rMG2pCmyYRvBdubnyknUVG0T8thOHpstO8kdnj7JGSn9FWAkMIoE5AXFVXy4WEoCao3oRPWISP9QEh88MO0nr+1ktdmyk9jhJatAkWCP35FWgSvRrDC+kVyJTeOVOBZOuSbvZ5aTG+CUq1iFg8EiulFNOjstef2aoedsLzEJwmE9PIectpPZZkvMmHzwRTjI65u1VQAqB3QYRDG8oAUAAOwycHgAgNoAhwcAqA1weACA2gCHBwCoDXB4AIDaAIcHAKgNY9vb237S0uTkpFoCAIDRIyDxWK0AUEFYhaHDIBQMaQEAtQEODwBQG+DwAAC1AQ4PAFAb4PAAALUBDg8AUBvg8AAAtQEODwBQG+DwAAC1AQ4PAFAbUjm8zVWilQWi2TH3ER5PZnlb3P8el7ILs8MvC0BV8PTc0HFeX+HtadlcMY8TJwsB5xhJu5NnaT3c1WDR/z9mmLQ6OcoGlMtbFlI/EX0I2l52aTX79doQ/j6oXJh0lgOOESHNlll+VO1OPn3kIuwdPGnydw2udNupGTeKK6mjfedJorIhNzRPWUj9RPQhaHuZRXdODV7WbUjXc/lOL5dX9PPazmtU7U4+feQi7B2SiN4aLIf08sJEL5u2xchTFjKaIroQtL3MIs5FfneYQxuUnnvnTeu4qmx3hQQtzp5TCxnQyz5POTGQpywAZUDm2m6r5ZtX1YLF1ZtqgSlMz1d7513+XC0kpMp2V6oo7ZHDaiEDecoCsFt0flMLDaJptdjHPHEnzOXHn9RCTla+Ugt84Ks1srtCHJ5/05i0FfD1NbXAFc/3NRV5ygJQBp4/VQsniIbmO7h3d63tLjY/cf+mocp2V4jD+5fXN05TAdwVXpntdatb36mFJOQpC0CJ+E05nsZx928Yx7kHKLS1zkVW/N4dH/PzNB5rBOwut8NbXUg2FyBzFZJT5Ijk83D/XVqZBjvJVifaUeYpCwDQYKf1o9e7uxndqxxJu9vRcFdTSKsXrYkLmRvhbEsk/B2UzuJJnrKQeonoRND2sgr7DlePY+zHj4ymjKjaottSXIR1FO1OPn3kQuwdQqXDF+1VAN+M1BfP5aVC/WOwJA5x5ykLGWkRXQjaXlYZqsPTbDZTTt8I2J18+sgF2DsESl5np4vWS0x9M/OUhYykiC4EbS+rJHVk3n6ZHJWSqETjVFJhu0s/h7dJtMBjeWcagL1eZz1ndGmeiG+my1Pn8MnJUxaAEnDkhFqI0V8vuHHiiPs3C4VFVytsd6kdnjg7J0jBF9zK6+wAqDnTXnSWHVpHLfahJQkfZ/vLgp7gnDbReKTgfp6PuxouTa/7zVLY2F0fHqftHucpCxlJidPh0kmCeTV/2Jtj+sibKyzETipsd/LpE6UsfqWzpHF2zrwBl13mvx2uKOO7llZxLPZzuHnKQuopogtB28ssum0Zby1hnQ79TokfSeX9Qu1Sm3MLOoYto2x38ukjF2Dv4IhWYUlEr3h9ojRKgm5EnrKQeoroQ9D2sos+egqS2N4fS5jzSdtDHGW7k08fuQh7B0dyODxHpKXilqhh31Rebwa0IobkKQupnYhuBG2vgrRYn209l3w3+xVNusT28Lis1yNL5aBG1O7G+FMuxGFsbIy3qhUAKoi8kRc6DMIo5FlaAACoAnB4AIDaAIcHAKgNcHgAgNoAhwcAqA1weACA2gCHBwCoCUT/BTmaHbLG9mqKAAAAAElFTkSuQmCC;" parent="1" vertex="1">
          <mxGeometry x="470" y="960" width="126.31" height="50.37" as="geometry" />
        </mxCell>
        <mxCell id="5zrL49-NiPvy908fqXyy-1" value="" style="shape=image;verticalLabelPosition=bottom;labelBackgroundColor=default;verticalAlign=top;aspect=fixed;imageAspect=0;image=data:image/png,iVBORw0KGgoAAAANSUhEUgAAAeIAAAEQCAYAAABss3exAAAAAXNSR0IArs4c6QAAAARnQU1BAACxjwv8YQUAAAAJcEhZcwAAHYcAAB2HAY/l8WUAACvpSURBVHhe7d29j+NOmtjxR/4DnPv1xrbUBgbtd3vvTPnO51BqwJhgt9OBEyrsTibrsCN3QoVSYGNCz659YwNDwYDtO79IsC9cDBrwkLvb+757mR04lZ8iixJJkRIpSs1W6/vZrV9TFF8kTbEeFllV7CyVVNDpdOR///T/2lcATtEP//Q/yne/+137qh0/+MEP5Hvf+x7lCaD+5u/8eflzdhoAALSAGjFwRkyN+CWgRgzETI2YQAzg2ZnCh/IEsIH46empUiB+8+aNnQIAAIdSq0ZccVEA2IryBIiZY4HGWgAAtIhADABAiwjEAAC0iEAMAECLCMQAALSIQAwAQIsIxAAAtIhADABAiwjEAAC06OAja33f/1M7tb/vDb9jpwC8RoysBcQOPrJWEoT/2e915Q9/92/IP/3OX4/SH/yjvyZ/8A/fyO//g9+J0j/5+39V+pqcv/dXxPm7f1n+8d/5S1H6vb/9F6P1H/71n0R/N81kpB/afHCT+uOZnb9pNu6vlut0RromAJyiUMuzkfT767IvSv2+jGahvltXKOP8tnalUVEJmnyudFlrUl/6o7HoR0NFB780bYKwOdNNznajv7nXZqpovvG7f+svRH+rWDzaiSKPCzsBACcqHEu/05Ph7VQW+SJNZ0yHPen1x3sE44Yyn2vjg8lieivDnqksEY2rOHggjgJtOrjmXpupovnJ32QaAM7bTEa9Ww1rOyxupVdYYz2Wip9LLW7fC7F4t6ME4tXfVGCNgmzJ/ORvMg0A5242GsrUThuO50tgy8ll4Itr50em9zUCXldu5nY7JSnwHLtszH03sFOmMnxf/rmWgfhuet2FfPpCJN7lKK2mzT+I/if+a1+bqaL5yd/8vKML972/EUo427xf0++PZFy00j77CVP3wvu6jJ03HmW3sfVzHmC/0SIb+zXrz1KXwux+Vu/Hv0Ur2zf2/ncFXpJQvn21k4bjycebgYZQqzuQiZ8OxYcMeDN5uE3Vd3XfH9ZxOMeVu/Tn0qnB5C57koDdNPBVUmXRT1/+1/I3f/Zny9/89rfLX//mN1H61a9/vfylpl/86lfLX/zyl8uf/+IXUfrZz38epZ/+7GfLp5/+NEo/eXpa/uQnP1n+y3/1x3aLef5S/4GjzxIl17fzN2keXS8nrq6ZEnhLPWdLvV+cNjcfLPVEsXDZODlLT08NV/bdT2Y9d+n57pbt5PZpHGq/npNZPpMc/U0D/fco/T12fa5jb788bck2eCbm3wHbVCnrqpeHdWhteL1NTU7uQMu+v/s45HjbzvxGh68R63bjbZvJmjXh1OujCh4r3d+YDrOtrcPxe0mfKG5ayGNgJ40995M1ldvhdMt2FnL7kFv7UPvd9mUXUxn2hjItXUQ/1/ttjUiOsP2DfG/gnOVqw1GNd13fNbpX16KB1tLjsNdfXw00V73ep+4fb61NI3HUe8RmKh9gM++n59nX8ZyKpsPc5cd10thVrvdWM5L+z/XED4LVZ9FTOclc7ZGv8m1V0ofy5dM6gzpu9r5IoCs669wZ22s/JRxXtxGvH/he6kBQ08/ZwHLQ/Zpt2P3m7hvFHD0Rt/vI37dafJKdV8sOuf1Dfm+gVT15mz4ctKwzXZXWzC2Yz5qTU75+23LiW83m/d8PshFHuzfyMXOsajAe9rTc7UsnffKsx3Ywv0ldtkYpLagqqbKouTSdXI7+/X9+Vzv96Mc/XoY/+lH1S9OVU+7S9Dall1Vyl6X1jfwVmVq2Xb7JX2J1vI197bw8VKbRfjcvzecvO239XMfe/jbbvjeenfk3wHbZvF4hFZQT9eSPvx3Hlx5TZbeOtKJiF8Iu0W9mp3cyC+9iAvE+94R/rAE4CcLPGYi1ZqkZyckGh1xK5yetVeXe13Vdb6k1uq3q7icfNPL3aCK+m1q/+IA5xn4zv0HRgZ/5XM+8fav298azM/8G2GVXm5RcahqIc8fWrnvOgbet7YqmqJ2HXRilzG91+EvTJplta4r3YV/bv5l59rWZk5lflevH6xek7KXIvHhkmd7wVqaLRaX7isZg4kumZb6umXRc75hW0xvXhfbbT3Nt7bdt5/q98TqZbkaB+N7mbS8nulWVK48uLxpcBtZj5z5zUVq80pu79jgzg3nYOdGtOt/Lfp6onUeffsQVHOcesQ2Gq9f2b2aefW3m5Ocf22zU29HoqsxAJsmBYeesaKa71YCc7le//36aaWu/bTvX743XrCuDm4nMc/1+5/OJDEzUTeV3523PTu1h9pA9dpxruSqJ6tlGqxqwA/08k4F0BzdaPubbehQ0JsWGo7eaTv5m5tnXZk7R/OOayedMQ651I6goBbmGUBvsgaHLBtEZaXbp6X3SkrfpfvbV1n7bdq7fG2dr9jnTsOryYt/6cL42rEfPXVkjq1yravdOco2qpXvzUTKxON+YFBuO2mo6+ZuZZ1+bOUXzn1vUKnDP/Ns1nern8+wZ4OJR0j2YEk3200Rb+23buX5vnIt88HQlNfhVPRu1YbocPbfD14hVOsAWBVszp2j+6vUzWnz6YmuwmrVnY+mXjqEa3xeJR2dK3/QI5UuFB0xU389htbXftp3r98YrEo06F5c3mRLH9NXtZ2/DbHYzisurpDvntocvzLKXksS5vqp+r3l6X9CtKjfegvNWGlw0PwtHrRFngqt9beYUzU9eJ9PHM5B36YZcZsB0m1lNI5/ywjqIHugUN84yfeaSTK4HRObE9J09IPbdT1Nt7bdt5/q98WoFn7VsicubJC9H+Tk/0I3WYD/mrw+HXyQ17IEeDg/Fl4fDsWSvSm8O4JGVO870yDJPgEo+mykPh5koXDOwn6mDB+L/+cNfZQJq9Ne+NnOK5ievTfrhj/5P9PqYBh+23S80Q0IUyXWwL2JaMk7W56X77ae5tvbbtnP93jhfZvCaJoNmzB6yJ6mbNetNg0mQvQe8heMFMt8a2GEcNBB/b/gdefrt/5N/859+JJ/+84+j9P3/8hP5/h8/yQ/+5KfybzX9u//6syj90X/7ufzRf/+FfP4fv4zSv5//Sv7D4tfR+h/+xR/aLW7nvLUTRbZFze6NzANfvGxfJNslYC53mTO+RFduPsbrFHUl8PxAD4hJNhPvtR/jQi7tlHF5YScyzChSJY65351nI+nP5eirtCNvf+/vDbxAg4ntEpQ/JrQMsqPHzSclQbh7Jdep1YoD7GYDx+uyptIZ8dObks+2ccSaedHnWxKEK+poLTSuku5gLjtUXBQAtqI8AWLmWDhKYy0AAFANgRgAgBYRiAEAaBGBGACAFhGIAQBoEYEYAIAWEYgBAGhR5+npqVJnvjdv3tgpAABwKAzoAeDZUZ4AMQb0AACgZQRiAABaRCAGAKBFBGIAAFpEIAYAoEUEYgAAWkQgBgCgRQRiAABaRCAGAKBFBGIAAFp08oE4nI2k3+lEw4SNZnbmVqHMxrpOP15nlfp9XT/Ud8uFs7GMR/3V/uKkr3XH29YDgCZM2TPSMipdZvX7IxlrmbWvZJtNy7P6ZTA2mLGmq6ix6PMI/KXrSPS5kuT69r1SuXUcZ+loSm9DHG8Z2KXX/KWX29dmcpf+5ooACphjBtX4bq6MyqfdBV9OUK08s0uX2qsMRp753U6yRhyaGm1vKNOFnVFJKON+so4rGjRlOZ/LXJP5LQLfjZaSxa28H2+eDz4uHHFcT9cLouXjFIgeJHaJqQzfj6kZAziYcNyXoS3oHM8XPdffLHumQ+kXlFnlgmrl2Zbq7X5lMErpP0AlNRY9qsBbnx06evoVBN5Ss87us7EKy2ksjrddWCsukz67dJYetWJgJ3O8YBetcdoyyyksWNJlT4UabCW7t7l3GYxC5nc7yRpxfCa3lPlkIF07rzpH3vbsZE7vbXI2WEdXrq73WQ8AyoXje62XGq7c3RSVdF25ubNX8uSrfDvI5bh0eVa+zWZlMPJOLhB3b+b6j38jg7r/+t0LuYwmFvLpS1HuCuXLJ3sJ6PqKzAWgVcGjve7rvJWSuoPI4J2GaaOsXGviUi4KCsK9y2CUOqPuSwN5t7oN3MvdUwllNurJrb1/XHz2WW51wJRkXACoJ5RvX+3k5cUzVgxm8hAXhFoUvtNSE8/hjAKxhuLJujGCCcadqPm/acLfk6G5BuSYRlyTmplvJp/j60dkXAAHYhpUxVNO2b20SE+SO2qLxyCe2Fc4ixu0Ri+0LJxQmj2XswrE5v7HYDKPWkhHeXcxldvhbdTyz3F9CeYahGuees5GScZ1xPtAxgVwGkyL7L7pR5z0Je4No6uC8f3fuhUSNHFmgVjpWd/D/VSSi8mJxXQoPa0h1+ofPxvFNWnleB+l5hVtAGiNuaW2WNhk5xmL6a3cPzBI0XM6q0AcjQBj+75FNWDbfy5dQx72zAhb0eLbhWPpr6OwfCQKAzghg0nSf9imIL51Z8rCqGLS0YpJvCiO7HwCsQbO9xo4zZmf4wWZZvfdwUTmy0C8OBrLdLgjA5og3LuNzyI1CAfzG1pZAzig+vd+t99LrqAb37qbJ4Mb7RjUA4dzNoF49rAOnMW1167cfPTimrFmwPuykWrCmYwIwgCOqisXcX9Lka/ftlwmXjfqujxUl43BB1spUVv3jUM5k0BcsSvAqq9xGROEbeMs08KaIAzgSFYDDC0eNdyWmH1eNRZtWiFGe86vsda2M7zwm6zjdT7EahBON+03LayjaQA4vO7V9Y4rdKGM75N2KtdydahaQfhF7NhGz9yH+XydSSBODdtmHupQ9Jgv04fuvb3krIH2XSbK5h4YsSQIAziy7pWsi6330WNaV6I+v8kgRFoq3W1enZuN7GMTTW8QO88w3ZaiMRTGWg7mCkLzaMRV+xc9DaBL5jNZVlRj0ePy3dWA49vT5oDlfv5xYvYxiJrXU/MLHtxQeZ8mHWrwdeD1MscKqth81GA+7X4gRLZMSz+0oTw5S7fsua4NymBsMr/VydWIw9XN3vqiwTwCXzzbRF9Sfeg0IIsbPWZsTn9gAC/EQCbzQHzP1TLKzookjzFcyryk8enFpV3ByQ69a8aKXkblYH6bKikHg7lMSkY3alIGo1jHRuSdzCWOiosCwFaUJ0DMHAvn11gLAIAXhEAMAECLCMQAALSIQAwAQIsIxAAAtIhADABAiwjEAAC0qPP09FSpM9+bN2/sFAAAOBQG9ADw7ChPgBgDegAA0DICMQAALSIQAwDQIgIxAAAtIhADANAiAjEAAC0iEAMA0CICMQAALSIQAwDQIgIxAAAtOvlAHM5G0u90omHCRjM7c6tQZmNdpx+vs0r9vq4f6rvlwtlYRrpcsr846Wvd8bb1AKCxcCbjUUH50x/JeM8CKCnT1tvrxNvTsnAbs17hZ6Es3I8Za7qKGos+j8Bfuo5EnytJrm/fK5Vbx3GWjqb0NsTxloFdei1Yerl9bSZXtw6gCnPMoDrfzZZTptzKlF27C78N+W1upMJt+tXKws1CFCWi38xO72QWfikCz106mX/4OG3Pi+lguplRAt9dbcfx8rlIA7hoxnc9XS/9XpDNzHscDMA5MscLqgm8pIxxtIwriHBaKakb+NbbNOWdn6p8ZMu0vcvCwgoNikS/l53eySz8EmQykAa+IPBWQXlrHKywnO/G79fLRLkAb+cCKGeOF1RQtXyrxQTTeJubgdbYt0xLr+csCzeNDeb3Osl7xHo2JnoGKPPJQLp2XnWOvO3ZyZzeW83ytXXl6jpZ76t84wYJgAOZPdzKwky4vmhxdxDh+F6m0ZQrdzdFJWhXbu40VEfqlGnpshB1nFwg7t7MNQDfyKBuBO5eyGU0sZBPX4pyVihfPkVZXpzrqz0CvHEpF/utCAA5M/kcR0xx3x0oCqvgMS7nxHkrJXUSkcE7DdNGWXmJQzqj7ksDeWdP8ha3PelnmhmGMhv15DY+9Sw5Sywzk4d4RXO06F4A4ADCb1ofNcqv4tUXyrd4o1pvuNizwlFuFeSplNRyVv2IB5NAfDe+dGKCcSdqpm+a7/dkaM48HVf8YFI9mJruBP3h6jKPf6hrRwAQPMaXpaOgVtzt0nQ12tHTKCeQdYV4W3TvSXKnbvEYxBM7rWvwVErqOatAbO5hDCZzCXxXzzHVYiq3w1uZasZ0XF+CuQbhLWdx4dj02bPJHAi9YVSLju9Z1wjgALBDuKq6TmXY0crC7VQWprxxHE3xOwstw4Y9Dcj7diQ+oNkoqZQ44n2gNKzjzAKx0lrsw71maPsysZgOpbfj7NJcdlnokRAlO89YTG/l/oGO7ACOI2mgahrZzudzTTod+OIlAfn2QeujLZqN4quKyvE+Sq27ezivQByNwqW12FUNWDO1ydjpGvKwZ0bYihbfMJjEy69SEF/qNutGgbyjgTxeFAAOxJW7ogaq3YHcfPTiskvrop/bKnzCsfTXUVg+EoVrO59ArJnlvWYWU5N1vCDT9ak7mMh8Gdizy4VMhxUDaje+1D3XQB7TQF5tnE0AaG7VG0Tka6V+RvXv/W69l2yCcM92sdIgHMxvDt4A7BycTSBe9ccrPWPrZs4u7+vccxl8WF0i0qOBS9QAGuterELslr6868BaTVfWm91WVq0bdV2WNX8OZzIiCB/EmQTiik32U2eXANCq3ltbMVhIaeU1/CJ2+IPygJmzGrho8ajhtsTs86rhVXGF2ARh2zjL9DYhCDdyfo21tp0FrvrtVc/UkdTBcIy+eQDOUPdKkoGqpvfjwnIr/PIprpGWBsxN3avrHVf+QhnfJ/d8r+Vqo0DTIJzutml6m0TT2NuyohqLPq+KY7FujFFt568E6aeKZMdXjdZ13KVnBkfPrRj46/1rrmV8VaACc7xgt/JyK1j6qfeKHjizegiDll3Zd7NjQmceJJEpB4vKVMbWP7Tot7TTO5mFX4TUU5K2p81Mknk6iEn2UWLrQGrSZjBNHwzlqeTJKAA2mGMG1aweRlOSCisWuWC7WUHYfIxsPhU+EKJy+WsSgboK81ud3KXpdSf3+qLBPEzfO9vlyPSOT/oEm07yrme6NM03+sCZ8a2jPnuuu+pIv5KsF8xlUnsAbADYznSbjLpY5soex3HF87M9QNZMoyy7glM03ORAJvNAfC+/XS0bk4fq0A3p2XRsRN7JDKdWcVEA2IryBIiZY+H8GmsBAPCCEIgBAGgRgRgAgBYRiAEAaBGBGACAFhGIAQBoEYEYAIAWdZ6enip15nvz5o2dAgAAh1JzQA/7AgAa0OKE8gRQ5ljg0jQAAC0iEAMA0CICMQAALSIQAwDQIgIxAAAtIhADANAiAjEAAC0iEAMA0CICMQAALSIQAwDQopMMxOFMZDwS6Xfi4cGS1Nd5oV2mjFl31H/+dQFgH03Ku12SMi2zXX091vm16PLpbdRe/9yZsaariBdtP3mORJ9lW/KDBusWrNd0XRKJlE3meCmaT8qmJuXdruS7xdtbJX2/aL2i5ObWdf3i5UibyfxeJ1cjflyIOPqvrplPv8U6aaZaGb4vPlOstK6eZRZpsi4A7KNJebdNONb1pvG044kERdvW9/u63C4zLfeiTTnR/7EPDcmVxIu+7JQ+e/RqniWm161bs22yLol0jskcK0XzSdVTk/JOY220ngbhwvcrl2m6Xw2+8XKpaWrE1ZP5vV5VY62razuxh/S632qeXjZZFwD2sW95Z2rDtjIsdzd2Iufmzk6obWXaWGvjWmmPatWDeBb2QKvpAhddO7GHJusCwLEFj3ZCq689O7lBo2pyhfrTFzuRYwL6bRSFRT6WBHRU86oC8SqDqboB8eHWTmjuq3tm12RdANjHvuXdt6924lKkSb0hKfe8j822g1cWiD8n11vqBMRQZNxfX6rxJ3aiiibrAkADe5V3yjQAM5y38d8yb23Lq0Uq4CdWDbR03zdE4cZeTSBeZQzlfbATBczlFNNPLkqmz1svvryStEzclqGbrAsAh1K1vDsKrYDc251T+TiM1xGIZ9mm+NvO0MzlnIUGzyjZecZC179/iPJYqSbrAsBB1CjvjiFpoOX6VD4O5fQDsUa//tBOV2g0MNAzuOUylbQma/rNmaswJqD2tKZbNihMk3UBoLGa5d2hpRtofSAKH8xpB2KTKXu2dqoZI5jv0WhAVzABdq5nd4nKA3M0WRcA6jhEeae23fstkr6XTAOt4zjdQKyZcnSATLmiZ3eezaDyNdp8dU3WBYBdDljeXVzaiR1lVdKo6/Ii/msu99kr4nKrnyU9tnSUks+nplprj+b1KQ+rONlAbDJllCk0U/pNgzAAvGCHLO96SQ1Xo2ZgJzekgu5b3TeO6yQDsXlaSJJJTKY8yK0KPW37lJzO1e1f12RdANji0OVd9yqK55H7sZ3IGd/bCV3wKinQdMeZNjL5pFE92a5pyBXNo5JUyckF4qjfrg16vv5DV82UppGBuUwy1r9h7lqJeRTY6t6LyncHaLIuAOxr3/LOMF2cksvDmUakGhmvbcRc3GqgT7+p5ZvZZ9QgS7l3BNJnsawoXrTl5K8HIq+S0oOVB17xMvlUNFh5k3VJJNJmMsdL0XxSKjUo70za9VAIN/V+USp7IERp4qEPeyXze512q+kaujf6bQOtsZruRsn1k4S+ds2jwPT9ScEpZ5N1AaANq0ZZWkYVDYE5mWstW8uufJmWDFA0Z/zoZ9PRkGwi8k6dTkfDt30BAA2YS6aUJ0B8LJxNjRgAgJeIQAwAQIsIxAAAtIhADABAiwjEAAC0iEAMAECLCMQAALSo8/T0VKk335s3b+wUAAA4lJoDetADH0BzlCdAzBwLXJoGAKBFBGIAAFpEIAYAoEUEYgAAWkQgBgCgRQRiAABaRCAGAKBFBGIAAFpEIAYAoEUEYgAAWnSSgTicjWU86ku/04mGB4uTvh7NJLTLlDHrjvr11g3H/dSyu5NuCgAOJim30uVMvz+S8WxXiVdun7LQqFQe9sc7y2KkmLGmq6ix6BH5S8+R6LOUJ3fpB3bxjKDaunbptMBzCpYtT27RRgCsmOME1fjujvKndoGzf1lo+G7R8rnkeLoXVGF+r5OrET8uHHFcT/wgiAaNj1MgmlntElMZvi86GwuqrVtQne3ezFPLFycN1nZpV94N7CQANGBqn8PpIpp2PF80uNkyJ1VuTYfSH9epf+5fFqY5XnrdXJrfSNcuhwr0R6ukxqItSZ/lOUuv1ulYet3yM8Fy/tKN1tVEdRjY6eWXJy/BulzRoGfnpTUtt4rs3mZSIy7+TKjL/JavqLFWV66uk7O5utLrfpVvdW9uzD7r+aPhiPeB6jCA5sLxvS1XXLm7KapfduXmTkN1ZI9yq1DDshB7odX0hku5qHVNJZTxfXy4iHsnhccLANQUPMaXpMV5K714atPgnYZpYyGfvhw6atYtC7GvVxWIVxm3dgaaycOtXdd9J7XqtLMHWa9KbRjAIYTy7audvLx4xvutDcpC7O0VBeKZfLYV01oZKJzJuD9cXQLyJ3WyXqo27HjCVWkAh2EaVMVTztvS+rDqyVt7JXnxGMQT+6pZFi5u30vfdH9K0ijuTsXV7PpeTSCejZIMtP0+rWmFuMo4pr9bbxjVaOMWhJN6Z4DhF/mUnDze0UoQwOloXhYuZLFIpelUboc96XX6MmrQv/kcvY5APBvJcFUx/bj1Pq25fL3KOHaesZjeyv3D7gFB0mYPt3YbdFkCcFr2LQsHk6UEmW5PJgUS+K5Wg4yFTDUgM7BRdacfiMOx9NdRWD7uaC1lMlEmA2mGMn3nTAZaTId6NjeSSvlH97u+Kv2BeykATkqTsrDbzZezXekOJjJf+rbxmMj0M5G4qtMOxCYI92ytVINwsE8ncs1Qg8lc5no2F9vdkd0Iv3xa1YaLuxYAwL7q3/vdfi+5gj3LwqyBvFtH4mqVGpxwIA5nMmoahNMGH2Q1ONbXbzsuUdOyEMAxdeXi0k5uLY/WjbouD9XXqFZZuKmXnEGgshMNxCYI28ZZjiv+Mw+ntu5ozwAeAI5jFdAWjxpuS6QGE2paIT6USv2fkXGCgViDcLqJ/bxmS+cyqRbQ2/vtpWvDDOAB4Di6V9e28dNU7gvHkk53n7yWq0OVRZXLwgLptjPXV89aQTppy4pqLHpE+4+tGj1ByXGXnucvg9wQqYHvLTXD2+3uGKfad+1yPGUJ2NfLKE9euuz4+W76sXJB9kl0RWWRnzy1Scu99NtNysLVuvpZsm/pay0b1+seauzr1y/6vez0Tmbh1qWC4O5UkPkKl0unXGbfkDoweMwXsDdzDKEKf+mmAm5R2v1AiGxAbVIWVlrXBH4Kx8rMb3b63Zcqih5lGPjiua449tbLis5wzSPGgrlMBlsupjCAB4BnNZDJPBDfy5dbyWMMlzIvvD9mGnvZFZzskL9NykKzrtaaxdXlNld1RWvKEpjbhRSOtXRsRN6p0+mYU1j7CgD2R3kCxMyxcDY1YgAAXiICMQAALSIQAwDQIgIxAAAtIhADANAiAjEAAC0iEAMA0KLO09NTpc58b968sVMAAOBQGNADwLOjPAFiDOgBAEDLCMQAALSIQAwAQIsIxAAAtIhADABAiwjEAAC0iEAMAECLCMQAALSIQAwAQIsIxAAAtOjkA3E4G0m/04mGCRvN7MwC4bgfLVM1FW8rlNlY99fPLd/v6/Khvru/Sp+vP260DwCnKZyNZaTlTLo86PdHMtZyZ19mm+NRf1V+xklfa+FXeavhrHgb5rNRWFVnxpquosaizyPwl64j0edKkuvb9woEnpNZdlfa3FZuf46zdDSl1xHHWwZ26bp8N7WdstRg+8BLYvIzqvHdHWXXtoKvkL/0cmXnZnKX/o7CJv+5THmYKRNrf67zFP1Wdnons/BLEXju0kn+sVOp6b/7OlhrJrTzYkEq425m0MB37XuaGb39QmUSiPddHzglJq9jt3QFwvH81Il4kAmE9coNrVSIBk3X07IsvV52m9tO/Nefy9Fyt2AprSjtCuSIRb+jnd7JLPwSZDKmRt4g8FZBuVkgNpkz3s7GmVyFfaxqtHvWWgnEOCcmr2OXdZlUXC7kKgh2bjPpbTrL4t0eqsyFYX7Hk7xHrGdyomdbMp8MpGvnNTb7LNNowhHvwyCa2uTI256dzOm91awJAAcSju9tmeTK3U1RSdeVmzsN1ZGv8u0g92S7cnW9vSybPdzKwky4vmgRjAM4uUDcvZlrAL6RwcEisBHK+D7O8uLeyUae717IZTSxkE9finJ7KF8+RVlTnOurw50cADhbwWNcpojzVkrO/0UG7zRMG2Vl06HN5HNSVL4jCh8K3ZeM2YPc2jxfnLkG8s6eeC5ue9LPNAcMZTbq2fXLzlwBoI5Qvn21k5cXz3pyvzoB0OrHRX7H4TetexvlVwdRH4E4XRt2PCm7Kj2YBOK78SUbE4w7UdcB06WgJ0OzuuOKH0w0ZDezuH0v/b5p/m/TKO6iQE8A4JwEsq4Qb4t4PUnuii0eg3iikXWNV2slm+VZ8Bhflo6CdHF3TtN1qUGvqvNk7xfvVGPR59W04UDN9U0L6WT5JEWNxuz7+9rdfamkdSJwgkyexja7GmolUo2rDtByal0OFTfUKusGGnddys2j4Wkl5rc6+xrxquGBuLLzlkc4kwetPScXbhKL6VB6Dc8CB5OlBEFgSqdUCkQDv9h6uEyHva2DlgDA3maj+OqecryPm21lcpJGs6asms/nmnQ68EVPDCKL2wetX6OK8w7E4VjWV6U/bL2sHI3g1RvKVKOw1oBFz/WiDLgKlIupDHtmhK1ocWsm4/Rl5nQqGL2m283n/K50BxOZL33bIENk+pmsDeDAtCzsr6OwfNzZ1sWVu6JGs92B3Hz0bOVhKhRX1Zx1IA6/fFrVhrc2stJM+l4zqVnW8YJMt6k4UAb2LNDUWrVmHL0Te1wsZFGUvn6zS1SxbiymkZizTODVq3/vd/u95C1MEO7ZK4MahIP5TbPGYateJiJfD9On6tU740A8k4d1U+mtteHV5evSM8Vu5izwftWqeiCT1WXmXKqZ2emnDJyTrlyso9mWxprrRl2XG02cKwhnMqoRhLvrD7Wl3/L6JALVnG0gXneW3zaAh1GxG0HqLPAYKvUpBPBqrE6+F48abkukBiKqXyE2QXgYr296fVSpHPTe2grHQkor6uEXscMq7HdycIbONBCna8MFA3iU2XZmuupfd4TMl76XzYAhwFnoXl0XXGVLS3e9vJarWgWDBuG+DcJignDFrpfdK0kG3preFz8Nbn3Lj77GlS0rqrHo89qn+1LqIQ2Vuizlx7e281eC9NNM6o/5Gm3fcZeeH+S2ra8z3aUONZ4s0C6Tn7FLdtznTPfFTJlTXI6tHuCgZUv27WZjVJeXh8HST3dvqlwgn7fot7LTO5mFX4RUEN2eyjJYKhPWeEBD/pFfyWMQ10HSpJJB0nco65uXSeZg2mPbwEtk8jSqyD1+tSDtfiBErlyqXIaaVFyO7hr34BBjK5wL83ud3KXpcHXDdk+p+xfuXfUGU4PJXALTR06PiujKTNL6WSc1IIvrmS5N8+qXuVPM+NmB74mr27FXfVYcxxWtKUtgLh1xTRo4MwOZzAPxPVfLAjsromVF8vCbkgakF5d2BadgqMqGonEPTNfNXIGVlFcHfSDPGejYiLyTGbqs4qIAsBXlCRAzx8JZ9yMGAKBtBGIAAFpEIAYAoEUEYgAAWkQgBgCgRQRiAABaRCAGAKBFnaenp0qd+d68eWOnAADAodQc0MO+AIAGtDhhQA9AMaAHAAAtIxADANAiAjEAAC0iEAMA0CICMQAALSIQAwDQIgIxAAAtIhADANAiAjEAAC0iEAMA0KKTDMThTGQ8Eul34qHyktTXeaFdZiddsHAbfZ2/ayNN1q1Kv2N6+/oSwJkKZ2MZaQFjhkNMUl8LvPGsSYETykwLsr4WNOntdnQ/I93uzmLwKJ/pTJmxpquIF20/eY5En2Vb8oPidZPku9nlHd2mSat5+n7ReiY1WbdOyu/H9YuXI5FOMZk8jWp818mUBRvJ9e2SdfhLN11uOY6WY7n9ON4ysEvnHecznafo97LTO5mF0wdSW8nVz+FokMoH20zg0gwWpN5Lp8BbL1cY3HS7ZYG8ybp1k/me0X6S77XlO5FIp5ZMnsZugbcOeI7npwJjkAmGjlcWMosEqQqNq2WWnW0Fvrt1u8f5TOcr+r3s9E5m4fSB9BJTurbsFQVEnefY92vXMJusWzfp9qPvYWrXqf0WficS6QSTyc/YRWut9tgvDmq5gGrn7hR4qbLMzstZVWw2asVH+kxnzPxWr6qx1tW1nSgxexBZmAnNSZNBNKuyJuvWNfsc/3Xf6X+6Itd61BifvsR/Abx+4fheptGUK3c3WhBs6MrNnRZIka/yrfatWUfe9uxkTu+tLXRyjv+ZztNZtZr+HOegOMDV1GTdWjTj3tt9vbMBPznBWHyK3gZwBoLH6NRf4+VbKYmXIoN3pm6gFnqiXrF06F7IZTRRtk4oXz7F+3aur0xdYOVon+nMvapAHDzaCXWRP1nT/PDVTpadBZZqsm5NodZ6k5p3UvHuXplzV6VvPNB8GjgDoXxLCp3Li0wwbG4g72yldXHbk36mq0cos1FPbm0hlK31HvMznbdXFYiTWms6iK0ENsApE6Rn47i7USfVRci8Lmx532Tdmr5ordfI1Lx1n8nl6am9bA3gNQtkXfncdvbfk+Qq8uJRC6qKBpNAfDde0QTjTtTtyHRH6snQlKOOK34wyZWjx/1M5+zVBOLZSIOUnfY+2ImU8JudUEMNnMNbzSSaqRzNMCYZ5vVQ81dfA21ak3Vr0UBurwitLksnVve/9UtSKQbQTFeD8VwC37VX26ZyqwXb1JRrri/BXIMwVd5n8zoCsUam6CxOOZ5IYRuCFD3Z07M9EdNebT6P01Jfe0lQ1UBbFuyarLtLukFYvka/ujytPhOJATQVzuThfrq62pdYTIfS0xoy43I8n9MPxJpZ+kM7rZHq442d3uJuooEuH6z19c3H3cGu7rrjfnzZeiMVjAK2tUGY7oPL0wAOIZyNpN8brmvAtl9ZuoY87JkRtqLFcWSnHYhNEO7ZWqTmnkBrp/kYWYuuHLcmFPmauhxdScm65p6KuWy9kZJGDwnN8Mml9el9LmjblFy2NgsebChNAC9Q/fus2+/bpoRjeT+Ma8KOF8h8MliVm93BRObLwF7hW8h0qDXj6B3jiJ/pzJ1uINZANKoRhLsXdkJt69tW1H2uybqTZXwZeyPlPm/SdziSBOt8sm8b9CkGXrOuXKTO7MuLnXUDqsuNriLFZg+3ttz05GNZX+CPnr3CN5X71Vn/8T7TuTvZQGyCcFSD1NziV6kJ6/JJnCw9mdOcldQ6L1PBt9G6Fa0uS/sFQTuV/KTbAX2KgVdtNajG4tF03CimZ/Bx0VE+OEdWxS5Iq77GWcf5TDjJQDzqry/jmiC80VWpiOa41T3W++IgturDqzIZqMm6FYTj9ffJt5bOGyT3j3Vn9JUHXq/u1bWtAKRrpWmhjJPRf5xruapb+dxWqw2/rcZOSNdqj/6ZzlU82uVu8aLtp/U4prL0C97fltIPbTAPjkg/RMFPvSdmjOfUeyY1WXdXWn2niutqpXjvfZFILyGZ/Itd0uM2O0s3/XSGwM+UhUVjRq8ewOBkx3zOPLRBV9wYMTqz7fx40c0+EzZFv5ed3sksnD6QWknJwxAqpqJAnXlKU0HKB9lDrVua9niYRPpz1D0ZIZFeQjJ5F1XkHldYkHY/fMFZ5hfZeIyhfQxiUhaVrRfb9zOhSPSb2emdzMLpA6mVdIBAbFKg23FyGcm89ioEwibrFqV0TbtyUE39DjyRiXSKyeRdVBUsfc/NlTsaNF1v4xGGaWU14kRgarC6TDb4mvJMa7qZxxsW2e8zYZP57Tp2YqdOp6NHjn0BAA2YYWErFj3Aq2Zi6+kP6AEAwAkjEAMA0CICMQAALSIQAwDQIgIxAAAtIhADANAiAjEAAC3qPD09VerM9+bNGzsFAAAOpeaAHnTAB9Ac5QkQ63Q68v8BwtAPoypWPG8AAAAASUVORK5CYII=;" vertex="1" parent="1">
          <mxGeometry x="-180" y="581" width="140" height="79" as="geometry" />
        </mxCell>
        <mxCell id="5zrL49-NiPvy908fqXyy-2" value="" style="shape=image;verticalLabelPosition=bottom;labelBackgroundColor=default;verticalAlign=top;aspect=fixed;imageAspect=0;image=data:image/png,iVBORw0KGgoAAAANSUhEUgAAAeAAAABwCAYAAADGxaNiAAAAAXNSR0IArs4c6QAAAARnQU1BAACxjwv8YQUAAAAJcEhZcwAAHYcAAB2HAY/l8WUAABR1SURBVHhe7d3Jk+vaXQfwn/kvmB8PqxddzQxJkCDkrVJ2b3pDQxjSxSQlAdJe5O7u8u46qZJ5ZLCBghuGFP2AXKhqqZJiCINdFMtUVy9aynsdhlAs2bA153d0ZB/Jmi1b9vX3k+hZVktuXfno/HTG7i0ESnnzUx9WawAA7Xv3019RawDHp9frEYfeb1PvAQAAYId6T09PayXgt9621RoAQPve+8xX1RrAcRKxl0qroFFVBABtQL4CEEEVNAAAQIcQgAEAADqAAAwAANABBGAAAIAOIAADAAB0AAEYAACgAwjAAAAAHUAABgAA6AAC8EZ8cno9OaiaF8cP1faqNj3+dYRrCgDHoZUA/I73bxsvByl8pHu1yu4f1UpVmx7/OsI1BYAjsXEAjoPnWx/o04fe//30M+97Uy4f/Invow/++Bv00z/2vXL5qR/9HrLEYv7Id5P5w99FP/lD3ymXD/zgd8jjb/7wa/J1XUi+Yy1LNPFiOWPxk3JZx/asascCE9d/7JBlpa+hRY74DlDABNgyf0yWfu/J+0/ce+rHTYWhT2ORPyY/W7y3HBqX3dfq2NVxzsbnc4xaKQFz8OV5LeNppeVr6j2vZW1n7/+Bb5ev2QJ6NZ2r9ZX5dERXZakkHNOLjGNp/iA+FUr5IvD2DBqOpjRPX0axYSq+g6GBGw9ge0IavxjRWi4m8rDmxGeK4GkYQxqJ/DH52eL9fEqjq/xCSsgP5OpY2EwrAVgGWD2opt7zWtb2+DVer2t+e1dYkvVvMhIuVCMeXqyhCLzqLQDsXji+olGrN6EIvpbRLHiKUq9j9cjgB3K1CTbTWgBevmoBVQbXnO3xa7xelWmaak2Y39JdbgT2RclZrQqJ46BU+uHFdD0K1PfFSxB45Nq4pgBbIx6Cr5bR1yS7hfttLaCbNnlBsLyvF4uAAs8l9/KE+mqXmH8zpDhuc37g4q/WbqyVAMxkIFVfYvye17K2x6/pbZVcXtLqe5/T6CanAtR/Rav4a/NhxcK4rTPdZmzJ9ubKbZ38Oal2FW5Tqd5WmnF83u/nJ1JtPyfrUvjO8ueynabSeYT0qPdkEtfv+fUgcUP2+wO6nszEdzehgdombeOcdnlNWZO0oP+74/a5tXaykt8LoNEfgk33JT07VW8a8+lGj76mS8FM3L/9xJ1N/cE1XYv7PZMM2AuaiZ+fqE3QXHsl4FRA5bWs7fFrYptar+acLvQnr+mrzDZIXy/+2hfiqAJc3WrEbZ364yGby/bmoZETTHQPN9HnpNpVuE1laFjVjuc21/Tx8vdbGR0jkj1+y92LI5oQx1UOGi2f066vaeO0oP275w/0yO3nGe1k+d8lgEakn2GchYlA+fI6XR5tIFEoEdni8+u1Um6RwUTk2zJgqw2wsXZKwKmAymtxYE0EWvWa2Ka9r2rwzKVVZcyUXqUzQ9n5Sq2LPd1nOU9zseAhkTnnmQ6LOxzNp0VtI/ONj88t7beuTydnalUSv5uD3dgvbHPfhp1f01bSwpRGhe3nu/wu4fD45Cyjb/1AmSdMVGvZdFGSLcL2td4GzGvpwJr4ub5NvY+21NA/p0utOWSaisDh3e0q8zMv6bws9RqnIkyL/9nuWnuIl2jnqFASVFU08vjA06rL2ZRelBV9tOO5LSbR6pNT2t+G5EMOE8FuNCSji2rUXV7TLaWFLr9LOCzh+MWqpGp7NGkpUAYPqUdC1USSGIbEwws7eNA+Vq22Af+c81n6ebF85GOfo498/PP0C5/4glx+8Tcncvml35rSL//278nlo5/8ffro9R+sAnYtfTpPRmAtMwvp7naV0MzL8/Knx/41zRYzmk2u19pDkoFoTg9F45eWbSrqfX9Ak2SuTfOiD0gdz20xL109265TFbwhviZBOghH4mpYDsRbP51dX9MtpYVOv0s4HImOV+IBrq3ou4abcDKGIfHwQn7Q5j4WahNsT2slYA6hX/rCJ+hLn/84/dnnPiaXP/2sI5c/+V2b/vjt35DLF3/n1+mL418TmdGv0h+JpX7wjfTPL7XMUKuGDu9oFX9Nuiwt/q6E/pgc8QSYeCI0qg9lygz2g4tkie3+MTdoZR3fT9YF75YMRlzyywrDUSA2tjwAv6truo200Ol3CQch2fHqWbKD4y5xH4vSDhawqXYCMC8cSDkQq4Cqvya2qfe8JbG9rpxq6NrVzxKPjeuRMRzRVDwBVs1kqzHoVI9fBzcJiCj5yd7OPDzBJnMtFndxo27zmm4zLQAU2EbHqwJyaGHctCOWtWaSggdbaEd7bcDqS1y+V6+Jbeo9b0lvry9dDf2CxmGym31m6SmD7xgtD3YvYJ6K8HGIeHjChGYzcaMmqlKFrtszW7ymO00LAJpEJ6k51y5ptS9iMRIJUzz4yu1Na6DU0EItg+Rmkud61RJmDNy6dtqAVWCNVlev6SArt8XvU9ubSFZDz+n2Ru9mX7X6OTlhh2x30Z4KFzntoNUFlO77sC33O2pU7F/PKndI2s45beuabjstALStaV+C7OOMRNUSbFt7JeDUa2Kbes9bsrY3lqqG5iEnS/ZzalKDI9tdGtb8ZE6NmRp7R2frM8y0Zb0zUkjj1XisLTqjk5x/1Kbn1OU13SQtANTVrI9A/r2XNkhMoJDViTDZgfVwa+sORzslYEEPrFlBlrdkbV++byRVDa2xGw5y0zN87ohj1eh4I6uN9BmaeFIHbTwfa3pemfon4vbTcDV8/Mt5iAHP+dqopBjN6sS9nPnzwkQE5FmirFVbFbMvVp1F2j6nXV9TzUZpAaCuwUTmhXlLsunHJk9un2gdtaL+C3GVtZUenieH2K3IsezLXfi+Tk1TucXCAkRaLwHr6+I/0bb4fWp7/D5ebyJZDR2rM8h8kJxZS2t74Y44tTNcOUOTugnSGbbpUtmcIPWkzl38ttHQUL972LwtU/1NXe7lzJ9nxP8eufAsUfoHpyc62cI57eyatpwWAHYpMQKEk+9Nsn24n2rj5Xbk5b2dvq/Xh0D5TrxvtCSfg+M26WhZC/6QqZUA/K9f/1YikMpX9Z63ZG2P3/Py9W/8r3zfSKoaWtJLZBWsTzqh42kZqrDJTY1PTRIJ+mU7M9roBpP0xBRJctL0av+AlXQpNpcIvsFsraq/vXPa/TVtJy0A7Cd5b5YmYr6v9ZJ1fYVj82Fp4wD8s8P30dP//B/9+d9+g27/7l25vPP379E7//BEf/G1b9JfiuWv/vHf5fLlf/oP+vI//ye9+pf/kstfz75FfzP/b3n8s1/5kPrEYmdrM4D36TzxWGdmV0kWta/ISSfW/7qPKWcymqWeGnVaoDJP6YSrkHimpsRYHZ5Vif+S0GpShpVkoFv/t7FktdG6AU2yzl3O5MSTpuutOGcVJ1CPP5OHHa3/dr4urheIf9N68I1sck4dX9M20oLQ7LsEqEjcG2tShZHsccTi3pxlDynke90WD8f593V15ilaj6voiRJoVBzVvPmpD6s1onc//RW1BgDQHPIVgAhX03Poba0TFgAAAFSHAAwAANABVEEDAADsUFwFjQAMAFuh5yNZkLfAsUIbMAAAQIcQgAEAADqAAAwAANCB3tPT01ob8FtvF80+BABQjNt3y9qA3/vMV9UawPERsbe8ExYAQF1VAjA6YcGxQicsAACADmWWgGNxlAYAqAslYIBsheOAYwjAANAW5CcAEVRBAwAAdAgBGAAAoAMIwAAAAB1AAAYAAOgAAjAAAEAHEIABAAA6gAAMAADQgYMJwKE/prFjkdXryTFU0SLeOz6Fap88fKxjNTt2je8kPmPsq+0AAC3ZJL+rpVZ+FpI/dsiy9HMSi8hbHT9s97yOBU/EkafkxzviLVyT5LnkL/bCC9TuCUG1Y9Xe5byFnTrern4wwFHj+wXKbJLf1VUnPxP76udlmgtTLPqxZLoix4Uq+HqxgygBP8xNMm2XvCCQs4dES0CeSBGRKQ2vxhlPYEG1Y8VTZRW+MxR7C6b4TLkFAKBdzfO7eqrnZyGNLbHvnNdtcV7ifGYzmomFzy3w1F/Pm4/oaoxycC3iAuYq+fEe0Eu45sKt9filH1uhFBy4C5FIo32X6ygBA1S1//nJvtskv0upk59VyO9EDI7OC6XgSuJ7AZ2wAAAAOnDgAbhP55fi2awR/dh7eiysOQlpfDUiroEx3Wc0iDYCAOzQJvmdrml+ZtKpoVZTjNM2zuv4oAQsndFJX61mCMdXNIpSK728LtgRAGDP1c7P+icih2Rzur3LKqmEdHcrG4jJvDwXjwlQ1cEH4OAh+uLLgug6n25kKhTsi4KnwHg/k9yX10hcANCZ5vldrEl+NqCLZT8rg6xER6uQfMeIAjrZ9BwFlFoOPAD79Ep24xMKg2hK6Ee9+uQbm7xJQfiNewrazwlpCwC60zC/0zTNzwaTVS9sDsI9y6GxnF/BoCF/oMm9oyeNzumoya5YOUp+3Lllz7uSHoGBG41Zk4vcP1pM2y0eT6f3FFSbJPSCBqht3/OTfVc1v8vVQn4WeHYiD+XFFAeh53M9fN3kq/xvjninvSQSwjIBlKTGVcJdX/ITz6rL/1qiRAAGqI3vF2ioRn6XrYX8LEhNxqEvJg9nUvtBKb5m7DCroMMxWbLeQ6jQkWAwiQezqyWIqlNEoqP5dEhGz6H0VBx6R4VnqFcBgK7UzO+ybJqfhb5DlhFNxiEKLSRircxLeRIOzkdFRkpDg6eklLtDVeIi5ir5cTe0pzWRmDar+tCeKinx6BdP0ZZT1YMSMEBte5mf7LtW8rsN8zPt59ml75qTGoG8VvJV/jdHvNPe4CoQlRA2Dr6SlnD0z9MDc9UFM8AAFOL7BGpoK7/bMD+rNMtVaZAGHV8ndkBV0D45XAXCq9zjboYhQQDwutqX/C6kx3u1enaSfw7LscJQx4EEYJEY9WFDs5a6u4d3pMaPJxPXYMKPJ/lL4EbtHoLtqW14IACAVrSc37WVn90/inCcI3ykVZxGTljVAQTg1F/iWFRPjOHYisarjX0KUymH/96mZUTTsYlHTHLR0woAOtc8v2O+I/I8+Td61zuWNqNNf8l/7Sjr7xHzvApXcV5q0wWy0sr2PwD7N2qWFTalof6HoNeWjEQ3n9JoNCTDSO5rDFfB1/ZeYpINAOjeRvkdVxerg+dl89tX17+erSbhkKNGxO+2LLJ44XVjqM5ZFGQwGUcthzkMqSJOOIvAI9e2+U9eJokNtutREMxoMkD0BYBD16eTM5XRmU2nqsw2mMxEXsl5qfrbwfO5+L9YxKoZ56WLGQoyNfUWXOGfg5+yCn4MAFAZ8hOASHwvvNYlYAAAgH2FAAwAANABBGAAAIAOIAADAAB0AAEYAACgAwjAAAAAHUAABgAA6EDv6ekpd2DeG2+8odYAAACgLSL2YiIOANgN5CcAEUzEAQAA0CEEYAAAgA4gAAMAAHQAARgAAKADCMAAAAAdQAAGAADoAAIwAABABxCAAQAAOoAADAAA0AEEYAAAgA4cTAAO/TGNHYusXk9O4xUt4r3jU6j2KRX62Z9hOTTO+JBwbGn75SzWuPrvBwCooJX8rkToO8vPFx9bis/JsbZ7TkeH54LOU/LjHfEWrknyXPIXe+EFavccnm0mjjFNUy7Lbban9lzx7NX+uYvpLkp+NQAIfL9AmXbyu0KBt7BTvyMj+9ME1c5J7Q3l+JqxgygBP8xNMm2XvCCQE1hHS0AiqKo9pjS8yi+Jckl2OJ2LNVPE2egzZrOZXORnBR55zwbRzhlMV/+9qWV2TX21HwDApjbN74qEY1HqNYYks8PKgmrnVKUYDUniQuYq+fEe0J/MzIWb9VQYuAuRROQ+xU956+ISsAjAagsANLX/+cm+q5DfFQjcVY2fKTLDYIO8cUU/J5SCq+LrxQ68E1afzi/jJ7Bs/s2I5MOe7dEkv5ALALDnyvO7MlEpdkEzkRm2U3Onn9M9PaIxuJbXvBe0T6+m0Zp9gegLAMerfz0TgfeaBltrMzujE7TH1XLwATh4iBszMr788FE8kzGTTg25AgBwsArzu074dDNS52RfEIo59Rx4AF6VcDO//OAhqn6WiTUknzsgWHoX+p4cguSXVJvMR1diPx6upBbHobE4CLUtALA7JfndrvGwTmtI0SnZ5KGNrz7ZEpyj5MedWw0Tyu6QoHc60JdoCFJqW8YHlA9DMhf2RuMBAI4H3zPQXFl+V1vNTlicn8bDN+PjeDFtd7NhUUcovhcONwB79ioB5KTGZK+/jEQS6GPusnvwBcHaQeIwO5EAm/cgBDgefK9AQxXyu9pqBuCiAonsVa32g3J8zeSr/G+OeKe9oyWcookwVgG4oHt846743sKOzwERGKDU3uYn+65ifldb47xPEYUTnuBoeW4YhlRZfC8cXhtwOCbLUEOLTJeCTSfC6J/QmVq9r9WHfkAXIgJL01eEIegA0Lq287s29fs0mMxoJorGEUzGUddhBeDQJ6dGYuyfLENrwfg0g07FI1wTRtMDAQDK1MzvOjN4Rm6cFd4/onNqDQcUgDkxqh53pk1elcRonFKULub0EMiVdeEd3UZdpemsZr/+5ZAA81SEcQCAtjTI7+DgHEgAFolR7+4+m1Trgt8/p3iSlumL7LlTw7vb6Amz7ljhcEwv1JAA8/IcNwcAtKRhftcVrRAjSjHIC+uQLcE5Sn68I5vNNbo2/6nazp/r6cOUUr0Q5HGmvXC9INXpId0LGh0PAKrg+wXKbJbfLf/qm8i7So+t2AlrmRe6PH+02qgEntZBrK3hUUcgvhf2PwBr3e/Ll+xEVzaeN6sLvR64cxdO5EhwAJXwPQMlNsrvSv5YQ+XPTn5upbwQcyLUwteMHfhMWNUMJgsSpVYyVXV0zDRtEiXczInJed5U8XRHtjgoddjyuICrhlDfAgB7oU8nZyq3Mtenqgwfo4l56+K8kP9kq2uv56G8wXY9CoIZTZAZ1tZT0TgTT9VY8GMAgMqQnwBE4nvhKErAAAAA+wYBGAAAYOeI/h8woyHDPS8iJgAAAABJRU5ErkJggg==;" vertex="1" parent="1">
          <mxGeometry x="160" y="560" width="190" height="44.33" as="geometry" />
        </mxCell>
        <mxCell id="5zrL49-NiPvy908fqXyy-3" value="" style="shape=image;verticalLabelPosition=bottom;labelBackgroundColor=default;verticalAlign=top;aspect=fixed;imageAspect=0;image=data:image/png,iVBORw0KGgoAAAANSUhEUgAAAdwAAACYCAYAAABOHVg7AAAAAXNSR0IArs4c6QAAAARnQU1BAACxjwv8YQUAAAAJcEhZcwAAHYcAAB2HAY/l8WUAABlDSURBVHhe7d3Lc+tKXgfwn/kzeAaQsjiV4s1lkGAYlnY22UxYphhABjb2JruzPCuykQcGsBdAhscUucAEqiJtgBkeUgHLqVQWkQYy933nsWDD1vy61ZJbsuzIlqzjWN8PNJE7atmHq/RP/XRvzqig1+tRSTYAwFZQpwAQfZ/6CQAAADvUe3p6WnrsPDo6UkcAAADQBHQpA8DOoU4BQJcyAABAKxBwAQAAWoCACwAA0AIEXAAAgBYg4AIAALQAARcAAKAFCLgAAAAtQMAFAABoAQLuSjH5kyHZvZ5ctC+TPSRf/Tax5pzYp6Gd5ts0iWUBAADoqFo7Tb3r/Zc62t7nB++oo/3iD3s0mKkXGseb07SfHK875/LRJnMcqhzmeDRPCwJ0TNU6BeCQbd3CTYPtr37GoM/9wo/Tr7zzYzJ99ud/lD77c0f0yz/7IzL90s/8MNmcrJ/+IbJ+6gfpF3/yB2T6zE98vyx/9adflz+X+TTJWojlyebW5MSPuZ3ZsHhCb0oCaU6VcwAAthTHXAcO7XwPWo9fi3pv60pP9crZtnZNdd3hhLg6XSMtq5fjxNca7qIePkSihVu0Ijvn5u4/59/53vfm3/7ud+effuc7Mn3y7W/PP/n00/nHn3wi00cffzz/kNMHH300/+DDD+fvf/CBTO+9/75M33rvvfnv/cnX1BWLvLnDn0N8lmeT5fDZzYlcK3d9x4vUL6K5Onr+nMidW9nvrbmbFgToIPF3AFVFc9fJ1y9LyXKzuqiyXJ20OllllVWVstt8po6pNYbL5bNuIvmz8Fr+VyjJT3+mx7WFMxrYkx09YTl01jeSQ8MgdVRQco4xokD9G+fzgEblBQEANDFNbJPGM204qhE+Dc0xVblqOL4otKArlg3HZA7zs1wgr3bAzX6q4JK+Fkdl+enP9LgyMQaqyokUeQ7xE9dCeEN36NMAgBcsnlyQPvWDLIe8KNLqvojrPpfc8+MVD//l4skb0kfALNcjbo1m1/QcvTYN6UarTP3hYHXZyOPmhmb2BhNE16g9S1n8P53/T/JTvRZHZfnpz2LeNoz+lK7d/E3yEKnDVLzZeIWYBCV+n5vsxLfaIC3HrehJhXPkZeOJNvZi06T0wY8/X2GMRozPJJ9LH8NO8wDgcPl0pdcrlktRMKW+oYdWg+u+EY1GdSZgOvSayy+ualB/+jofODMxPd6rQ4E/07Ve1ujTlBs/C/lgDXn1W7iFACqOyvLTn7k8dbwt4/hEHZUQAc80aTCeURgWO0NCCmdjGpg92lkPSPSgdcHww4A6WhDLhvjzzfizqBwhFN3jppiE8EgP2S/u6VEdAcCB8m9zLUnn9WijVmx1XJ8UY2L8yLkLJ8fpO0daPcROSlrW/bNcsA6XWj6QqtfCLQRQcZQG0lxgVT9zedrrbcX5Ry96ZapDIRfwVpsNimtr2yDGaQa0epgm5M81zv3xAcBhy9dnYl6IOmyAcXquDcGFNOaHerHCQxJ7BlxoY7Tcir3ECsadaGwMVxwVA2nu93qeep3kbEN0FRfWuVrndKo/epmv+Abj/3HcpTGQXA+I9rTXnybnRLmuaoe8tGwwolGFc559KvWv8uM0onykyosxEf3SANAJUa4pycqWBYklOBM/GbbahDFaGoIbD0y+pk09U3v4l93Yeh1m0iu92GwglwAtiLr4Ntc6pvvHzT9fR2y98YVYhyvW2Yrzfm34JZVb3Z+5X5Bl/+5f3qPLX/+cytXxU1cvP1i/mkVutMFMYNndvHii0zezEOJcMBfBdErFB75nz/GH1NN2xdDfI192+f3FTSxnKmanbPjvA9gzVeqUrlu1kU4pMZlKjO+ql5Vx3Sdas2W9a5bjUVCyOU+xvnrWUtCGVO0WrvgT+sof/y595Y9+h/7qD39bpr/80lCmv/gDh/78939Lpi9/8Tfpy5Pf4KesL2TBtglJC3Z1MIp9vsH4qTD3lFhxevxuxHR3o797WdeRQafnaOYCwApirscWE1Diuwe6X1H5hdx6lVvTFpqnxuiaco1j2Fq9gCuSCJwi8KoAqv/M5anXIieXX1N4T2SWBlvRSuyRKcZCw/zEpL1ivSJ96BkAQJDLb9KhJk5iOVAu7m3UdavqQzGJVOWIFq24Zn5FUDJpM7+0x6BREJHnOmQVAq8lly0VhsHKJlaB1Pgs5fRnLk+9FjnF/MqydbiFNWMrFlv7Q71LFgDgJVFLd7TIJZYDvc5PB6aq84Hz63vFENVcdh+La06D4pyUkMZXxTrVoP5oSgGfm9TDSQrksiX+tVbXWrnZq6BrdJZy+jOXp16LnLL8zYk1Y4UujqXF1j7d5sZCtElJIkWFJ0UAgL1SsnSHmbkZTFUV1vc6r5eG4Ja6jWe31VdvFJYzLZYUQVFjs5TTn7k89VrklOVvz6BR/lGv5IlswXIvk6ewvWBQbvlw6Q5ZxXFeADh0/bN8nba8nLVQL+zFcFRMk9y3uDS7nOnQ1GvhMj2QlgVVkVOWn73eVv/ymVbuQnhzl411iElU+gzlt6H4hzW+0CYqyO/RRXc4QOfIpYwLco+ArE4Ty28K2z7mxkqTMdp0Yqi9bn9FriuXl/YUt5TUgrlcniR25st/I5D4NqNiXSUbN+oYljXWws0FUfVa5JTlp6/T4+0UZ/LqW4r1KR/TxmSqG1FMonrrsaywM0syUSGdQb1uQwwAOFhGYYxWbBmb1gs9sWueXjE45OXWMt6R3vgNx1dal3ChPuQacCbX4K66NgfO89NFMI9uaSx35jOzelQks1hXyW0f0Z28Tq2A+x/f+CgXOOVP9VrklOWnr0X6xjf/V77eljHK7/+p32T9y3XjtGJLjLepT9O148gWOdj9AqBz+tMqG9+ISU+brcHtT6PKS3ssN6Jgw8Aplmdi7e3ztg64nx+8Q0+f/h/99T9+k27+6b9levef/4fe/doT/c3Xv0V/y0lsaiHSV//1ffrqv31At//+oUx/H3xE/xB+LMuXb3qxzHqlDnLEk5t+F2kTDcTX40UeuYW7N5nGHhSeJNcof+O8snNy3UMWLZ2hPp+Tm2cvdsYS38QR0GWFtwWAQ8MP44H4RqCyJTj8IC6WCpV93adxSnqH33LXrljakywtEnVO4dLi4mpPg/lysO1Ps3J5i538gimCbRVb7zQFu5Xf3QU7TcHLhjoFoIFJUwAAAPA8BFwAAIAWIOACAAC0AAF3X+V2xzghbN4CAPCyYdIUAOwc6hQAtHABAABagYALAADQgt7T09NSP8/R0ZE6AgAAgCZgDBcAdg51CgC6lAEAAFqBgAsAANACBFwAAIAWIOACAAC0AAEXAACgBQi4AAAALUDABQAAaAECLgAAQAsQcAEAAFqAgAsAANCCFxVwY39Idq8nt4kb+ipzrZj8CZexkzJZsm0uH/NvV4v9CQ35vPT9ksSv+Y3XlQMAaBTXe3odNKlU91VQ57q7+kyHTuylXLQi++2JvLljkfxcaXI89buVCmUsa25x0q9BljuP1NkL0dwtvNdycvjqAFCV+LuBbXA9Vqh/nq/7qqhz3V19psO39y3cWLRQzQHNQpVRSUwTOy3jkBfNaR4EFHDifzNFHt8uQjimi0mxvRrRQ2iR5bhcLpLnJykijyN4YkaDak1sAICt+UOux8SBxXWSzGlGnevu6jN1wV4H3HhikzmekYibluNRFLnV/gPHd3SjArTjTalvJMcpoz/l4Jkchzd3hS7iPk3nHJynIy6nFzSoP70mbv0mZreEkAsAOxNP6I2MbNxouD6XWY2oc91dfaaO2PsWbtLSnHMA7HPI25RFr0x1WGC+2ubZzKDT87TcPT1iMBcAdiKmycU4aWy4l9wMaEqd6+7qM3XHXgdcY5S2NFVGVcYxnciDkG7uyqJiTHeqCWydn24RyIUTOt6uIADAWvHkgsZJZKPrUXMVTZ3r7uozdcmLmqVcXZ/OsmFak+zcOG1M/tBMbhxy6PVGN45PV0lBLnqGJzwA2IG0nrHIvR5t2SAoU+e6u/pM3XKgAZdD7nQxyUkE3Z49pIlc6mPSQIxBWGIy1bR60Iz9ZCKWfMFlpwi3ANC8bFKS85qabEjWue6uPlPXHGzATSY5BXJGsgy74YzGg7GcuSwnYAXLk6l0YsKWLdbhpmtxzYFsFSdjyhsEagCAqvRJSU0+1Ne57q4+UwcdcMBl3Cq94jtFdITowtmATG7x+msmPUUPIYWhSipPCGdjenOFzS8AoGmLSUlydUWS2YA6193VZ+qmgw24clcqtX5XtmjVelq9xTswxY5T8vQl/Wm6/lalKOmiFmVlwO5xwE5OBQCoTZ+UdNlgZKtz3V19pq46zIAbT+hioNbvulFuSZFYgxvMI7WeNqTZoGLgNJIu6iBdwEvY/AIAmoKJUp3ArbclK7Lfvsidc5x8disxjonJlmOlWzcq2rU4KKvMKrStH9ddHwAye1un7AvPSeqUTVKV+qfOdXf1mTrsAFu4MT3eq8OT49VPZdlaXQAAgN077ElT94+rJzfFj7SIyxt0lmjbRq4N6AAAVfWni/kiZUnb1tbxVF5QoZu3znV39Zk67AADrrb9ovhygrKv0xNratXMO75V6EybDCCWA8k1uxMuVygovrLPNtNyFrmYRQAAe8Ifct0lljCKFRgqD/bLfgfc3HcuirWwabAjmg20/MKMYbElZLbphZxRzOeUrKmVQbNsTa1Yszvmcqb+Hj0yB4tg63jXWAAOAHtCDKWp2jHEPu/7aq8DbpwNxm5ObnoReeSqpTykram1LA6YrlgqFCwFTRGs57KcI759Ki8tFwU03XiDZwCAXTHo+ERVWBb2ed9XvbnoeC8QrbmSbACAraBOATj0SVMAAAB7AgEXAACgBQi4AAAALUDABQAAaAECLgAAQAsQcAEAAFqAgAsAANCC3tPT09LiuKOjI3UEAAAATViz8YV6AQBQE1cp2PgCOg9dygAAAC1AwAUAAGgBAi4AAEALEHABAABagIALAADQAgRcAACAFiDgAgAAtAABFwAAoAUIuAAAAC1AwAUAAGjB3gfc2CeaDInsXrI9XJpszovVOauIskO7/bIAAE2I/SHXQT2ue3o05Dqpnph8rkxtrtTE9dJkc6Xmb1qp8edaXMOmSe3P1hFiL+WiJPvtJ9ci+VnWJS+qUbakXN2ySEhIy0n8zcAGIm/uFOohx1O/20bkzi3tWmRZcyt3fWuD6/Nn06/FqdZn65C9buE+hHwb8H9ZDqr817pIHuelBhflLc5KZbm1WqZOWQCAOmLRCjUHNON6qBk+Dc0xyctZLtdr/AQUBBQE4mkoIm5gsJBmA26pVmjp+kP+bOKAI7YsCtWpwJuTZO930luh7opW7qqkl920pVqnLBJSV5P4e4HnRa6V1S8WNxsjrWW6bStycU2L60qVmbNosVrlJyxkn8eZew18tq55sZOmTs/VwRb0so8bjl3UKQsA8BzLSVqhwbRPhsqrIxJddoLzmkalF+zTmeq9C2/u1sxRiWlykbSULfeSS8GmOj9L+bjGHV2nLABAkTEKONCOqN9Y3RLT4706XMN8pTqHwweKkqMl8eSCxkm0pevyyA3PeLEBN3pQB2zTwHc1Vgf8VLfpU1qdsgAA+8g4PlFH9yt67nyu+2S0Jfd61EjLu4tebMC9laP2bJPAxzfSxKZkwJ95U3VQRZ2yAABvhUFZLJ3dctjcTjZRamW3NFTxIgOuP1wEPvdSHZSIJ0S2WEubrqc1SXaJpDOQ1wXqOmUBAPZFPx2g5VpzMPSXx2hjn4Zv0hq1BFeGya8dbmig5qvj5QVcfkQbqHvDcmnt05bodg45SMqk8oSQy7+5ko3WleqUBQDYG/0peY4ao50NyJSbXdgyyY0r1i5BWkyUcrwpGho1vayAy1HOHqhjvn+uR+p4Bb7PaD7XErdMxVpaceuJwGlyy3VVF0udsgAA+6Q/DSjyXHKsJPCG3JIQSayldVxP/k6F5Bx9otQlom1tLyfgimBrqtYm3xlRIEYnNsQFRCANPPWaVd7Aok5ZAIC3zOiPaBoE3IDQFkjz6+lILD96UD15J9okVEyUatrLCLgcbId1g62On9SS3VXYvbx8dXXKAgDsIT+dheqcLbqN/Vs1VyaksbnYezlL6e5VbDZQefYEdeIaLyLgimAr/8NzoPPqBlsAAND42aoP5wz9xru09wFXfGOPuhdksG3kduBHsJv00exkwwBepywAwF6Jtb2RC+O0/Wm++7mYosW4r5Pucxug63mdvQ64ct2rCm7837NysBVLenpcdsI/40L/hvjavWwsmBWXFdUpCwDwtvjcOkm6dYf5CZ1i2Q9XaH6hQotFPldoyaoPjNO2gp9KliTZbzl5yabYVZP+RQL84FV6TjE5/B6596xZFgkJqTyJvxmowHOW6pry5HCdp4u0L1YpfEnBs9dc9aUGz8CXF2zs5cxS3oAx4jsg4haoWMaT9nmk+LXjEkX8+7I13HXKAgDUEVfZ+LiU2FFKVViWPtOY9S/J4wqtWJ9Z6ZKgeYDdo1rSE1FXHWdEt8RyLgDAdrhKkU1dgC47yBYuAADAvkHABQAAaAECLgAAQAsQcAEAAFqAgAsAANACBFwAAIAWIOACAAC0oPf09LS0OO7o6EgdAQAAQBPWbHyBReoA0AzUKQDoUgYAAGgFAi4AAEALEHABAABagIALAADQAgRcAACAFiDgAgAAtAABFwAAoAUIuAAAAC1AwAUAAGgBAi4AAEALXlTAjf0h2b2e3CZu6KvMEvHEludUTeXXismf8PvZhfNtm8+P+bcN43/b4n1smqz59wHAYYv9CQ25rtHrHtsecr2wXc1TqU60J5Xqtar1MCx7GQE39vnm65E5mFGosnZLvJ9JgzG/n3hDy+L/tZJfccZsYJJZ8easht+P/20LIT2oIwDoFn9oc103ppmsfBbCcEZjrnt6W0S56KGBmrP1evjw7H3AjUUr0xzwzacyKjBGgdwofV2KXBVAyaGzvjqUYprY6fs55EV8fhBQwEmW8xx5FoVjupg0E3L9Ib+fOBCBXeYAQBeJluhAVXaW61GU1VkReY6qHWYDsreseyw3yurApRSMyFDnFW1TD8OyvQ644uYzRSuTjy2Hb77IbSgg+XQ1VneOc0b5eHtHN+mvvCn1C3eg0Z/yjZ8chzd39Vu58YTeyGjLwf36XGYBQBct6iURGINRXwuABvWn15S2E8LxFZ/djt3Vw92z9y1cy3FlKzOY6jdfTf5t0qLk28a9zIVbjUWvTHVYYL5q6nbj1vTFOLmR3ct84AeAToknb1S95NDrUVltZ9DotXrap3t6bG5M61k7qYc7aK8DrugaDqajpVZmPRzkkiYl39evaem+No7pRB6EdHNXdkfHdKeawNb5aa2bL55ckHygtVy6Lv0DA4CuyMZZrVe04lmfqH/G4VhYVT81bzf1cDe9jElTTfKvkiDHnPzgrdKns2yY1iyMlcTkD01VftVTaFVp9xG3sq9Xj50AQBfE9HivDk+OUR8cqI4FXK11y63KVb3J/eligoIIuj05HV9M0zdJTia2xGSqaa0u4GyiVFkrGwA6JqJFA3dl+5aZlI5ohQ9RcrCBcHxBtm0v0jBZatRi73SndSvg6hOiXq9rVYoJCoGckSzvbTkdX0zTF7HWoyhYnky1EX2i1BQjtwDQlpDCUEuzZKmR2Uv2F4Dd6lTA9a+SCUoi0JX2Jutin644Kqr4nAlnAzK5xbv9vbmYKCVnQSeZAAA705/OKYqKS4KiRaOCaySxvwA2stit7gTcrFUpepPXzwiWO6moNWeyRatuUL3FOzDFE6E8XfFponfV6IlPTOOzPlFq5QRpAICGGUaxW86QyxyDuacmYhHNbhFxd6kzATe+u8lat2snO3FgvlA7qci1cNo0+OTmjNRaOPFEyC1d+ZvEg95Vo6f7R3UGJkoBQJnNx2bXj/VuYjFRlCNua+t7u6gjAXfNRhcFWbfzyqU6Bo2u04XfM3qTzWLu0zTXXaOldAeXbP1vSGOzsI+pSGba5S02k1F5jW4hCQD7yaDjZD0iET+gr/6bX0yuOjlu7pG9ub0FYJ1OBNzFgvJ1G10IFafmZ2t1AQCakQW98IHD6grapj2NNXBZpTXAUFsHAq7eut1gCc66p8z4kRZxeYOnzP60vAWcJm3LNMdTeWv2NwWAw2Gcnpf0nOn0ZY3ndNpUxaDPb6m5mQ+sd/gBN3siFL3Jz81SMuj0PH3KHNOFNtkpE/vZLGMxHvzsJQEAqjBOaVH9XOSX6Yh6x0433RFth+UHcfEtQ8kwVH5uifxqPvXVfvn6jF/LCaKL+qzeZj7wLG5FLVmR3T7PkZ/l+eTMPVUkL5q7ljrHcvlVNZ5j5a9vWXNLJD2PrLlb9YJVRW72HtzCBTgY4p6GKry5k9ZZK5JVWvFodV2hborcQn1WliyuQ1fVZ7XrYUjtdQs3zgZUt1R5o4s8uelF5JHLd7584ExnG/Oh+F5cxxVLhQLsEAUADevTNIjIcx3xbZ0arovSLxBYMZnz+EQVsE5IH+kSeyFHnksOXzB3SWZZDrletHYzn9r1MGR6Iuqq44zolijJBgDYCuoUgA6twwUAAHibEHABAABagIALAADQAgRcAACAFiDgAgAA7BzR/wNFNyzvxp3WaQAAAABJRU5ErkJggg==;" vertex="1" parent="1">
          <mxGeometry x="864" y="587.41" width="196" height="62.59" as="geometry" />
        </mxCell>
      </root>
    </mxGraphModel>
  </diagram>
</mxfile>
